<svg width="672" height="647" viewBox="0 0 672 647" fill="none" xmlns="http://www.w3.org/2000/svg">
<path d="M485.531 191.379C406.999 165.133 383.22 149.798 336.397 95.1958C266.865 14.1348 143.31 -12.0091 82.464 102.502C35.6733 190.575 37.5504 312.381 86.7169 378.331C169.507 489.39 354.138 544.768 485.318 499.886C598.409 461.201 654.769 353.058 607.705 265.056C591.742 235.208 560.749 216.514 485.531 191.379Z" fill="#12416D"/>
<path d="M173.589 636.811C218.89 660.21 273.169 641.961 295.366 595.869C324.962 534.432 317.635 473.195 357.439 412.291C383.478 372.453 412.97 303.843 362.421 269.816C331.009 248.674 290.769 258.307 233.58 300.654C193.836 330.078 176.326 337.064 130.475 341.793C31.073 352.033 0.368073 398.958 61.2672 480.542C96.6175 527.902 119.111 608.686 173.589 636.811Z" fill="#E17304"/>
</svg>
