<svg width="39" height="39" viewBox="0 0 39 39" fill="none" xmlns="http://www.w3.org/2000/svg">
<path d="M19.5022 0C8.73224 0 0 8.72878 0 19.5C0 30.2712 8.73224 39 19.5022 39C30.2678 39 39 30.2712 39 19.5C39 8.72878 30.2673 0 19.5022 0ZM24.8964 11.8921C24.8964 12.0528 24.764 12.1853 24.6033 12.1853H22.2725C21.7002 12.1853 21.237 12.6485 21.237 13.2209V15.6606H24.5512C24.7213 15.6606 24.8587 15.8069 24.8443 15.9775L24.5512 19.4201C24.5418 19.5714 24.4144 19.685 24.2626 19.685H21.237V31.104C21.237 31.2647 21.1046 31.3971 20.9439 31.3971H16.7737C16.613 31.3971 16.4806 31.2647 16.4806 31.104V19.685H14.3957C14.235 19.685 14.1026 19.5575 14.1026 19.3919V15.9542C14.1026 15.7935 14.235 15.6611 14.3957 15.6611H16.4806V12.3465C16.4806 10.0342 18.3527 8.16187 20.6647 8.16187H24.6028C24.7635 8.16187 24.8959 8.28933 24.8959 8.45499L24.8964 11.8921Z" fill="#12416D"/>
</svg>
