<svg width="353" height="510" viewBox="0 0 353 510" fill="none" xmlns="http://www.w3.org/2000/svg">
<mask id="mask0_931_3270" style="mask-type:alpha" maskUnits="userSpaceOnUse" x="0" y="0" width="352" height="510">
<path d="M0 10C0 4.47715 4.47715 0 10 0H342C347.523 0 352 4.47715 352 10V500C352 505.523 347.523 510 342 510H9.99999C4.47714 510 0 505.523 0 500V10Z" fill="#4B2601"/>
</mask>
<g mask="url(#mask0_931_3270)">
<path d="M72.9945 343.092C73.4793 345.154 71.4016 347.032 70.1088 348.799C64.9145 355.882 69.8895 364.253 66.8306 369.641C64.8915 373.053 59.3856 375.901 43.8836 373.618C46.5846 379.988 45.0725 383.486 44.6801 384.309C41.7944 390.262 30.6902 392.68 18.0509 386.776C17.9816 382.05 17.693 375.25 16.6542 367.162C12.3372 333.309 0.332706 317.979 7.31609 307.337C8.94362 304.858 13.8724 303.09 23.6607 299.641C28.1739 298.058 64.4644 285.415 66.8537 291.196C67.8926 293.725 62.0635 298.708 63.3563 300.378C64.3143 301.605 67.5809 298.991 71.0553 300.623C72.4866 301.298 74.6105 302.992 74.7952 305.091C75.1992 309.976 64.5913 311.412 63.6448 318.077C63.0562 322.238 67.0038 322.987 67.5578 330.474C67.8349 334.304 66.9576 336.255 68.4928 338.612C70.1203 341.116 72.5443 341.067 73.0176 343.08L72.9945 343.092Z" fill="#FFF2E6"/>
<path d="M121.025 406.745L98.3203 375.078C107.058 367.419 115.808 359.76 124.546 352.088C126.161 344.368 127.777 336.66 129.405 328.939C130.455 316.739 130.363 306.833 130.109 300.144C129.486 284.224 129.174 276.27 126.843 265.396C126.069 261.775 120.494 244.48 124.28 239.325C124.557 238.945 125.296 238.073 125.988 236.6C127.928 232.476 126.669 229.727 128.008 228.904C129.532 227.971 131.379 231.396 135.95 231.629C138.431 231.764 138.708 230.844 139.92 231.384C142.91 232.709 143.522 239.288 144.122 245.781C144.48 249.586 144.399 251.648 145.761 252.483C147.654 253.649 149.847 250.924 151.602 251.734C154.557 253.097 152.687 262.818 152.294 270.956C151.833 280.358 153.61 281.929 156.277 299.641C157.419 307.238 158.828 318.469 159.543 332.572C160.709 338.022 164.103 356.986 153.703 373.36C151.209 377.3 148.37 380.368 145.657 382.737C137.45 390.74 129.243 398.73 121.036 406.733L121.025 406.745Z" fill="#FFF2E6"/>
<path d="M-26.0653 510.573C-23.4451 514.096 -19.232 519.423 -13.4606 525.302C-6.2233 532.679 -4.27257 533.072 -1.95247 536.975C1.81048 543.321 -0.186425 547.629 -1.08676 566.765C-2.07944 588.024 -0.371112 599.132 -5.53073 601.587C-6.51187 602.053 -8.58957 602.605 -9.94007 601.587C-12.2255 599.856 -10.1478 595.339 -12.8027 590.822C-14.2224 588.404 -15.3536 588.772 -16.4156 587.066C-19.9246 581.408 -9.91699 573.319 -10.6557 564.433C-10.9905 560.431 -13.3106 558.504 -36.1422 540.989C-47.4656 532.299 -52.6253 528.371 -56.3998 520.577C-58.9623 515.274 -59.8626 510.303 -60.232 506.94C-60.9938 504.277 -61.6979 500.815 -61.7671 496.753C-61.9287 487.768 -58.9392 480.894 -57.1039 477.384C-50.4091 463.17 -43.7142 448.957 -37.031 434.731C-25.9961 441.064 -14.9496 447.41 -3.91474 453.744C-11.2906 472.683 -18.678 491.622 -26.0538 510.561L-26.0653 510.573Z" fill="#E9F3FB"/>
<path d="M207.204 342.65C209.663 359.49 214.384 364.792 218.47 366.339C221.413 367.456 226.365 367.505 227.854 370.979C228.605 372.709 228.143 374.514 227.854 375.557C223.676 390.851 221.69 398.755 216.588 400.891C206.512 405.101 189.925 396.129 183.542 375.557C182.283 366.425 181.406 356.004 181.395 344.503C181.383 326.006 183.622 309.964 186.335 297.112C184.8 258.67 186.912 247.77 189.798 247.193C190.34 247.083 191.991 247.132 193.226 245.868C195.465 243.585 194.346 239.068 195.096 238.92C195.904 238.749 196.954 244.198 198.524 244.211C200.221 244.223 200.44 237.828 202.887 237.263C205.115 236.748 208.416 241.302 210.044 245.868C211.371 249.599 210.99 251.968 210.044 264.267C209.201 275.191 209.501 273.386 209.097 277.314C208.543 282.69 207.643 289.417 206.108 297.112C206.477 312.296 206.846 327.479 207.216 342.662L207.204 342.65Z" fill="#FFF2E6"/>
<path d="M369.059 517.373C366.439 520.896 362.226 526.223 356.454 532.102C349.217 539.479 347.266 539.872 344.946 543.775C344.577 544.401 344.381 545.751 343.399 547.212C341.126 550.612 337.651 551.594 336.508 552.06C327.47 555.779 323.534 585.213 330.506 589.03C332.688 590.233 334.269 587.999 336.508 589.386C341.61 592.553 337.293 606.656 341.737 608.742C342.707 609.196 342.949 608.558 348.513 608.386C350.371 608.325 351.906 608.362 352.922 608.386C352.922 608.386 355.265 607.797 357.228 605.981C361.752 601.795 361.291 589.668 358.047 580.291C356.616 576.142 354.815 573.049 353.638 571.245C363.426 559.793 372.533 552.44 379.124 547.801C386.639 542.511 392.433 539.675 399.89 532.298C406.411 525.855 410.705 519.411 413.314 514.967C413.072 509.407 412.402 501.453 410.44 492.113C407.993 480.477 405.442 468.338 396.75 456.775C393.691 452.7 388.439 446.784 380.002 441.555L346.885 460.568C349.436 462.188 370.952 476.316 371.852 500.41C372.106 507.136 370.687 512.942 369.024 517.385L369.059 517.373Z" fill="#E9F3FB"/>
<path d="M323.009 389.77C308.822 401.848 294.475 402.756 289.708 396.791C285.725 391.808 288.703 382.369 289.604 379.779C281.916 378.822 278.58 375.483 277.161 373.605C275.833 371.862 272.59 366.731 277.253 342.171C278.961 333.161 280.9 325.932 282.274 321.243C274.852 321.501 272.659 320.274 272.243 318.923C271.493 316.542 276.26 313.83 275.395 310.724C274.621 307.95 270.281 308.097 269.485 304.771C269.265 303.838 269.161 302.034 270.108 301.126C272.774 298.585 279.804 307.177 288.473 305.765C291.831 305.213 292.928 303.581 295.721 302.083C306.779 296.179 328.434 301.138 334.736 316.321C338.557 325.527 335.336 335.162 333.801 338.992C334.286 340.747 334.828 343.324 334.898 346.479C334.978 350.628 335.071 355.39 332.047 358.348C329.484 360.852 325.929 360.84 324.278 360.705C323.863 370.389 323.447 380.073 323.032 389.758L323.009 389.77Z" fill="#FFF2E6"/>
<path d="M207.126 241.203L208.788 239.828C211.108 239.828 211.904 249.55 211.823 251.501C211.696 254.508 209.815 262.315 210.034 264.254C210.138 265.162 211.696 265.825 212.124 266.697C214.167 270.993 209.134 286.225 208.453 291.491C207.922 292.337 207.287 291.576 206.964 290.607C205.094 284.985 209.757 275.608 209.78 269.532L205.452 275.89C202.174 272.416 207.333 267.961 207.76 264.892C208.314 260.928 208.857 255.466 209.122 251.464C209.249 249.464 209.03 247.426 209.122 245.438C204.286 249.758 207.83 258.939 204.805 264.561C202.578 262.094 203.79 258.89 203.801 256.423C203.813 253.6 203.686 250.74 203.801 247.917C203.928 244.799 205.371 241.755 203.801 238.355C203.651 238.159 202.947 238.736 202.797 239.055C202.197 240.356 201.32 246.763 201.135 248.629C200.627 253.784 201.169 259.393 200.142 264.561C197.834 261.21 198.872 256.595 198.434 252.925C198.099 250.176 197.026 246.064 196.483 242.958C196.298 241.915 196.483 240.773 195.156 240.479C192.928 249.329 194.682 258.547 193.147 267.396C192.212 267.482 191.947 264.806 191.889 264.144C191.52 259.884 191.981 254.705 190.654 250.581C190.354 249.66 189.823 248.924 189.165 249.697C188.715 253.33 188.761 257.049 188.507 260.682C186.545 287.968 186.037 315.548 182.47 342.809C183.324 354.249 180.185 375.348 187.157 384.64C188.796 386.837 200.904 397.577 203.155 398.804C203.847 399.185 204.39 399.258 205.152 399.16C204.909 394.974 208.003 390.543 210.219 387.193C214.086 381.338 219.153 375.581 224.474 371.175C224.74 369.751 224.186 370.316 223.632 369.972C220.85 368.217 218.01 368.106 215.529 365.124C212.377 361.343 209.249 351.217 208.014 346.197C204.713 332.732 204.286 313.584 205.129 299.616C205.221 298.008 205.717 296.609 205.833 295.05C207.333 295.652 207.691 298.168 207.83 299.641C209.827 320.016 205.717 339.421 215.332 358.95C217.837 364.043 220.423 364.841 225.144 366.928C239.422 373.237 254.07 376.944 269.249 379.521C273.947 380.319 278.033 382.369 283.089 381.448L279.083 378.282C275.493 374.906 274.743 369.653 274.431 364.817C273.543 351.352 277.352 336.525 279.764 323.379C272.931 324.533 269.295 316.027 273.681 310.982C271.719 308.061 267.737 306.367 267.714 302.488C267.679 297.063 272.538 299.039 275.92 300.193C279.545 301.433 282.269 303.397 285.432 305.508C291.584 299.788 301.095 297.91 309.094 298.916C310.964 302.341 306.982 300.929 305.77 301.028C299.687 301.531 292.658 302.746 287.763 306.735C296.213 311.068 302.238 318.175 309.406 324.079C312.592 326.693 316.378 329.025 319.668 331.578C321.099 332.695 323.846 335.837 325.047 336.476C327.124 337.592 330.806 335.923 333.023 338.255C336.358 331.406 336.924 323.956 333.311 317.058C329.133 309.079 323.5 305.643 316.378 301.064C319.933 300.009 325.312 303.998 328.025 306.391C335.793 313.228 340.133 324.201 337.397 334.745C336.947 336.463 335.273 339.09 335.158 340.133C335.031 341.348 336.843 343.509 337.051 345.669C337.813 353.819 333.554 358.385 327.043 361.429C326.547 367.075 323.892 381.559 326.997 385.941C327.505 386.665 340.318 391.71 342.603 392.888C368.078 405.911 381.687 422.223 395.111 448.269C403.664 464.864 420.932 498.569 414.226 517.017C406.539 538.141 376.481 553.987 359.236 565.525C358.567 565.967 357.828 566.163 357.089 566.408C355.681 568.458 362.353 582.537 362.872 585.986C364.119 594.246 361.383 600.028 358.682 607.417C356.974 609.589 354.054 608.337 353.153 608.975C352.865 609.184 352.807 610.24 352.403 610.608C351.318 611.602 349.852 611.897 349.667 613.455C349.506 614.855 350.314 616.279 350.383 617.69C350.637 622.87 350.152 628.123 350.36 633.315C350.752 643.306 352.53 653.334 351.376 663.387C349.875 666.922 328.936 675.367 324.55 676.655C312.615 680.166 296.467 680.055 284.162 678.202C280.053 677.588 276.959 675.244 277.098 670.482C274.812 671.071 272.746 672.335 270.449 672.973C255.894 676.999 241.408 675.256 228.006 668.493C225.479 667.217 222.212 666.05 221.162 663.019C218.772 656.121 223.078 643.957 224.301 636.654C228.687 610.473 231.862 582.954 237.448 557.141C240.842 541.443 246.59 526.603 246.486 510.082C244.963 488.762 248.506 464.447 246.463 443.458C245.782 436.51 239.768 429.539 234.794 425.415C221.035 414.036 204.898 405.322 191.162 393.907C183.163 387.254 180.416 378.22 179.827 367.713C178.303 340.612 182.978 314.345 185.183 287.636C185.783 280.444 184.929 272.281 185.171 264.929C185.275 261.676 186.175 246.432 187.33 244.959C188.969 242.86 191.289 246.137 191.843 245.499C191.635 241.719 191.889 237.361 194.913 234.906C197.383 235.618 198.157 238.319 198.838 240.54C200.315 238.957 199.934 234.992 202.289 234.256C205.729 233.188 207.114 238.429 207.172 241.252L207.126 241.203ZM299.71 319.108C299.052 317.721 297.759 316.604 296.594 315.695C292.854 312.749 286.332 308.564 282.177 306.244C278.368 304.121 274.143 301.801 269.734 302.12C268.418 303.482 274.478 308.822 275.528 309.116C276.694 309.448 283.112 305.655 284.381 308.846C285.397 311.399 282.142 310.442 280.353 310.921C277.975 311.559 273.762 313.584 273.774 316.628C273.623 320.004 278.864 320.654 281.311 320.495C283.758 320.335 287.925 317.438 289.322 317.635C289.899 317.708 289.864 319.083 290.361 319.476C291.665 320.507 297.829 319.746 299.722 319.108H299.71ZM297.044 323.379C293.812 323.256 290.372 324.25 288.052 321.256L287.094 324.459L281.115 324.84C279.845 333.026 278.137 341.312 277.352 349.584C277.283 350.296 276.809 350.738 277.698 351.376L287.048 351.696C284.681 349.327 284.855 347.228 285.051 343.914C287.394 343.349 286.02 346.614 286.505 348.382C286.574 348.639 288.848 351.953 289.033 352.064C289.368 352.272 295.612 353.058 296.697 353.119C303.081 353.463 310.895 352.248 314.646 346C317.244 341.692 312.107 335.555 314.035 330.424C310.941 329.356 305.066 321.857 302.573 321.403C301.661 321.231 299.791 321.906 300.357 323.367C303.323 323.674 304.639 326.03 304.35 329.037L297.021 326.57C295.497 325.601 297.217 323.551 297.021 323.379H297.044ZM322.357 337.531L315.708 331.873C314.577 336.917 318.675 341.447 316.713 346.049C315.05 349.94 310.953 353.021 307.201 354.359C299.399 357.121 295.532 354.555 288.063 353.831C284.404 353.475 280.618 354.482 277.075 353.119C275.805 356.495 276.89 358.937 277.075 361.969C277.375 366.916 276.382 371.69 280.838 374.967C287.59 379.939 299.699 379.3 306.728 375.102C309.071 373.703 315.316 367.824 316.205 365.344C317.925 360.545 319.402 339.839 321.249 337.728C321.468 337.482 322.011 337.494 322.346 337.531H322.357ZM321.053 358.041C326.189 359.6 332.803 357.133 334.2 351.18C336.532 341.213 330.841 338.489 322.38 341.115L321.064 358.029L321.053 358.041ZM289.714 385.695C289.645 390.752 288.71 394.275 293.696 396.681C299.064 399.27 305.193 397.368 310.537 395.441C313.042 394.545 321.63 390.052 322.703 387.806C323.546 386.309 322.392 384.762 322.346 383.216C322.138 377.14 322.265 374.906 321.076 368.99C320.591 366.56 320.164 364.117 320.349 361.613L318.259 366.817C313.758 374.869 300.876 382.762 292.692 385.744C291.492 386.186 290.868 385.953 289.703 385.683L289.714 385.695ZM227.764 373.666C226.529 373.384 226.183 374.378 225.432 375.078C221.473 378.797 210.888 390.666 209.423 395.6C209.134 396.558 209.007 397.466 209.111 398.46L211.431 397.748C214.444 391.587 218.23 385.707 222.443 380.417C223.182 379.497 228.572 374.55 227.764 373.679V373.666ZM394.961 462.912C388.428 465.134 382.645 469.909 376.308 472.462C375.396 472.83 365.7 474.904 367.662 477.077C377.405 474.082 387.227 470.044 394.973 462.912H394.961ZM397.408 534.925C401.148 531.169 410.244 520.932 412.137 516.231C414.884 509.395 412.368 499.207 410.475 492.1C407.924 482.551 402.602 473.75 399.624 464.324C389.559 472.412 378.363 479.335 365.666 481.336C373.445 494.248 377.532 508.02 368.632 521.669C359.987 534.913 349.298 541.074 338.702 551.471C335.17 554.944 334.038 556.884 332.342 561.707C329.121 570.889 328.509 581.727 331.037 591.116C333.15 591.988 332.78 587.741 333.034 587.569L334.362 588.293L333.069 581.641L336.358 580.499L335.816 582.782L341.76 608.754C344.912 609.344 345.396 608.914 345.685 605.661C346.366 598.15 343.007 589.545 343.019 581.923C344.427 581.641 344.577 582.61 345.05 583.654C346.031 585.802 347.105 591.264 347.509 593.792C348.259 598.542 348.513 603.317 348.351 608.128C350.764 608.337 350.06 605.931 350.533 604.434C350.856 603.391 351.71 602.912 351.733 601.427C351.78 597.622 350.002 591.939 349.679 587.937C349.54 586.182 349.76 584.378 349.679 582.623C350.637 582.463 350.556 583.813 350.833 584.574C353.176 590.846 354.273 598.579 354.342 605.293C356.201 604.864 356.905 603.415 356.893 601.402C356.824 594.971 353.465 587.14 353.684 580.499C356.697 583.101 357.92 590.184 358.359 594.308C358.497 595.597 358.07 595.474 359.675 595.376C362.572 585.09 354.896 576.314 353.984 566.298C356.524 564.494 358.255 562.039 360.795 560.075C372.418 551.053 386.604 545.8 397.431 534.937L397.408 534.925ZM353.257 534.041C355.058 532.249 357.228 531.267 358.982 529.119C361.487 526.075 368.332 515.36 369.336 511.8C374.138 494.678 362.768 483.251 354.989 469.994C354.077 469.786 354.273 470.731 354.007 471.406C350.752 479.838 343.088 499.907 341.83 508.045C340.352 517.594 340.237 529.291 339.683 539.049C339.533 541.627 338.182 544.536 339.348 547.187L350.383 537.662C351.283 536.398 352.195 535.109 353.269 534.041H353.257ZM323.027 513.2L303.288 523.719C291.515 528.542 279.683 533.55 267.587 537.466C262.081 539.246 255.444 540.056 250.238 542.4C249.303 542.817 248.022 543.124 247.756 544.352C262.369 542.695 276.29 537.797 289.899 532.139C300.16 527.88 309.071 523.449 318.317 517.029C319.887 515.937 321.953 514.808 323.027 513.2ZM327.02 574.117C325.739 573.994 324.608 574.743 323.361 574.829C305.597 576.13 291.619 574.804 274.374 570.226C262.923 567.182 252.004 562.468 241.084 557.816L235.094 591.816L240.415 581.543C240.992 580.867 241.454 579.996 242.089 581.187C243.185 583.236 239.295 589.582 238.303 592.037C236.386 596.763 233.316 603.292 231.942 607.944C229.634 615.751 229.057 627.46 227.579 635.893C226.102 644.325 223.897 652.745 222.443 661.227C224.59 660.601 224.394 662.466 225.502 663.264C235.682 670.592 251.461 671.979 263.339 670.371C267.76 669.77 272.411 668.947 276.117 666.198L269.745 609.528C270.992 609.835 271.084 611.295 271.407 612.363C274.882 623.754 274.951 636.936 276.475 648.768C277.525 656.906 279.418 664.97 279.799 673.219C283.065 673.771 286.782 674.422 290.06 674.704C303.462 675.858 314.97 675.502 327.875 670.985C335.031 668.481 342.072 665.019 348.686 661.251L347.682 637.157C338.505 640.594 333.242 632.701 329.156 625.337C324.85 617.567 322.034 608.448 320.372 599.622C321.307 599.635 321.688 601.635 322.011 602.47C325.924 612.596 328.186 620.869 335.343 629.375C339.544 634.383 341.495 634.162 347.682 632.898V612.351C345.119 611.074 342.488 613.689 340.318 611.32C337.397 608.128 337.34 597.855 335.354 593.939C334.385 592.049 334.442 594.332 333.923 594.651C331.337 596.235 329.756 594.357 328.694 591.816C328.348 590.994 327.032 586.317 327.032 585.789V574.104L327.02 574.117Z" fill="#311B1B"/>
<path d="M34.6729 319.501C35.3308 318.494 35.9888 318.175 37.0161 317.745C45.4423 314.309 64.8688 313.891 70.9749 308.527C72.3716 307.3 73.0873 305.594 73.8145 303.9C73.1219 302.513 71.529 301.887 70.1439 301.592C68.8972 301.322 66.0693 300.942 64.8111 300.881C63.5529 300.819 63.3105 302.476 61.9716 302.132C61.2559 297.407 67.212 295.909 66.6349 291.515C65.8269 290.668 51.8601 295.063 49.4823 295.578C38.1935 298.082 26.4083 299.408 15.3388 303.188C13.9536 303.654 11.4835 304.268 10.4215 305.041C8.51697 306.428 7.59355 310.332 5.01951 311.338C4.50008 304.354 10.0406 300.966 15.3618 298.966C25.8773 295.013 38.5051 293.541 49.4592 291.307C53.0259 290.582 65.2497 286.102 67.6506 288.655C69.3936 290.509 68.6087 295.504 67.9738 297.873C82.587 298.573 76.1576 314.48 65.3074 314.873C64.7188 315.29 67.489 323.22 67.7891 324.631C68.4586 327.786 68.5625 333.677 69.6591 336.095C70.8826 338.796 76.931 339.962 77.0464 342.834C77.1734 345.988 72.6486 348.995 70.0746 349.671C69.9361 359.944 70.1439 372.672 58.6934 375.459C54.8959 376.379 50.5558 376.551 46.6658 376.49L47.3353 384.284C57.8854 383.437 68.1239 383.437 78.3392 380.061C91.2787 375.778 118.935 360.41 124.268 346.737C127.523 338.391 128.966 319.599 129.301 310.295C130.062 289.711 125.988 275.853 123.368 256.337C122.837 252.397 121.682 244.554 122.006 240.933C122.098 239.816 122.652 237.386 123.252 236.527L125.272 236.245L126.611 227.039C128.677 226.707 130.236 228.549 130.605 230.574L132.313 227.763L136.584 229.862C137.877 225.284 139.735 228.671 141.132 231.065C144.502 236.87 145.714 244.456 146.592 251.109C147.711 251.195 147.18 249.587 147.873 248.58C148.277 247.991 148.889 247.574 149.593 247.537C151.786 247.537 153.079 252.373 153.263 254.288C153.529 257.062 153.61 268.035 152.744 270.048C152.328 271.03 151.74 271.901 150.585 271.643C150.92 265.028 152.063 258.375 150.585 251.808C148.485 253.416 148.554 257.037 147.584 259.602C147.319 260.29 147.515 261.223 146.603 261.014C143.348 251.808 144.283 240.97 138.939 232.685L139.931 256.767L138.108 251.992C137.658 248.052 137.034 244.075 136.596 240.135C136.261 237.116 137.415 233.237 133.606 231.973C132.29 239.473 134.887 246.788 134.599 254.3C134.564 255.159 135.107 256.939 133.941 256.767C133.71 255.355 132.971 254.263 132.66 252.802C131.401 246.776 131.632 239.706 130.466 233.888C130.224 232.685 129.358 230.979 127.939 231.261C127.765 241.731 128.897 252.127 130.593 262.425C129.277 262.683 128.966 261.799 128.55 260.707C127.685 258.399 127.096 254.607 126.692 252.066C126.253 249.341 126.38 244.493 125.815 242.382C125.665 241.829 125.191 241.179 124.614 241.179C125.157 246.187 125.353 251.293 126.034 256.313C130.27 287.526 135.014 309.878 128.412 341.901C126.865 349.376 123.829 353.917 118.97 359.49C113.487 365.762 105.719 369.678 99.3125 374.71C107.612 383.854 114.283 394.533 120.286 405.518C125.607 400.842 131.494 396.767 136.769 392.041C142.748 386.69 154.66 373.114 156.922 365.161C160.316 353.255 158.573 330.13 157.188 317.414C155.803 304.698 151.636 289.846 151.07 277.154C151.024 276.074 150.008 275.559 151.59 274.491C152.744 274.552 154.683 285.292 155.053 287.084C159.323 307.766 164.252 343.398 160.281 363.761C158.458 373.114 145.738 388.359 138.916 394.876C132.787 400.731 125.699 405.788 119.189 410.722C111.652 416.43 101.436 421.794 98.3082 431.736C96.8654 436.326 97.5695 439.579 97.304 444.121C96.0689 464.852 94.4991 485.681 93.2987 506.449C92.4791 520.528 95.8265 528.972 98.4352 542.081C101.205 556.025 103.399 570.103 106.284 584.022C110.878 606.177 118.3 630.738 120.551 653.151C120.794 655.593 120.54 658.072 120.62 660.515L119.305 659.103C117.735 664.651 111.432 668.555 106.619 670.764C96.5076 675.416 81.779 676.901 71.3443 672.9C69.1627 672.065 66.7503 670.003 64.6957 669.34C60.9558 668.137 60.1132 669.046 56.3618 666.161C55.196 665.265 53.9493 662.602 52.6681 663.669C51.9063 664.308 52.1256 666.21 50.6712 667.217C49.1014 668.309 44.3227 669.291 42.2911 669.635C31.6025 671.451 14.9809 669.966 4.58088 666.677C1.49896 665.707 -2.19473 664.701 -1.92925 660.503C3.03415 662.184 8.07835 663.633 13.238 664.553C22.8069 666.272 33.2647 666.971 42.8567 665.265C46.3196 664.651 50.0594 664.271 51.9178 660.76L40.7098 604.545C41.8525 604.741 41.8871 605.944 42.2219 606.828C48.2241 622.968 49.413 641.944 54.1687 658.576C55.2768 661.657 57.9662 663.62 60.4826 665.314C73.9183 674.385 97.8927 672.581 111.121 663.485C114.941 660.859 116.938 658.87 117.308 653.764C117.504 650.966 116.823 648.216 116.442 645.479C113.579 625.227 107.935 605.342 103.641 585.421C101.044 573.38 99.5779 558.983 95.9881 547.519C95.7573 546.794 95.688 546.193 94.9839 545.739C84.1914 551.311 71.7368 555.779 60.0439 558.86C40.9522 563.88 17.9128 565.807 0.0791988 555.656C0.702509 558.651 -0.647997 561.83 -0.647997 564.506C-0.647997 590.724 -0.821139 616.917 -2.58718 643.122C-2.7257 645.123 -2.87575 661.227 -4.91882 661.178C-6.13081 659.963 -6.68487 657.606 -6.61561 655.9C-6.30396 647.725 -4.81494 639.268 -4.58408 631.094L-1.89462 554.625C-1.74456 549.838 -1.94079 541.271 -4.0762 537.036C-4.94191 535.318 -11.1173 528.629 -12.9064 526.591C-17.0965 521.829 -25.6035 515.016 -26.5384 508.511C-27.3349 502.951 -24.0221 497.084 -22.5793 491.904C-31.9866 489.351 -42.075 484.257 -49.8433 478.034C-50.6282 477.396 -53.8717 473.333 -54.5528 474.192C-60.3011 489.437 -63.7985 504.829 -56.238 520.245C-49.4393 534.103 -29.8166 544.376 -18.2623 554.245C-14.7186 557.277 -8.97034 561.978 -8.08154 566.789C-6.41938 575.762 -8.70485 582.807 -9.27045 591.411C-9.36279 592.896 -9.67445 599.475 -8.26623 599.549L-5.26511 597.794L-5.5883 602.409C-11.4982 606.619 -10.9095 598.395 -12.2831 595.327C-12.9295 593.878 -15.9191 591.976 -16.9002 590.319C-20.744 583.838 -13.2181 572.288 -9.93993 566.617C-19.7628 556.258 -31.7904 548.807 -42.7907 539.933C-54.0795 530.813 -60.4742 522.725 -62.5634 507.124C-65.3337 486.467 -54.345 463.759 -45.8149 445.594C-35.5649 423.77 -14.8341 398.117 7.53583 390.409C12.1299 388.825 15.0271 390.36 16.3776 384.235C17.2318 380.393 15.7889 374.023 15.1656 369.911C12.4761 352.064 7.4204 334.77 4.70785 316.935L6.75092 317.353C10.6062 334.131 14.8886 350.837 17.3587 367.935L23.1648 364.191L25.2194 360.386C19.7481 350.235 19.725 333.481 34.6614 336.058V319.415L34.6729 319.501ZM63.299 316.334C59.9631 316.653 38.8283 320.114 37.6394 321.943L37.0392 339.716C36.2081 341.091 34.0265 339.618 32.4336 339.716C22.957 340.268 23.0609 351.647 27.7242 358.066C28.209 360.03 34.973 363.369 34.6729 364.829C34.0958 367.714 28.3244 364.093 27.3548 363.062C26.6507 367.419 21.9759 370.156 18.0398 370.168C18.0744 376.244 20.4984 381.755 18.6977 387.856L44.6805 384.308L40.0172 369.444C42.3719 368.843 44.265 372.353 45.8117 372.844C48.9398 373.826 58.0701 372.562 61.152 371.015C65.6075 368.769 67.0273 361.429 67.3274 356.691C63.853 358.091 60.3671 355.943 57.3198 354.2C56.3964 353.672 55.6577 354.31 56.004 352.445C59.7554 353.144 63.5529 354.445 67.2697 353.095C65.9538 346.86 70.6864 347.289 72.6602 342.895L66.6349 337.089C66.681 329.97 64.4994 323.232 63.3105 316.334H63.299ZM-1.96387 534.483C-2.74878 514.391 -6.26933 494.568 -10.2862 474.99C-14.5109 482.723 -19.3011 491.634 -21.956 500.116C-23.7797 505.909 -25.0725 508.217 -21.2749 513.593L-1.96387 534.483ZM-11.9484 591.141L-9.95147 571.318L-14.28 580.512C-15.8614 584.685 -17.1773 589.533 -11.9484 591.141Z" fill="#311B1B"/>
<path d="M298.367 341.079L296.335 340.76L295.793 339.913C294.996 330.449 299.59 333.42 298.355 341.079H298.367Z" fill="#311B1B"/>
<path d="M284.379 338.943C281.447 339.655 282.036 332.585 283.387 332.585C285.176 334.144 284.16 336.856 284.379 338.943Z" fill="#311B1B"/>
<path d="M285.761 362.276L285.727 360.202C290.078 362.055 294.361 360.644 298.597 359.367C301.725 358.422 301.886 360.497 299.082 362.006C295.215 364.081 289.824 363.283 285.773 362.276H285.761Z" fill="#311B1B"/>
<path d="M329.669 343.914C330.061 346.123 329.126 347.068 327.81 348.504L330.338 352.408C327.129 352.027 326.864 349.241 323.009 350.996C321.785 349.695 328.457 342.613 329.669 343.914Z" fill="#311B1B"/>
<path d="M34.0067 355.268C32.2638 354.973 33.014 352.346 32.5869 351.831C32.1368 351.291 27.1272 351.328 29.0318 348.173L32.0214 348.885V345.35C32.9448 345.178 33.0371 346.614 33.1756 347.302C33.672 349.806 34.0298 352.69 34.0183 355.255L34.0067 355.268Z" fill="#311B1B"/>
<path d="M59.331 337.568C59.2502 335.236 57.5072 332.389 59.6657 330.499C61.4664 330.584 62.6899 337.961 59.331 337.568Z" fill="#311B1B"/>
</g>
</svg>
