<svg width="1035" height="720" viewBox="0 0 1035 720" fill="none" xmlns="http://www.w3.org/2000/svg">
<g clip-path="url(#clip0_940_1906)">
<path d="M731.314 52.3794C731.314 191.212 731.314 330.033 731.314 468.865H888.201V530.457H731.314V599.752H632.878V419.285C617.178 418.881 601.466 418.476 585.766 418.084C585.581 412.425 585.385 406.766 585.2 401.118H434.438V632.101H455.999V661.355H434.438C434.438 680.862 434.461 700.369 434.473 719.875H197.607V639.805H349.881V522.765H334.423V478.093H350.25V253.612H429.593V322.757C488.484 321.925 547.374 321.094 606.265 320.262V249.212H615.055V186.962H348.692V76.0783H591.338V52.391H731.325L731.314 52.3794Z" stroke="#0D0C0C" stroke-width="3" stroke-miterlimit="10"/>
<path d="M77.5893 495.729C57.9898 499.933 38.3904 504.137 18.791 508.341L43.9853 621.858C59.8471 618.116 75.7205 614.385 91.5823 610.644C94.8469 624.653 98.1115 638.673 101.376 652.683C113.512 649.876 125.636 647.081 137.772 644.275C134.669 630.959 131.566 617.631 128.462 604.315C157.694 597.547 186.938 590.779 216.169 584.011C212.432 566.26 208.706 548.509 204.968 530.758C166.242 538.704 127.505 546.638 88.779 554.584C85.0414 534.962 81.3153 515.34 77.5777 495.718L77.5893 495.729Z" stroke="#0D0C0C" stroke-width="3" stroke-miterlimit="10"/>
<path opacity="0.3" d="M700.525 701.132C790.586 658.62 880.635 616.107 970.695 573.595C965.746 552.875 957.763 522.536 945.501 486.699C921.368 416.168 895.897 368.863 871.314 321.326C869.445 317.711 836.937 251.176 771.921 118.107C745.285 63.5833 707.147 -16.2561 662.734 -115.937H342.164C325.426 -114.436 295.386 -109.146 266.57 -87.9072C256.13 -80.2154 219.192 -52.994 215.327 -11.186C213.309 10.6765 221.118 27.804 224.579 35.4149C246.209 83.1822 281.509 166.844 328.171 276.469C330.421 288.55 332.993 305.908 333.766 326.927C334.908 357.949 335.739 380.215 326.764 401.2C311.063 437.95 272.476 454.165 255.368 460.066C223.829 464.64 191.621 468.867 158.779 472.678C72.675 482.668 -10.0601 488.939 -89 492.3" stroke="#0D0C0C" stroke-width="3" stroke-miterlimit="10"/>
<path opacity="0.3" d="M868.51 -250L746.726 -163.578L687.928 -127.14C738.997 -11.9023 784.148 78.3197 816.714 140.697C833.106 172.087 846.28 196.387 871.313 245.644C938.221 377.305 957.647 427.174 970.706 465.679C984.676 506.886 993.489 541.384 998.704 563.778L1019.7 552.563" stroke="#0D0C0C" stroke-width="3" stroke-miterlimit="10"/>
<path opacity="0.3" d="M-81.9862 458.669C-7.94909 454.5 69.6411 447.72 150.381 437.649C187.653 432.995 224.06 427.832 259.567 422.231C267.769 419.321 280.413 413.419 290.368 401.212C306.115 381.89 305.445 358.653 304.361 333.938C303.496 314.223 299.481 281.932 281.958 244.247L188.172 41.351C185.265 34.2483 181.435 22.4335 181.17 7.40804C180.904 -7.3287 184.181 -19.0627 186.765 -26.2231C173.025 -31.836 152.157 -42.0455 131.243 -60.3278C118.98 -71.0339 101.595 -88.5425 70.587 -145.353C56.6863 -170.807 39.0018 -206.044 21.5942 -249.988" stroke="#0D0C0C" stroke-width="3" stroke-miterlimit="10"/>
<path opacity="0.3" d="M1035.09 582.002C933.826 627.783 832.576 673.564 731.314 719.345" stroke="#0D0C0C" stroke-width="3" stroke-miterlimit="10"/>
</g>
<defs>
<clipPath id="clip0_940_1906">
<rect width="1035" height="720" fill="white"/>
</clipPath>
</defs>
</svg>
