<svg width="39" height="39" viewBox="0 0 39 39" fill="none" xmlns="http://www.w3.org/2000/svg">
<path d="M19.5 0C8.72878 0 0 8.72878 0 19.5C0 30.2712 8.72878 39 19.5 39C30.2712 39 39 30.2712 39 19.5C39 8.72878 30.2712 0 19.5 0ZM31.0846 12.6059C31.0846 12.6674 30.8009 12.8092 30.6829 12.9654C30.1532 13.6797 29.3021 14.313 28.5928 14.8472C28.4887 14.9231 28.3185 15.0034 28.3185 15.1497C28.3185 18.885 27.3633 22.6113 24.6448 25.3159C21.1789 28.758 15.9775 29.6944 11.3629 28.4227C10.4692 28.1722 9.61807 27.827 8.79523 27.3921C8.52592 27.2457 8.25611 27.094 7.99621 26.9194C7.93025 26.8673 7.88263 26.8152 7.93966 26.7825C7.99174 26.7542 8.03887 26.7493 8.24222 26.7825C9.53276 26.91 10.8615 26.7165 12.0866 26.2905C12.7581 26.0539 14.1999 25.5812 14.6161 24.9479C14.6255 24.9335 14.6349 24.9335 14.6443 24.9196C14.4742 24.8819 14.3086 24.8819 14.1384 24.8487C12.8856 24.494 11.2117 23.8651 10.4359 21.7518C10.3883 21.6243 10.4359 21.5628 10.5634 21.5861C11.5941 21.6664 11.968 21.6099 12.3271 21.534C12.1238 21.4963 11.916 21.4299 11.7314 21.3495C10.1522 20.7489 8.9986 19.2074 8.78582 17.5434C8.76201 17.3494 8.74812 17.1843 8.75755 17.0092C8.76697 16.8862 8.82351 16.8435 8.93263 16.9144C9.74107 17.335 10.6537 17.4347 10.7296 17.4203C10.5262 17.2597 10.3372 17.0895 10.1572 16.9144C8.78581 15.6189 8.25164 12.9759 9.34875 11.3347C9.43852 11.2022 9.50003 11.2022 9.60865 11.3252C12.1099 14.1766 15.1974 15.5098 18.9187 16.0628C19.0179 16.0817 19.0273 16.0629 19.0134 15.9542C18.9187 15.3015 18.9048 14.6587 19.0655 14.011C19.2262 13.3394 19.5476 12.7011 19.9826 12.1669C20.4032 11.6466 20.9329 11.2166 21.5241 10.9091C22.1153 10.5971 22.7725 10.4126 23.4346 10.3655C24.1201 10.3229 24.8154 10.4315 25.4488 10.6919C25.9358 10.8903 26.3659 11.1551 26.7632 11.4959C26.8485 11.5668 26.9238 11.6521 26.9997 11.7369C27.0518 11.789 27.1133 11.8078 27.1887 11.789C28.144 11.5524 29.0422 11.2166 29.9077 10.7534C29.9454 10.7296 29.988 10.7201 30.0351 10.739C30.0778 10.7722 30.0778 10.8193 30.0589 10.862C29.9027 11.3629 29.6666 11.8311 29.3353 12.2428C29.1181 12.5121 28.6499 13.1792 28.2809 13.2407C29.0561 13.1083 29.9925 12.9144 30.7112 12.588C30.8009 12.5454 31.0846 12.5315 31.0846 12.588C31.0846 12.587 31.0846 12.5964 31.0846 12.6059Z" fill="#12416D"/>
</svg>
