<svg width="1043" height="601" viewBox="0 0 1043 601" fill="none" xmlns="http://www.w3.org/2000/svg">
<mask id="mask0_663_6137" style="mask-type:alpha" maskUnits="userSpaceOnUse" x="0" y="0" width="1043" height="601">
<rect width="1043" height="601" fill="#12416D"/>
<rect x="0.5" y="0.5" width="1042" height="600" stroke="#0B2741" stroke-opacity="0.5"/>
</mask>
<g mask="url(#mask0_663_6137)">
<path d="M-152.957 562C-136.873 562 -136.873 580 -120.789 580C-104.704 580 -104.704 562 -88.6201 562C-72.5358 562 -72.5358 580 -56.4893 580C-40.4046 580 -40.4046 562 -24.3585 562C-8.2739 562 -8.27389 580 7.77217 580C23.8568 580 23.8568 562 39.9402 562C56.0248 562 56.0248 580 72.1094 580C88.1928 580 88.1928 562 104.277 562C120.362 562 120.362 580 136.447 580C152.53 580 152.53 562 168.615 562" stroke="#0B2741" stroke-opacity="0.5" stroke-width="3" stroke-miterlimit="10" stroke-linecap="round"/>
<path d="M-152.957 82C-136.873 82 -136.873 100 -120.789 100C-104.704 100 -104.704 82 -88.6201 82C-72.5358 82 -72.5358 100 -56.4893 100C-40.4046 100 -40.4046 82 -24.3585 82C-8.2739 82 -8.27389 100 7.77217 100C23.8568 100 23.8568 82 39.9402 82C56.0248 82 56.0248 100 72.1094 100C88.1928 100 88.1928 82 104.277 82C120.362 82 120.362 100 136.447 100C152.53 100 152.53 82 168.615 82" stroke="#0B2741" stroke-opacity="0.5" stroke-width="3" stroke-miterlimit="10" stroke-linecap="round"/>
<path d="M490.188 562C506.272 562 506.272 580 522.356 580C538.44 580 538.44 562 554.524 562C570.609 562 570.609 580 586.655 580C602.74 580 602.74 562 618.786 562C634.871 562 634.871 580 650.917 580C667.001 580 667.001 562 683.085 562C699.169 562 699.169 580 715.254 580C731.337 580 731.337 562 747.422 562C763.506 562 763.506 580 779.591 580C795.674 580 795.675 562 811.759 562" stroke="#0B2741" stroke-opacity="0.5" stroke-width="3" stroke-miterlimit="10" stroke-linecap="round"/>
<path d="M490.188 82C506.272 82 506.272 100 522.356 100C538.44 100 538.44 82 554.524 82C570.609 82 570.609 100 586.655 100C602.74 100 602.74 82 618.786 82C634.871 82 634.871 100 650.917 100C667.001 100 667.001 82 683.085 82C699.169 82 699.169 100 715.254 100C731.337 100 731.337 82 747.422 82C763.506 82 763.506 100 779.591 100C795.674 100 795.675 82 811.759 82" stroke="#0B2741" stroke-opacity="0.5" stroke-width="3" stroke-miterlimit="10" stroke-linecap="round"/>
<path d="M-152.957 322C-136.873 322 -136.873 340 -120.789 340C-104.704 340 -104.704 322 -88.6201 322C-72.5358 322 -72.5358 340 -56.4893 340C-40.4046 340 -40.4046 322 -24.3585 322C-8.2739 322 -8.27389 340 7.77217 340C23.8568 340 23.8568 322 39.9402 322C56.0248 322 56.0248 340 72.1094 340C88.1928 340 88.1928 322 104.277 322C120.362 322 120.362 340 136.447 340C152.53 340 152.53 322 168.615 322" stroke="#0B2741" stroke-opacity="0.5" stroke-width="3" stroke-miterlimit="10" stroke-linecap="round"/>
<path d="M490.188 322C506.272 322 506.272 340 522.356 340C538.44 340 538.44 322 554.524 322C570.609 322 570.609 340 586.655 340C602.74 340 602.74 322 618.786 322C634.871 322 634.871 340 650.917 340C667.001 340 667.001 322 683.085 322C699.169 322 699.169 340 715.254 340C731.337 340 731.337 322 747.422 322C763.506 322 763.506 340 779.591 340C795.674 340 795.675 322 811.759 322" stroke="#0B2741" stroke-opacity="0.5" stroke-width="3" stroke-miterlimit="10" stroke-linecap="round"/>
<path d="M168.617 562C184.701 562 184.701 580 200.786 580C216.87 580 216.87 562 232.954 562C249.038 562 249.038 580 265.085 580C281.17 580 281.17 562 297.216 562C313.3 562 313.3 580 329.346 580C345.431 580 345.431 562 361.514 562C377.599 562 377.599 580 393.684 580C409.767 580 409.767 562 425.852 562C441.936 562 441.936 580 458.021 580C474.104 580 474.104 562 490.189 562" stroke="#0B2741" stroke-opacity="0.5" stroke-width="3" stroke-miterlimit="10" stroke-linecap="round"/>
<path d="M168.617 82C184.701 82 184.701 100 200.786 100C216.87 100 216.87 82 232.954 82C249.038 82 249.038 100 265.085 100C281.17 100 281.17 82 297.216 82C313.3 82 313.3 100 329.346 100C345.431 100 345.431 82 361.514 82C377.599 82 377.599 100 393.684 100C409.767 100 409.767 82 425.852 82C441.936 82 441.936 100 458.021 100C474.104 100 474.104 82 490.189 82" stroke="#0B2741" stroke-opacity="0.5" stroke-width="3" stroke-miterlimit="10" stroke-linecap="round"/>
<path d="M811.758 562C827.842 562 827.842 580 843.926 580C860.011 580 860.011 562 876.095 562C892.179 562 892.179 580 908.226 580C924.31 580 924.31 562 940.356 562C956.441 562 956.441 580 972.487 580C988.572 580 988.572 562 1004.66 562C1020.74 562 1020.74 580 1036.82 580C1052.91 580 1052.91 562 1068.99 562C1085.08 562 1085.08 580 1101.16 580C1117.24 580 1117.24 562 1133.33 562" stroke="#0B2741" stroke-opacity="0.5" stroke-width="3" stroke-miterlimit="10" stroke-linecap="round"/>
<path d="M811.758 82C827.842 82 827.842 100 843.926 100C860.011 100 860.011 82 876.095 82C892.179 82 892.179 100 908.226 100C924.31 100 924.31 82 940.356 82C956.441 82 956.441 100 972.487 100C988.572 100 988.572 82 1004.66 82C1020.74 82 1020.74 100 1036.82 100C1052.91 100 1052.91 82 1068.99 82C1085.08 82 1085.08 100 1101.16 100C1117.24 100 1117.24 82 1133.33 82" stroke="#0B2741" stroke-opacity="0.5" stroke-width="3" stroke-miterlimit="10" stroke-linecap="round"/>
<path d="M168.617 322C184.701 322 184.701 340 200.786 340C216.87 340 216.87 322 232.954 322C249.038 322 249.038 340 265.085 340C281.17 340 281.17 322 297.216 322C313.3 322 313.3 340 329.346 340C345.431 340 345.431 322 361.514 322C377.599 322 377.599 340 393.684 340C409.767 340 409.767 322 425.852 322C441.936 322 441.936 340 458.021 340C474.104 340 474.104 322 490.189 322" stroke="#0B2741" stroke-opacity="0.5" stroke-width="3" stroke-miterlimit="10" stroke-linecap="round"/>
<path d="M811.758 322C827.842 322 827.842 340 843.926 340C860.011 340 860.011 322 876.095 322C892.179 322 892.179 340 908.226 340C924.31 340 924.31 322 940.356 322C956.441 322 956.441 340 972.487 340C988.572 340 988.572 322 1004.66 322C1020.74 322 1020.74 340 1036.82 340C1052.91 340 1052.91 322 1068.99 322C1085.08 322 1085.08 340 1101.16 340C1117.24 340 1117.24 322 1133.33 322" stroke="#0B2741" stroke-opacity="0.5" stroke-width="3" stroke-miterlimit="10" stroke-linecap="round"/>
<path d="M-152.957 202C-136.873 202 -136.873 220 -120.789 220C-104.704 220 -104.704 202 -88.6201 202C-72.5358 202 -72.5358 220 -56.4893 220C-40.4046 220 -40.4046 202 -24.3585 202C-8.2739 202 -8.27389 220 7.77217 220C23.8568 220 23.8568 202 39.9402 202C56.0248 202 56.0248 220 72.1094 220C88.1928 220 88.1928 202 104.277 202C120.362 202 120.362 220 136.447 220C152.53 220 152.53 202 168.615 202" stroke="#0B2741" stroke-opacity="0.5" stroke-width="3" stroke-miterlimit="10" stroke-linecap="round"/>
<path d="M490.188 202C506.272 202 506.272 220 522.356 220C538.44 220 538.44 202 554.524 202C570.609 202 570.609 220 586.655 220C602.74 220 602.74 202 618.786 202C634.871 202 634.871 220 650.917 220C667.001 220 667.001 202 683.085 202C699.169 202 699.169 220 715.254 220C731.337 220 731.337 202 747.422 202C763.506 202 763.506 220 779.591 220C795.674 220 795.675 202 811.759 202" stroke="#0B2741" stroke-opacity="0.5" stroke-width="3" stroke-miterlimit="10" stroke-linecap="round"/>
<path d="M-152.957 442C-136.873 442 -136.873 460 -120.789 460C-104.704 460 -104.704 442 -88.6201 442C-72.5358 442 -72.5358 460 -56.4893 460C-40.4046 460 -40.4046 442 -24.3585 442C-8.2739 442 -8.27389 460 7.77217 460C23.8568 460 23.8568 442 39.9402 442C56.0248 442 56.0248 460 72.1094 460C88.1928 460 88.1928 442 104.277 442C120.362 442 120.362 460 136.447 460C152.53 460 152.53 442 168.615 442" stroke="#0B2741" stroke-opacity="0.5" stroke-width="3" stroke-miterlimit="10" stroke-linecap="round"/>
<path d="M490.188 442C506.272 442 506.272 460 522.356 460C538.44 460 538.44 442 554.524 442C570.609 442 570.609 460 586.655 460C602.74 460 602.74 442 618.786 442C634.871 442 634.871 460 650.917 460C667.001 460 667.001 442 683.085 442C699.169 442 699.169 460 715.254 460C731.337 460 731.337 442 747.422 442C763.506 442 763.506 460 779.591 460C795.674 460 795.675 442 811.759 442" stroke="#0B2741" stroke-opacity="0.5" stroke-width="3" stroke-miterlimit="10" stroke-linecap="round"/>
<path d="M168.617 202C184.701 202 184.701 220 200.786 220C216.87 220 216.87 202 232.954 202C249.038 202 249.038 220 265.085 220C281.17 220 281.17 202 297.216 202C313.3 202 313.3 220 329.346 220C345.431 220 345.431 202 361.514 202C377.599 202 377.599 220 393.684 220C409.767 220 409.767 202 425.852 202C441.936 202 441.936 220 458.021 220C474.104 220 474.104 202 490.189 202" stroke="#0B2741" stroke-opacity="0.5" stroke-width="3" stroke-miterlimit="10" stroke-linecap="round"/>
<path d="M811.758 202C827.842 202 827.842 220 843.926 220C860.011 220 860.011 202 876.095 202C892.179 202 892.179 220 908.226 220C924.31 220 924.31 202 940.356 202C956.441 202 956.441 220 972.487 220C988.572 220 988.572 202 1004.66 202C1020.74 202 1020.74 220 1036.82 220C1052.91 220 1052.91 202 1068.99 202C1085.08 202 1085.08 220 1101.16 220C1117.24 220 1117.24 202 1133.33 202" stroke="#0B2741" stroke-opacity="0.5" stroke-width="3" stroke-miterlimit="10" stroke-linecap="round"/>
<path d="M168.617 442C184.701 442 184.701 460 200.786 460C216.87 460 216.87 442 232.954 442C249.038 442 249.038 460 265.085 460C281.17 460 281.17 442 297.216 442C313.3 442 313.3 460 329.346 460C345.431 460 345.431 442 361.514 442C377.599 442 377.599 460 393.684 460C409.767 460 409.767 442 425.852 442C441.936 442 441.936 460 458.021 460C474.104 460 474.104 442 490.189 442" stroke="#0B2741" stroke-opacity="0.5" stroke-width="3" stroke-miterlimit="10" stroke-linecap="round"/>
<path d="M811.758 442C827.842 442 827.842 460 843.926 460C860.011 460 860.011 442 876.095 442C892.179 442 892.179 460 908.226 460C924.31 460 924.31 442 940.356 442C956.441 442 956.441 460 972.487 460C988.572 460 988.572 442 1004.66 442C1020.74 442 1020.74 460 1036.82 460C1052.91 460 1052.91 442 1068.99 442C1085.08 442 1085.08 460 1101.16 460C1117.24 460 1117.24 442 1133.33 442" stroke="#0B2741" stroke-opacity="0.5" stroke-width="3" stroke-miterlimit="10" stroke-linecap="round"/>
<path d="M-152.957 142C-136.873 142 -136.873 160 -120.789 160C-104.704 160 -104.704 142 -88.6201 142C-72.5358 142 -72.5358 160 -56.4893 160C-40.4046 160 -40.4046 142 -24.3585 142C-8.2739 142 -8.27389 160 7.77217 160C23.8568 160 23.8568 142 39.9402 142C56.0248 142 56.0248 160 72.1094 160C88.1928 160 88.1928 142 104.277 142C120.362 142 120.362 160 136.447 160C152.53 160 152.53 142 168.615 142" stroke="#0B2741" stroke-opacity="0.5" stroke-width="3" stroke-miterlimit="10" stroke-linecap="round"/>
<path d="M490.188 142C506.272 142 506.272 160 522.356 160C538.44 160 538.44 142 554.524 142C570.609 142 570.609 160 586.655 160C602.74 160 602.74 142 618.786 142C634.871 142 634.871 160 650.917 160C667.001 160 667.001 142 683.085 142C699.169 142 699.169 160 715.254 160C731.337 160 731.337 142 747.422 142C763.506 142 763.506 160 779.591 160C795.674 160 795.675 142 811.759 142" stroke="#0B2741" stroke-opacity="0.5" stroke-width="3" stroke-miterlimit="10" stroke-linecap="round"/>
<path d="M-152.957 382C-136.873 382 -136.873 400 -120.789 400C-104.704 400 -104.704 382 -88.6201 382C-72.5358 382 -72.5358 400 -56.4893 400C-40.4046 400 -40.4046 382 -24.3585 382C-8.2739 382 -8.27389 400 7.77217 400C23.8568 400 23.8568 382 39.9402 382C56.0248 382 56.0248 400 72.1094 400C88.1928 400 88.1928 382 104.277 382C120.362 382 120.362 400 136.447 400C152.53 400 152.53 382 168.615 382" stroke="#0B2741" stroke-opacity="0.5" stroke-width="3" stroke-miterlimit="10" stroke-linecap="round"/>
<path d="M490.188 382C506.272 382 506.272 400 522.356 400C538.44 400 538.44 382 554.524 382C570.609 382 570.609 400 586.655 400C602.74 400 602.74 382 618.786 382C634.871 382 634.871 400 650.917 400C667.001 400 667.001 382 683.085 382C699.169 382 699.169 400 715.254 400C731.337 400 731.337 382 747.422 382C763.506 382 763.506 400 779.591 400C795.674 400 795.675 382 811.759 382" stroke="#0B2741" stroke-opacity="0.5" stroke-width="3" stroke-miterlimit="10" stroke-linecap="round"/>
<path d="M168.617 142C184.701 142 184.701 160 200.786 160C216.87 160 216.87 142 232.954 142C249.038 142 249.038 160 265.085 160C281.17 160 281.17 142 297.216 142C313.3 142 313.3 160 329.346 160C345.431 160 345.431 142 361.514 142C377.599 142 377.599 160 393.684 160C409.767 160 409.767 142 425.852 142C441.936 142 441.936 160 458.021 160C474.104 160 474.104 142 490.189 142" stroke="#0B2741" stroke-opacity="0.5" stroke-width="3" stroke-miterlimit="10" stroke-linecap="round"/>
<path d="M811.758 142C827.842 142 827.842 160 843.926 160C860.011 160 860.011 142 876.095 142C892.179 142 892.179 160 908.226 160C924.31 160 924.31 142 940.356 142C956.441 142 956.441 160 972.487 160C988.572 160 988.572 142 1004.66 142C1020.74 142 1020.74 160 1036.82 160C1052.91 160 1052.91 142 1068.99 142C1085.08 142 1085.08 160 1101.16 160C1117.24 160 1117.24 142 1133.33 142" stroke="#0B2741" stroke-opacity="0.5" stroke-width="3" stroke-miterlimit="10" stroke-linecap="round"/>
<path d="M168.617 382C184.701 382 184.701 400 200.786 400C216.87 400 216.87 382 232.954 382C249.038 382 249.038 400 265.085 400C281.17 400 281.17 382 297.216 382C313.3 382 313.3 400 329.346 400C345.431 400 345.431 382 361.514 382C377.599 382 377.599 400 393.684 400C409.767 400 409.767 382 425.852 382C441.936 382 441.936 400 458.021 400C474.104 400 474.104 382 490.189 382" stroke="#0B2741" stroke-opacity="0.5" stroke-width="3" stroke-miterlimit="10" stroke-linecap="round"/>
<path d="M811.758 382C827.842 382 827.842 400 843.926 400C860.011 400 860.011 382 876.095 382C892.179 382 892.179 400 908.226 400C924.31 400 924.31 382 940.356 382C956.441 382 956.441 400 972.487 400C988.572 400 988.572 382 1004.66 382C1020.74 382 1020.74 400 1036.82 400C1052.91 400 1052.91 382 1068.99 382C1085.08 382 1085.08 400 1101.16 400C1117.24 400 1117.24 382 1133.33 382" stroke="#0B2741" stroke-opacity="0.5" stroke-width="3" stroke-miterlimit="10" stroke-linecap="round"/>
<path d="M-152.957 262C-136.873 262 -136.873 280 -120.789 280C-104.704 280 -104.704 262 -88.6201 262C-72.5358 262 -72.5358 280 -56.4893 280C-40.4046 280 -40.4046 262 -24.3585 262C-8.2739 262 -8.27389 280 7.77217 280C23.8568 280 23.8568 262 39.9402 262C56.0248 262 56.0248 280 72.1094 280C88.1928 280 88.1928 262 104.277 262C120.362 262 120.362 280 136.447 280C152.53 280 152.53 262 168.615 262" stroke="#0B2741" stroke-opacity="0.5" stroke-width="3" stroke-miterlimit="10" stroke-linecap="round"/>
<path d="M490.188 262C506.272 262 506.272 280 522.356 280C538.44 280 538.44 262 554.524 262C570.609 262 570.609 280 586.655 280C602.74 280 602.74 262 618.786 262C634.871 262 634.871 280 650.917 280C667.001 280 667.001 262 683.085 262C699.169 262 699.169 280 715.254 280C731.337 280 731.337 262 747.422 262C763.506 262 763.506 280 779.591 280C795.674 280 795.675 262 811.759 262" stroke="#0B2741" stroke-opacity="0.5" stroke-width="3" stroke-miterlimit="10" stroke-linecap="round"/>
<path d="M-152.957 502C-136.873 502 -136.873 520 -120.789 520C-104.704 520 -104.704 502 -88.6201 502C-72.5358 502 -72.5358 520 -56.4893 520C-40.4046 520 -40.4046 502 -24.3585 502C-8.2739 502 -8.27389 520 7.77217 520C23.8568 520 23.8568 502 39.9402 502C56.0248 502 56.0248 520 72.1094 520C88.1928 520 88.1928 502 104.277 502C120.362 502 120.362 520 136.447 520C152.53 520 152.53 502 168.615 502" stroke="#0B2741" stroke-opacity="0.5" stroke-width="3" stroke-miterlimit="10" stroke-linecap="round"/>
<path d="M-152.957 22C-136.873 22 -136.873 40 -120.789 40C-104.704 40 -104.704 22 -88.6201 22C-72.5358 22 -72.5358 40 -56.4893 40C-40.4046 40 -40.4046 22 -24.3585 22C-8.2739 22 -8.27389 40 7.77217 40C23.8568 40 23.8568 22 39.9402 22C56.0248 22 56.0248 40 72.1094 40C88.1928 40 88.1928 22 104.277 22C120.362 22 120.362 40 136.447 40C152.53 40 152.53 22 168.615 22" stroke="#0B2741" stroke-opacity="0.5" stroke-width="3" stroke-miterlimit="10" stroke-linecap="round"/>
<path d="M490.188 502C506.272 502 506.272 520 522.356 520C538.44 520 538.44 502 554.524 502C570.609 502 570.609 520 586.655 520C602.74 520 602.74 502 618.786 502C634.871 502 634.871 520 650.917 520C667.001 520 667.001 502 683.085 502C699.169 502 699.169 520 715.254 520C731.337 520 731.337 502 747.422 502C763.506 502 763.506 520 779.591 520C795.674 520 795.675 502 811.759 502" stroke="#0B2741" stroke-opacity="0.5" stroke-width="3" stroke-miterlimit="10" stroke-linecap="round"/>
<path d="M490.188 22C506.272 22 506.272 40 522.356 40C538.44 40 538.44 22 554.524 22C570.609 22 570.609 40 586.655 40C602.74 40 602.74 22 618.786 22C634.871 22 634.871 40 650.917 40C667.001 40 667.001 22 683.085 22C699.169 22 699.169 40 715.254 40C731.337 40 731.337 22 747.422 22C763.506 22 763.506 40 779.591 40C795.674 40 795.675 22 811.759 22" stroke="#0B2741" stroke-opacity="0.5" stroke-width="3" stroke-miterlimit="10" stroke-linecap="round"/>
<path d="M168.617 262C184.701 262 184.701 280 200.786 280C216.87 280 216.87 262 232.954 262C249.038 262 249.038 280 265.085 280C281.17 280 281.17 262 297.216 262C313.3 262 313.3 280 329.346 280C345.431 280 345.431 262 361.514 262C377.599 262 377.599 280 393.684 280C409.767 280 409.767 262 425.852 262C441.936 262 441.936 280 458.021 280C474.104 280 474.104 262 490.189 262" stroke="#0B2741" stroke-opacity="0.5" stroke-width="3" stroke-miterlimit="10" stroke-linecap="round"/>
<path d="M811.758 262C827.842 262 827.842 280 843.926 280C860.011 280 860.011 262 876.095 262C892.179 262 892.179 280 908.226 280C924.31 280 924.31 262 940.356 262C956.441 262 956.441 280 972.487 280C988.572 280 988.572 262 1004.66 262C1020.74 262 1020.74 280 1036.82 280C1052.91 280 1052.91 262 1068.99 262C1085.08 262 1085.08 280 1101.16 280C1117.24 280 1117.24 262 1133.33 262" stroke="#0B2741" stroke-opacity="0.5" stroke-width="3" stroke-miterlimit="10" stroke-linecap="round"/>
<path d="M168.617 502C184.701 502 184.701 520 200.786 520C216.87 520 216.87 502 232.954 502C249.038 502 249.038 520 265.085 520C281.17 520 281.17 502 297.216 502C313.3 502 313.3 520 329.346 520C345.431 520 345.431 502 361.514 502C377.599 502 377.599 520 393.684 520C409.767 520 409.767 502 425.852 502C441.936 502 441.936 520 458.021 520C474.104 520 474.104 502 490.189 502" stroke="#0B2741" stroke-opacity="0.5" stroke-width="3" stroke-miterlimit="10" stroke-linecap="round"/>
<path d="M168.617 22C184.701 22 184.701 40 200.786 40C216.87 40 216.87 22 232.954 22C249.038 22 249.038 40 265.085 40C281.17 40 281.17 22 297.216 22C313.3 22 313.3 40 329.346 40C345.431 40 345.431 22 361.514 22C377.599 22 377.599 40 393.684 40C409.767 40 409.767 22 425.852 22C441.936 22 441.936 40 458.021 40C474.104 40 474.104 22 490.189 22" stroke="#0B2741" stroke-opacity="0.5" stroke-width="3" stroke-miterlimit="10" stroke-linecap="round"/>
<path d="M811.758 502C827.842 502 827.842 520 843.926 520C860.011 520 860.011 502 876.095 502C892.179 502 892.179 520 908.226 520C924.31 520 924.31 502 940.356 502C956.441 502 956.441 520 972.487 520C988.572 520 988.572 502 1004.66 502C1020.74 502 1020.74 520 1036.82 520C1052.91 520 1052.91 502 1068.99 502C1085.08 502 1085.08 520 1101.16 520C1117.24 520 1117.24 502 1133.33 502" stroke="#0B2741" stroke-opacity="0.5" stroke-width="3" stroke-miterlimit="10" stroke-linecap="round"/>
<path d="M811.758 22C827.842 22 827.842 40 843.926 40C860.011 40 860.011 22 876.095 22C892.179 22 892.179 40 908.226 40C924.31 40 924.31 22 940.356 22C956.441 22 956.441 40 972.487 40C988.572 40 988.572 22 1004.66 22C1020.74 22 1020.74 40 1036.82 40C1052.91 40 1052.91 22 1068.99 22C1085.08 22 1085.08 40 1101.16 40C1117.24 40 1117.24 22 1133.33 22" stroke="#0B2741" stroke-opacity="0.5" stroke-width="3" stroke-miterlimit="10" stroke-linecap="round"/>
<path d="M-152.957 592C-136.873 592 -136.873 610 -120.789 610C-104.704 610 -104.704 592 -88.6201 592C-72.5358 592 -72.5358 610 -56.4893 610C-40.4046 610 -40.4046 592 -24.3585 592C-8.2739 592 -8.27389 610 7.77217 610C23.8568 610 23.8568 592 39.9402 592C56.0248 592 56.0248 610 72.1094 610C88.1928 610 88.1928 592 104.277 592C120.362 592 120.362 610 136.447 610C152.53 610 152.53 592 168.615 592" stroke="#0B2741" stroke-opacity="0.5" stroke-width="3" stroke-miterlimit="10" stroke-linecap="round"/>
<path d="M-152.957 112C-136.873 112 -136.873 130 -120.789 130C-104.704 130 -104.704 112 -88.6201 112C-72.5358 112 -72.5358 130 -56.4893 130C-40.4046 130 -40.4046 112 -24.3585 112C-8.2739 112 -8.27389 130 7.77217 130C23.8568 130 23.8568 112 39.9402 112C56.0248 112 56.0248 130 72.1094 130C88.1928 130 88.1928 112 104.277 112C120.362 112 120.362 130 136.447 130C152.53 130 152.53 112 168.615 112" stroke="#0B2741" stroke-opacity="0.5" stroke-width="3" stroke-miterlimit="10" stroke-linecap="round"/>
<path d="M490.188 592C506.272 592 506.272 610 522.356 610C538.44 610 538.44 592 554.524 592C570.609 592 570.609 610 586.655 610C602.74 610 602.74 592 618.786 592C634.871 592 634.871 610 650.917 610C667.001 610 667.001 592 683.085 592C699.169 592 699.169 610 715.254 610C731.337 610 731.337 592 747.422 592C763.506 592 763.506 610 779.591 610C795.674 610 795.675 592 811.759 592" stroke="#0B2741" stroke-opacity="0.5" stroke-width="3" stroke-miterlimit="10" stroke-linecap="round"/>
<path d="M490.188 112C506.272 112 506.272 130 522.356 130C538.44 130 538.44 112 554.524 112C570.609 112 570.609 130 586.655 130C602.74 130 602.74 112 618.786 112C634.871 112 634.871 130 650.917 130C667.001 130 667.001 112 683.085 112C699.169 112 699.169 130 715.254 130C731.337 130 731.337 112 747.422 112C763.506 112 763.506 130 779.591 130C795.674 130 795.675 112 811.759 112" stroke="#0B2741" stroke-opacity="0.5" stroke-width="3" stroke-miterlimit="10" stroke-linecap="round"/>
<path d="M-152.957 352C-136.873 352 -136.873 370 -120.789 370C-104.704 370 -104.704 352 -88.6201 352C-72.5358 352 -72.5358 370 -56.4893 370C-40.4046 370 -40.4046 352 -24.3585 352C-8.2739 352 -8.27389 370 7.77217 370C23.8568 370 23.8568 352 39.9402 352C56.0248 352 56.0248 370 72.1094 370C88.1928 370 88.1928 352 104.277 352C120.362 352 120.362 370 136.447 370C152.53 370 152.53 352 168.615 352" stroke="#0B2741" stroke-opacity="0.5" stroke-width="3" stroke-miterlimit="10" stroke-linecap="round"/>
<path d="M490.188 352C506.272 352 506.272 370 522.356 370C538.44 370 538.44 352 554.524 352C570.609 352 570.609 370 586.655 370C602.74 370 602.74 352 618.786 352C634.871 352 634.871 370 650.917 370C667.001 370 667.001 352 683.085 352C699.169 352 699.169 370 715.254 370C731.337 370 731.337 352 747.422 352C763.506 352 763.506 370 779.591 370C795.674 370 795.675 352 811.759 352" stroke="#0B2741" stroke-opacity="0.5" stroke-width="3" stroke-miterlimit="10" stroke-linecap="round"/>
<path d="M168.617 592C184.701 592 184.701 610 200.786 610C216.87 610 216.87 592 232.954 592C249.038 592 249.038 610 265.085 610C281.17 610 281.17 592 297.216 592C313.3 592 313.3 610 329.346 610C345.431 610 345.431 592 361.514 592C377.599 592 377.599 610 393.684 610C409.767 610 409.767 592 425.852 592C441.936 592 441.936 610 458.021 610C474.104 610 474.104 592 490.189 592" stroke="#0B2741" stroke-opacity="0.5" stroke-width="3" stroke-miterlimit="10" stroke-linecap="round"/>
<path d="M168.617 112C184.701 112 184.701 130 200.786 130C216.87 130 216.87 112 232.954 112C249.038 112 249.038 130 265.085 130C281.17 130 281.17 112 297.216 112C313.3 112 313.3 130 329.346 130C345.431 130 345.431 112 361.514 112C377.599 112 377.599 130 393.684 130C409.767 130 409.767 112 425.852 112C441.936 112 441.936 130 458.021 130C474.104 130 474.104 112 490.189 112" stroke="#0B2741" stroke-opacity="0.5" stroke-width="3" stroke-miterlimit="10" stroke-linecap="round"/>
<path d="M811.758 592C827.842 592 827.842 610 843.926 610C860.011 610 860.011 592 876.095 592C892.179 592 892.179 610 908.226 610C924.31 610 924.31 592 940.356 592C956.441 592 956.441 610 972.487 610C988.572 610 988.572 592 1004.66 592C1020.74 592 1020.74 610 1036.82 610C1052.91 610 1052.91 592 1068.99 592C1085.08 592 1085.08 610 1101.16 610C1117.24 610 1117.24 592 1133.33 592" stroke="#0B2741" stroke-opacity="0.5" stroke-width="3" stroke-miterlimit="10" stroke-linecap="round"/>
<path d="M811.758 112C827.842 112 827.842 130 843.926 130C860.011 130 860.011 112 876.095 112C892.179 112 892.179 130 908.226 130C924.31 130 924.31 112 940.356 112C956.441 112 956.441 130 972.487 130C988.572 130 988.572 112 1004.66 112C1020.74 112 1020.74 130 1036.82 130C1052.91 130 1052.91 112 1068.99 112C1085.08 112 1085.08 130 1101.16 130C1117.24 130 1117.24 112 1133.33 112" stroke="#0B2741" stroke-opacity="0.5" stroke-width="3" stroke-miterlimit="10" stroke-linecap="round"/>
<path d="M168.617 352C184.701 352 184.701 370 200.786 370C216.87 370 216.87 352 232.954 352C249.038 352 249.038 370 265.085 370C281.17 370 281.17 352 297.216 352C313.3 352 313.3 370 329.346 370C345.431 370 345.431 352 361.514 352C377.599 352 377.599 370 393.684 370C409.767 370 409.767 352 425.852 352C441.936 352 441.936 370 458.021 370C474.104 370 474.104 352 490.189 352" stroke="#0B2741" stroke-opacity="0.5" stroke-width="3" stroke-miterlimit="10" stroke-linecap="round"/>
<path d="M811.758 352C827.842 352 827.842 370 843.926 370C860.011 370 860.011 352 876.095 352C892.179 352 892.179 370 908.226 370C924.31 370 924.31 352 940.356 352C956.441 352 956.441 370 972.487 370C988.572 370 988.572 352 1004.66 352C1020.74 352 1020.74 370 1036.82 370C1052.91 370 1052.91 352 1068.99 352C1085.08 352 1085.08 370 1101.16 370C1117.24 370 1117.24 352 1133.33 352" stroke="#0B2741" stroke-opacity="0.5" stroke-width="3" stroke-miterlimit="10" stroke-linecap="round"/>
<path d="M-152.957 232C-136.873 232 -136.873 250 -120.789 250C-104.704 250 -104.704 232 -88.6201 232C-72.5358 232 -72.5358 250 -56.4893 250C-40.4046 250 -40.4046 232 -24.3585 232C-8.2739 232 -8.27389 250 7.77217 250C23.8568 250 23.8568 232 39.9402 232C56.0248 232 56.0248 250 72.1094 250C88.1928 250 88.1928 232 104.277 232C120.362 232 120.362 250 136.447 250C152.53 250 152.53 232 168.615 232" stroke="#0B2741" stroke-opacity="0.5" stroke-width="3" stroke-miterlimit="10" stroke-linecap="round"/>
<path d="M490.188 232C506.272 232 506.272 250 522.356 250C538.44 250 538.44 232 554.524 232C570.609 232 570.609 250 586.655 250C602.74 250 602.74 232 618.786 232C634.871 232 634.871 250 650.917 250C667.001 250 667.001 232 683.085 232C699.169 232 699.169 250 715.254 250C731.337 250 731.337 232 747.422 232C763.506 232 763.506 250 779.591 250C795.674 250 795.675 232 811.759 232" stroke="#0B2741" stroke-opacity="0.5" stroke-width="3" stroke-miterlimit="10" stroke-linecap="round"/>
<path d="M-152.957 472C-136.873 472 -136.873 490 -120.789 490C-104.704 490 -104.704 472 -88.6201 472C-72.5358 472 -72.5358 490 -56.4893 490C-40.4046 490 -40.4046 472 -24.3585 472C-8.2739 472 -8.27389 490 7.77217 490C23.8568 490 23.8568 472 39.9402 472C56.0248 472 56.0248 490 72.1094 490C88.1928 490 88.1928 472 104.277 472C120.362 472 120.362 490 136.447 490C152.53 490 152.53 472 168.615 472" stroke="#0B2741" stroke-opacity="0.5" stroke-width="3" stroke-miterlimit="10" stroke-linecap="round"/>
<path d="M-152.957 -8C-136.873 -8 -136.873 10 -120.789 10C-104.704 10 -104.704 -8 -88.6201 -8C-72.5358 -8 -72.5358 10 -56.4893 10C-40.4046 10 -40.4046 -8 -24.3585 -8C-8.2739 -8 -8.27389 10 7.77217 10C23.8568 10 23.8568 -8 39.9402 -8C56.0248 -8 56.0248 10 72.1094 10C88.1928 10 88.1928 -8 104.277 -8C120.362 -8 120.362 10 136.447 10C152.53 10 152.53 -8 168.615 -8" stroke="#0B2741" stroke-opacity="0.5" stroke-width="3" stroke-miterlimit="10" stroke-linecap="round"/>
<path d="M490.188 472C506.272 472 506.272 490 522.356 490C538.44 490 538.44 472 554.524 472C570.609 472 570.609 490 586.655 490C602.74 490 602.74 472 618.786 472C634.871 472 634.871 490 650.917 490C667.001 490 667.001 472 683.085 472C699.169 472 699.169 490 715.254 490C731.337 490 731.337 472 747.422 472C763.506 472 763.506 490 779.591 490C795.674 490 795.675 472 811.759 472" stroke="#0B2741" stroke-opacity="0.5" stroke-width="3" stroke-miterlimit="10" stroke-linecap="round"/>
<path d="M490.188 -8C506.272 -8 506.272 10 522.356 10C538.44 10 538.44 -8 554.524 -8C570.609 -8 570.609 10 586.655 10C602.74 10 602.74 -8 618.786 -8C634.871 -8 634.871 10 650.917 10C667.001 10 667.001 -8 683.085 -8C699.169 -8 699.169 10 715.254 10C731.337 10 731.337 -8 747.422 -8C763.506 -8 763.506 10 779.591 10C795.674 10 795.675 -8 811.759 -8" stroke="#0B2741" stroke-opacity="0.5" stroke-width="3" stroke-miterlimit="10" stroke-linecap="round"/>
<path d="M168.617 232C184.701 232 184.701 250 200.786 250C216.87 250 216.87 232 232.954 232C249.038 232 249.038 250 265.085 250C281.17 250 281.17 232 297.216 232C313.3 232 313.3 250 329.346 250C345.431 250 345.431 232 361.514 232C377.599 232 377.599 250 393.684 250C409.767 250 409.767 232 425.852 232C441.936 232 441.936 250 458.021 250C474.104 250 474.104 232 490.189 232" stroke="#0B2741" stroke-opacity="0.5" stroke-width="3" stroke-miterlimit="10" stroke-linecap="round"/>
<path d="M811.758 232C827.842 232 827.842 250 843.926 250C860.011 250 860.011 232 876.095 232C892.179 232 892.179 250 908.226 250C924.31 250 924.31 232 940.356 232C956.441 232 956.441 250 972.487 250C988.572 250 988.572 232 1004.66 232C1020.74 232 1020.74 250 1036.82 250C1052.91 250 1052.91 232 1068.99 232C1085.08 232 1085.08 250 1101.16 250C1117.24 250 1117.24 232 1133.33 232" stroke="#0B2741" stroke-opacity="0.5" stroke-width="3" stroke-miterlimit="10" stroke-linecap="round"/>
<path d="M168.617 472C184.701 472 184.701 490 200.786 490C216.87 490 216.87 472 232.954 472C249.038 472 249.038 490 265.085 490C281.17 490 281.17 472 297.216 472C313.3 472 313.3 490 329.346 490C345.431 490 345.431 472 361.514 472C377.599 472 377.599 490 393.684 490C409.767 490 409.767 472 425.852 472C441.936 472 441.936 490 458.021 490C474.104 490 474.104 472 490.189 472" stroke="#0B2741" stroke-opacity="0.5" stroke-width="3" stroke-miterlimit="10" stroke-linecap="round"/>
<path d="M168.617 -8C184.701 -8 184.701 10 200.786 10C216.87 10 216.87 -8 232.954 -8C249.038 -8 249.038 10 265.085 10C281.17 10 281.17 -8 297.216 -8C313.3 -8 313.3 10 329.346 10C345.431 10 345.431 -8 361.514 -8C377.599 -8 377.599 10 393.684 10C409.767 10 409.767 -8 425.852 -8C441.936 -8 441.936 10 458.021 10C474.104 10 474.104 -8 490.189 -8" stroke="#0B2741" stroke-opacity="0.5" stroke-width="3" stroke-miterlimit="10" stroke-linecap="round"/>
<path d="M811.758 472C827.842 472 827.842 490 843.926 490C860.011 490 860.011 472 876.095 472C892.179 472 892.179 490 908.226 490C924.31 490 924.31 472 940.356 472C956.441 472 956.441 490 972.487 490C988.572 490 988.572 472 1004.66 472C1020.74 472 1020.74 490 1036.82 490C1052.91 490 1052.91 472 1068.99 472C1085.08 472 1085.08 490 1101.16 490C1117.24 490 1117.24 472 1133.33 472" stroke="#0B2741" stroke-opacity="0.5" stroke-width="3" stroke-miterlimit="10" stroke-linecap="round"/>
<path d="M811.758 -8C827.842 -8 827.842 10 843.926 10C860.011 10 860.011 -8 876.095 -8C892.179 -8 892.179 10 908.226 10C924.31 10 924.31 -8 940.356 -8C956.441 -8 956.441 10 972.487 10C988.572 10 988.572 -8 1004.66 -8C1020.74 -8 1020.74 10 1036.82 10C1052.91 10 1052.91 -8 1068.99 -8C1085.08 -8 1085.08 10 1101.16 10C1117.24 10 1117.24 -8 1133.33 -8" stroke="#0B2741" stroke-opacity="0.5" stroke-width="3" stroke-miterlimit="10" stroke-linecap="round"/>
<path d="M-152.957 172C-136.873 172 -136.873 190 -120.789 190C-104.704 190 -104.704 172 -88.6201 172C-72.5358 172 -72.5358 190 -56.4893 190C-40.4046 190 -40.4046 172 -24.3585 172C-8.2739 172 -8.27389 190 7.77217 190C23.8568 190 23.8568 172 39.9402 172C56.0248 172 56.0248 190 72.1094 190C88.1928 190 88.1928 172 104.277 172C120.362 172 120.362 190 136.447 190C152.53 190 152.53 172 168.615 172" stroke="#0B2741" stroke-opacity="0.5" stroke-width="3" stroke-miterlimit="10" stroke-linecap="round"/>
<path d="M490.188 172C506.272 172 506.272 190 522.356 190C538.44 190 538.44 172 554.524 172C570.609 172 570.609 190 586.655 190C602.74 190 602.74 172 618.786 172C634.871 172 634.871 190 650.917 190C667.001 190 667.001 172 683.085 172C699.169 172 699.169 190 715.254 190C731.337 190 731.337 172 747.422 172C763.506 172 763.506 190 779.591 190C795.674 190 795.675 172 811.759 172" stroke="#0B2741" stroke-opacity="0.5" stroke-width="3" stroke-miterlimit="10" stroke-linecap="round"/>
<path d="M-152.957 412C-136.873 412 -136.873 430 -120.789 430C-104.704 430 -104.704 412 -88.6201 412C-72.5358 412 -72.5358 430 -56.4893 430C-40.4046 430 -40.4046 412 -24.3585 412C-8.2739 412 -8.27389 430 7.77217 430C23.8568 430 23.8568 412 39.9402 412C56.0248 412 56.0248 430 72.1094 430C88.1928 430 88.1928 412 104.277 412C120.362 412 120.362 430 136.447 430C152.53 430 152.53 412 168.615 412" stroke="#0B2741" stroke-opacity="0.5" stroke-width="3" stroke-miterlimit="10" stroke-linecap="round"/>
<path d="M490.188 412C506.272 412 506.272 430 522.356 430C538.44 430 538.44 412 554.524 412C570.609 412 570.609 430 586.655 430C602.74 430 602.74 412 618.786 412C634.871 412 634.871 430 650.917 430C667.001 430 667.001 412 683.085 412C699.169 412 699.169 430 715.254 430C731.337 430 731.337 412 747.422 412C763.506 412 763.506 430 779.591 430C795.674 430 795.675 412 811.759 412" stroke="#0B2741" stroke-opacity="0.5" stroke-width="3" stroke-miterlimit="10" stroke-linecap="round"/>
<path d="M168.617 172C184.701 172 184.701 190 200.786 190C216.87 190 216.87 172 232.954 172C249.038 172 249.038 190 265.085 190C281.17 190 281.17 172 297.216 172C313.3 172 313.3 190 329.346 190C345.431 190 345.431 172 361.514 172C377.599 172 377.599 190 393.684 190C409.767 190 409.767 172 425.852 172C441.936 172 441.936 190 458.021 190C474.104 190 474.104 172 490.189 172" stroke="#0B2741" stroke-opacity="0.5" stroke-width="3" stroke-miterlimit="10" stroke-linecap="round"/>
<path d="M811.758 172C827.842 172 827.842 190 843.926 190C860.011 190 860.011 172 876.095 172C892.179 172 892.179 190 908.226 190C924.31 190 924.31 172 940.356 172C956.441 172 956.441 190 972.487 190C988.572 190 988.572 172 1004.66 172C1020.74 172 1020.74 190 1036.82 190C1052.91 190 1052.91 172 1068.99 172C1085.08 172 1085.08 190 1101.16 190C1117.24 190 1117.24 172 1133.33 172" stroke="#0B2741" stroke-opacity="0.5" stroke-width="3" stroke-miterlimit="10" stroke-linecap="round"/>
<path d="M168.617 412C184.701 412 184.701 430 200.786 430C216.87 430 216.87 412 232.954 412C249.038 412 249.038 430 265.085 430C281.17 430 281.17 412 297.216 412C313.3 412 313.3 430 329.346 430C345.431 430 345.431 412 361.514 412C377.599 412 377.599 430 393.684 430C409.767 430 409.767 412 425.852 412C441.936 412 441.936 430 458.021 430C474.104 430 474.104 412 490.189 412" stroke="#0B2741" stroke-opacity="0.5" stroke-width="3" stroke-miterlimit="10" stroke-linecap="round"/>
<path d="M811.758 412C827.842 412 827.842 430 843.926 430C860.011 430 860.011 412 876.095 412C892.179 412 892.179 430 908.226 430C924.31 430 924.31 412 940.356 412C956.441 412 956.441 430 972.487 430C988.572 430 988.572 412 1004.66 412C1020.74 412 1020.74 430 1036.82 430C1052.91 430 1052.91 412 1068.99 412C1085.08 412 1085.08 430 1101.16 430C1117.24 430 1117.24 412 1133.33 412" stroke="#0B2741" stroke-opacity="0.5" stroke-width="3" stroke-miterlimit="10" stroke-linecap="round"/>
<path d="M-152.957 292C-136.873 292 -136.873 310 -120.789 310C-104.704 310 -104.704 292 -88.6201 292C-72.5358 292 -72.5358 310 -56.4893 310C-40.4046 310 -40.4046 292 -24.3585 292C-8.2739 292 -8.27389 310 7.77217 310C23.8568 310 23.8568 292 39.9402 292C56.0248 292 56.0248 310 72.1094 310C88.1928 310 88.1928 292 104.277 292C120.362 292 120.362 310 136.447 310C152.53 310 152.53 292 168.615 292" stroke="#0B2741" stroke-opacity="0.5" stroke-width="3" stroke-miterlimit="10" stroke-linecap="round"/>
<path d="M490.188 292C506.272 292 506.272 310 522.356 310C538.44 310 538.44 292 554.524 292C570.609 292 570.609 310 586.655 310C602.74 310 602.74 292 618.786 292C634.871 292 634.871 310 650.917 310C667.001 310 667.001 292 683.085 292C699.169 292 699.169 310 715.254 310C731.337 310 731.337 292 747.422 292C763.506 292 763.506 310 779.591 310C795.674 310 795.675 292 811.759 292" stroke="#0B2741" stroke-opacity="0.5" stroke-width="3" stroke-miterlimit="10" stroke-linecap="round"/>
<path d="M-152.957 532C-136.873 532 -136.873 550 -120.789 550C-104.704 550 -104.704 532 -88.6201 532C-72.5358 532 -72.5358 550 -56.4893 550C-40.4046 550 -40.4046 532 -24.3585 532C-8.2739 532 -8.27389 550 7.77217 550C23.8568 550 23.8568 532 39.9402 532C56.0248 532 56.0248 550 72.1094 550C88.1928 550 88.1928 532 104.277 532C120.362 532 120.362 550 136.447 550C152.53 550 152.53 532 168.615 532" stroke="#0B2741" stroke-opacity="0.5" stroke-width="3" stroke-miterlimit="10" stroke-linecap="round"/>
<path d="M-152.957 52C-136.873 52 -136.873 70 -120.789 70C-104.704 70 -104.704 52 -88.6201 52C-72.5358 52 -72.5358 70 -56.4893 70C-40.4046 70 -40.4046 52 -24.3585 52C-8.2739 52 -8.27389 70 7.77217 70C23.8568 70 23.8568 52 39.9402 52C56.0248 52 56.0248 70 72.1094 70C88.1928 70 88.1928 52 104.277 52C120.362 52 120.362 70 136.447 70C152.53 70 152.53 52 168.615 52" stroke="#0B2741" stroke-opacity="0.5" stroke-width="3" stroke-miterlimit="10" stroke-linecap="round"/>
<path d="M490.188 532C506.272 532 506.272 550 522.356 550C538.44 550 538.44 532 554.524 532C570.609 532 570.609 550 586.655 550C602.74 550 602.74 532 618.786 532C634.871 532 634.871 550 650.917 550C667.001 550 667.001 532 683.085 532C699.169 532 699.169 550 715.254 550C731.337 550 731.337 532 747.422 532C763.506 532 763.506 550 779.591 550C795.674 550 795.675 532 811.759 532" stroke="#0B2741" stroke-opacity="0.5" stroke-width="3" stroke-miterlimit="10" stroke-linecap="round"/>
<path d="M490.188 52C506.272 52 506.272 70 522.356 70C538.44 70 538.44 52 554.524 52C570.609 52 570.609 70 586.655 70C602.74 70 602.74 52 618.786 52C634.871 52 634.871 70 650.917 70C667.001 70 667.001 52 683.085 52C699.169 52 699.169 70 715.254 70C731.337 70 731.337 52 747.422 52C763.506 52 763.506 70 779.591 70C795.674 70 795.675 52 811.759 52" stroke="#0B2741" stroke-opacity="0.5" stroke-width="3" stroke-miterlimit="10" stroke-linecap="round"/>
<path d="M168.617 292C184.701 292 184.701 310 200.786 310C216.87 310 216.87 292 232.954 292C249.038 292 249.038 310 265.085 310C281.17 310 281.17 292 297.216 292C313.3 292 313.3 310 329.346 310C345.431 310 345.431 292 361.514 292C377.599 292 377.599 310 393.684 310C409.767 310 409.767 292 425.852 292C441.936 292 441.936 310 458.021 310C474.104 310 474.104 292 490.189 292" stroke="#0B2741" stroke-opacity="0.5" stroke-width="3" stroke-miterlimit="10" stroke-linecap="round"/>
<path d="M811.758 292C827.842 292 827.842 310 843.926 310C860.011 310 860.011 292 876.095 292C892.179 292 892.179 310 908.226 310C924.31 310 924.31 292 940.356 292C956.441 292 956.441 310 972.487 310C988.572 310 988.572 292 1004.66 292C1020.74 292 1020.74 310 1036.82 310C1052.91 310 1052.91 292 1068.99 292C1085.08 292 1085.08 310 1101.16 310C1117.24 310 1117.24 292 1133.33 292" stroke="#0B2741" stroke-opacity="0.5" stroke-width="3" stroke-miterlimit="10" stroke-linecap="round"/>
<path d="M168.617 532C184.701 532 184.701 550 200.786 550C216.87 550 216.87 532 232.954 532C249.038 532 249.038 550 265.085 550C281.17 550 281.17 532 297.216 532C313.3 532 313.3 550 329.346 550C345.431 550 345.431 532 361.514 532C377.599 532 377.599 550 393.684 550C409.767 550 409.767 532 425.852 532C441.936 532 441.936 550 458.021 550C474.104 550 474.104 532 490.189 532" stroke="#0B2741" stroke-opacity="0.5" stroke-width="3" stroke-miterlimit="10" stroke-linecap="round"/>
<path d="M168.617 52C184.701 52 184.701 70 200.786 70C216.87 70 216.87 52 232.954 52C249.038 52 249.038 70 265.085 70C281.17 70 281.17 52 297.216 52C313.3 52 313.3 70 329.346 70C345.431 70 345.431 52 361.514 52C377.599 52 377.599 70 393.684 70C409.767 70 409.767 52 425.852 52C441.936 52 441.936 70 458.021 70C474.104 70 474.104 52 490.189 52" stroke="#0B2741" stroke-opacity="0.5" stroke-width="3" stroke-miterlimit="10" stroke-linecap="round"/>
<path d="M811.758 532C827.842 532 827.842 550 843.926 550C860.011 550 860.011 532 876.095 532C892.179 532 892.179 550 908.226 550C924.31 550 924.31 532 940.356 532C956.441 532 956.441 550 972.487 550C988.572 550 988.572 532 1004.66 532C1020.74 532 1020.74 550 1036.82 550C1052.91 550 1052.91 532 1068.99 532C1085.08 532 1085.08 550 1101.16 550C1117.24 550 1117.24 532 1133.33 532" stroke="#0B2741" stroke-opacity="0.5" stroke-width="3" stroke-miterlimit="10" stroke-linecap="round"/>
<path d="M811.758 52C827.842 52 827.842 70 843.926 70C860.011 70 860.011 52 876.095 52C892.179 52 892.179 70 908.226 70C924.31 70 924.31 52 940.356 52C956.441 52 956.441 70 972.487 70C988.572 70 988.572 52 1004.66 52C1020.74 52 1020.74 70 1036.82 70C1052.91 70 1052.91 52 1068.99 52C1085.08 52 1085.08 70 1101.16 70C1117.24 70 1117.24 52 1133.33 52" stroke="#0B2741" stroke-opacity="0.5" stroke-width="3" stroke-miterlimit="10" stroke-linecap="round"/>
</g>
</svg>
