<svg width="493" height="506" viewBox="0 0 493 506" fill="none" xmlns="http://www.w3.org/2000/svg">
<path d="M388.918 77.7895C316.912 81.4979 297.159 18.3739 236.495 3.59525C171.89 -12.1506 142.732 27.0244 135.827 59.0547C130.505 83.7457 119.318 94.4633 89.8341 101.329C68.8193 105.184 50.1983 116.103 55.0756 146.055C59.9531 176.007 50.0668 193.891 35.35 204.606C20.6332 215.322 6.90293 230.535 2.07383 250.354C-6.10553 283.902 10.522 319.041 41.1673 334.62C75.6043 351.755 94.0991 370.512 91.6803 409.415C91.0758 419.139 95.1338 470.869 144.371 455.232C156.806 451.284 208.249 424.651 239.467 474.08C247.24 486.388 266.488 498.499 284.076 502.79C331.244 514.283 379.466 479.516 384.255 431.645C389.449 396.224 395.894 379.615 434.189 391.987C472.081 404.228 494.756 351.494 473.555 324.442C444.129 293.952 479.241 239.118 490.392 193.364C505.633 130.823 451.769 70.9783 388.918 77.7895Z" fill="#FDBF82"/>
<path d="M164.818 13.8135C180.909 2.08447 204.193 -3.76289 236.377 4.08105C266.573 11.4374 286.572 30.8126 308.142 48.0156C329.696 65.2065 352.757 80.1527 388.943 78.2891L388.957 78.2881L388.972 78.2861C451.484 71.5119 505.064 131.047 489.906 193.245C487.126 204.653 482.85 216.635 478.449 228.688C474.052 240.732 469.529 252.85 466.275 264.492C459.78 287.738 458.279 309.314 473.176 324.77C483.611 338.104 483.274 357.819 475.588 372.72C471.748 380.164 466.092 386.368 459.079 389.956C452.076 393.539 443.692 394.531 434.343 391.511C415.165 385.315 403.719 386.292 396.456 393.54C392.849 397.14 390.329 402.239 388.385 408.62C386.44 415.003 385.06 422.714 383.761 431.572L383.759 431.584L383.758 431.596C378.999 479.168 331.063 513.724 284.194 502.305C275.46 500.173 266.302 496.097 258.36 491.021C250.414 485.941 243.723 479.883 239.89 473.813C232.039 461.383 222.9 453.711 213.398 449.274C203.9 444.839 194.069 443.651 184.849 444.141C166.447 445.118 150.35 452.808 144.22 454.755C131.988 458.639 122.623 458.322 115.46 455.57C108.298 452.818 103.273 447.607 99.7676 441.582C92.7416 429.505 91.8809 414.252 92.1797 409.446C93.3947 389.903 89.357 375.365 80.6475 363.558C71.9508 351.768 58.6318 342.751 41.3896 334.172C10.9494 318.695 -5.56325 283.788 2.55957 250.472C7.35056 230.81 20.9817 215.687 35.6445 205.01C43.0693 199.604 49.2866 192.381 53.0273 182.726C56.7673 173.072 58.0193 161.02 55.5693 145.975C53.1503 131.119 56.5651 121.071 63.1064 114.252C69.6725 107.407 79.4592 103.74 89.9248 101.82L89.9355 101.818L89.9473 101.815C104.722 98.3751 114.99 93.9541 122.231 87.2432C129.482 80.5236 133.643 71.5609 136.316 59.1602C139.749 43.2355 148.711 25.5544 164.818 13.8135Z" stroke="#E17304" stroke-opacity="0.5"/>
<mask id="mask0_850_3879" style="mask-type:alpha" maskUnits="userSpaceOnUse" x="0" y="1" width="493" height="505">
<path d="M388.918 78.7895C316.912 82.4979 297.159 19.3739 236.495 4.59525C171.89 -11.1506 142.732 28.0244 135.827 60.0547C130.505 84.7457 119.318 95.4633 89.8341 102.329C68.8193 106.184 50.1983 117.103 55.0756 147.055C59.9531 177.007 50.0668 194.891 35.35 205.606C20.6332 216.322 6.90293 231.535 2.07383 251.354C-6.10553 284.902 10.522 320.041 41.1673 335.62C75.6043 352.755 94.0991 371.512 91.6803 410.415C91.0758 420.139 95.1338 471.869 144.371 456.232C156.806 452.284 208.249 425.651 239.467 475.08C247.24 487.388 266.488 499.499 284.076 503.79C331.244 515.283 379.466 480.516 384.255 432.645C389.449 397.224 395.894 380.615 434.189 392.987C472.081 405.228 494.756 352.494 473.555 325.442C444.129 294.952 479.241 240.118 490.392 194.364C505.633 131.823 451.769 71.9783 388.918 78.7895Z" fill="#12416D"/>
<path d="M164.818 14.8135C180.909 3.08447 204.193 -2.76289 236.377 5.08105C266.573 12.4374 286.572 31.8126 308.142 49.0156C329.696 66.2065 352.757 81.1527 388.943 79.2891L388.957 79.2881L388.972 79.2861C451.484 72.5119 505.064 132.047 489.906 194.245C487.126 205.653 482.85 217.635 478.449 229.688C474.052 241.732 469.529 253.85 466.275 265.492C459.78 288.738 458.279 310.314 473.176 325.77C483.611 339.104 483.274 358.819 475.588 373.72C471.748 381.164 466.092 387.368 459.079 390.956C452.076 394.539 443.692 395.531 434.343 392.511C415.165 386.315 403.719 387.292 396.456 394.54C392.849 398.14 390.329 403.239 388.385 409.62C386.44 416.003 385.06 423.714 383.761 432.572L383.759 432.584L383.758 432.596C378.999 480.168 331.063 514.724 284.194 503.305C275.46 501.173 266.302 497.097 258.36 492.021C250.414 486.941 243.723 480.883 239.89 474.813C232.039 462.383 222.9 454.711 213.398 450.274C203.9 445.839 194.069 444.651 184.849 445.141C166.447 446.118 150.35 453.808 144.22 455.755C131.988 459.639 122.623 459.322 115.46 456.57C108.298 453.818 103.273 448.607 99.7676 442.582C92.7416 430.505 91.8809 415.252 92.1797 410.446C93.3947 390.903 89.357 376.365 80.6475 364.558C71.9508 352.768 58.6318 343.751 41.3896 335.172C10.9494 319.695 -5.56325 284.788 2.55957 251.472C7.35056 231.81 20.9817 216.687 35.6445 206.01C43.0693 200.604 49.2866 193.381 53.0273 183.726C56.7673 174.072 58.0193 162.02 55.5693 146.975C53.1503 132.119 56.5651 122.071 63.1064 115.252C69.6725 108.407 79.4592 104.74 89.9248 102.82L89.9355 102.818L89.9473 102.815C104.722 99.3751 114.99 94.9541 122.231 88.2432C129.482 81.5236 133.643 72.5609 136.316 60.1602C139.749 44.2355 148.711 26.5544 164.818 14.8135Z" stroke="#E17304" stroke-opacity="0.5"/>
</mask>
<g mask="url(#mask0_850_3879)">
<path d="M289.188 35C305.272 35 305.272 53 321.356 53C337.44 53 337.44 35 353.524 35C369.609 35 369.609 53 385.655 53C401.74 53 401.74 35 417.786 35C433.871 35 433.871 53 449.917 53C466.001 53 466.001 35 482.085 35C498.169 35 498.169 53 514.254 53C530.337 53 530.337 35 546.422 35C562.506 35 562.506 53 578.591 53C594.674 53 594.675 35 610.759 35" stroke="#E17304" stroke-opacity="0.5" stroke-width="3" stroke-miterlimit="10" stroke-linecap="round"/>
<path d="M289.188 275C305.272 275 305.272 293 321.356 293C337.44 293 337.44 275 353.524 275C369.609 275 369.609 293 385.655 293C401.74 293 401.74 275 417.786 275C433.871 275 433.871 293 449.917 293C466.001 293 466.001 275 482.085 275C498.169 275 498.169 293 514.254 293C530.337 293 530.337 275 546.422 275C562.506 275 562.506 293 578.591 293C594.674 293 594.675 275 610.759 275" stroke="#E17304" stroke-opacity="0.5" stroke-width="3" stroke-miterlimit="10" stroke-linecap="round"/>
<path d="M-32.3828 35C-16.2986 35 -16.2986 53 -0.214331 53C15.8699 53 15.8699 35 31.9542 35C48.0384 35 48.0384 53 64.0849 53C80.1697 53 80.1697 35 96.2157 35C112.3 35 112.3 53 128.346 53C144.431 53 144.431 35 160.514 35C176.599 35 176.599 53 192.684 53C208.767 53 208.767 35 224.852 35C240.936 35 240.936 53 257.021 53C273.104 53 273.104 35 289.189 35" stroke="#E17304" stroke-opacity="0.5" stroke-width="3" stroke-miterlimit="10" stroke-linecap="round"/>
<path d="M-32.3828 275C-16.2986 275 -16.2986 293 -0.214331 293C15.8699 293 15.8699 275 31.9542 275C48.0384 275 48.0384 293 64.0849 293C80.1697 293 80.1697 275 96.2157 275C112.3 275 112.3 293 128.346 293C144.431 293 144.431 275 160.514 275C176.599 275 176.599 293 192.684 293C208.767 293 208.767 275 224.852 275C240.936 275 240.936 293 257.021 293C273.104 293 273.104 275 289.189 275" stroke="#E17304" stroke-opacity="0.5" stroke-width="3" stroke-miterlimit="10" stroke-linecap="round"/>
<path d="M289.188 155C305.272 155 305.272 173 321.356 173C337.44 173 337.44 155 353.524 155C369.609 155 369.609 173 385.655 173C401.74 173 401.74 155 417.786 155C433.871 155 433.871 173 449.917 173C466.001 173 466.001 155 482.085 155C498.169 155 498.169 173 514.254 173C530.337 173 530.337 155 546.422 155C562.506 155 562.506 173 578.591 173C594.674 173 594.675 155 610.759 155" stroke="#E17304" stroke-opacity="0.5" stroke-width="3" stroke-miterlimit="10" stroke-linecap="round"/>
<path d="M289.188 395C305.272 395 305.272 413 321.356 413C337.44 413 337.44 395 353.524 395C369.609 395 369.609 413 385.655 413C401.74 413 401.74 395 417.786 395C433.871 395 433.871 413 449.917 413C466.001 413 466.001 395 482.085 395C498.169 395 498.169 413 514.254 413C530.337 413 530.337 395 546.422 395C562.506 395 562.506 413 578.591 413C594.674 413 594.675 395 610.759 395" stroke="#E17304" stroke-opacity="0.5" stroke-width="3" stroke-miterlimit="10" stroke-linecap="round"/>
<path d="M-32.3828 155C-16.2986 155 -16.2986 173 -0.214331 173C15.8699 173 15.8699 155 31.9542 155C48.0384 155 48.0384 173 64.0849 173C80.1697 173 80.1697 155 96.2157 155C112.3 155 112.3 173 128.346 173C144.431 173 144.431 155 160.514 155C176.599 155 176.599 173 192.684 173C208.767 173 208.767 155 224.852 155C240.936 155 240.936 173 257.021 173C273.104 173 273.104 155 289.189 155" stroke="#E17304" stroke-opacity="0.5" stroke-width="3" stroke-miterlimit="10" stroke-linecap="round"/>
<path d="M-32.3828 395C-16.2986 395 -16.2986 413 -0.214331 413C15.8699 413 15.8699 395 31.9542 395C48.0384 395 48.0384 413 64.0849 413C80.1697 413 80.1697 395 96.2157 395C112.3 395 112.3 413 128.346 413C144.431 413 144.431 395 160.514 395C176.599 395 176.599 413 192.684 413C208.767 413 208.767 395 224.852 395C240.936 395 240.936 413 257.021 413C273.104 413 273.104 395 289.189 395" stroke="#E17304" stroke-opacity="0.5" stroke-width="3" stroke-miterlimit="10" stroke-linecap="round"/>
<path d="M289.188 95C305.272 95 305.272 113 321.356 113C337.44 113 337.44 95 353.524 95C369.609 95 369.609 113 385.655 113C401.74 113 401.74 95 417.786 95C433.871 95 433.871 113 449.917 113C466.001 113 466.001 95 482.085 95C498.169 95 498.169 113 514.254 113C530.337 113 530.337 95 546.422 95C562.506 95 562.506 113 578.591 113C594.674 113 594.675 95 610.759 95" stroke="#E17304" stroke-opacity="0.5" stroke-width="3" stroke-miterlimit="10" stroke-linecap="round"/>
<path d="M289.188 335C305.272 335 305.272 353 321.356 353C337.44 353 337.44 335 353.524 335C369.609 335 369.609 353 385.655 353C401.74 353 401.74 335 417.786 335C433.871 335 433.871 353 449.917 353C466.001 353 466.001 335 482.085 335C498.169 335 498.169 353 514.254 353C530.337 353 530.337 335 546.422 335C562.506 335 562.506 353 578.591 353C594.674 353 594.675 335 610.759 335" stroke="#E17304" stroke-opacity="0.5" stroke-width="3" stroke-miterlimit="10" stroke-linecap="round"/>
<path d="M-32.3828 95C-16.2986 95 -16.2986 113 -0.214331 113C15.8699 113 15.8699 95 31.9542 95C48.0384 95 48.0384 113 64.0849 113C80.1697 113 80.1697 95 96.2157 95C112.3 95 112.3 113 128.346 113C144.431 113 144.431 95 160.514 95C176.599 95 176.599 113 192.684 113C208.767 113 208.767 95 224.852 95C240.936 95 240.936 113 257.021 113C273.104 113 273.104 95 289.189 95" stroke="#E17304" stroke-opacity="0.5" stroke-width="3" stroke-miterlimit="10" stroke-linecap="round"/>
<path d="M-32.3828 335C-16.2986 335 -16.2986 353 -0.214331 353C15.8699 353 15.8699 335 31.9542 335C48.0384 335 48.0384 353 64.0849 353C80.1697 353 80.1697 335 96.2157 335C112.3 335 112.3 353 128.346 353C144.431 353 144.431 335 160.514 335C176.599 335 176.599 353 192.684 353C208.767 353 208.767 335 224.852 335C240.936 335 240.936 353 257.021 353C273.104 353 273.104 335 289.189 335" stroke="#E17304" stroke-opacity="0.5" stroke-width="3" stroke-miterlimit="10" stroke-linecap="round"/>
<path d="M289.188 215C305.272 215 305.272 233 321.356 233C337.44 233 337.44 215 353.524 215C369.609 215 369.609 233 385.655 233C401.74 233 401.74 215 417.786 215C433.871 215 433.871 233 449.917 233C466.001 233 466.001 215 482.085 215C498.169 215 498.169 233 514.254 233C530.337 233 530.337 215 546.422 215C562.506 215 562.506 233 578.591 233C594.674 233 594.675 215 610.759 215" stroke="#E17304" stroke-opacity="0.5" stroke-width="3" stroke-miterlimit="10" stroke-linecap="round"/>
<path d="M289.188 455C305.272 455 305.272 473 321.356 473C337.44 473 337.44 455 353.524 455C369.609 455 369.609 473 385.655 473C401.74 473 401.74 455 417.786 455C433.871 455 433.871 473 449.917 473C466.001 473 466.001 455 482.085 455C498.169 455 498.169 473 514.254 473C530.337 473 530.337 455 546.422 455C562.506 455 562.506 473 578.591 473C594.674 473 594.675 455 610.759 455" stroke="#E17304" stroke-opacity="0.5" stroke-width="3" stroke-miterlimit="10" stroke-linecap="round"/>
<path d="M-32.3828 215C-16.2986 215 -16.2986 233 -0.214331 233C15.8699 233 15.8699 215 31.9542 215C48.0384 215 48.0384 233 64.0849 233C80.1697 233 80.1697 215 96.2157 215C112.3 215 112.3 233 128.346 233C144.431 233 144.431 215 160.514 215C176.599 215 176.599 233 192.684 233C208.767 233 208.767 215 224.852 215C240.936 215 240.936 233 257.021 233C273.104 233 273.104 215 289.189 215" stroke="#E17304" stroke-opacity="0.5" stroke-width="3" stroke-miterlimit="10" stroke-linecap="round"/>
<path d="M-32.3828 455C-16.2986 455 -16.2986 473 -0.214331 473C15.8699 473 15.8699 455 31.9542 455C48.0384 455 48.0384 473 64.0849 473C80.1697 473 80.1697 455 96.2157 455C112.3 455 112.3 473 128.346 473C144.431 473 144.431 455 160.514 455C176.599 455 176.599 473 192.684 473C208.767 473 208.767 455 224.852 455C240.936 455 240.936 473 257.021 473C273.104 473 273.104 455 289.189 455" stroke="#E17304" stroke-opacity="0.5" stroke-width="3" stroke-miterlimit="10" stroke-linecap="round"/>
<path d="M289.188 65C305.272 65 305.272 83 321.356 83C337.44 83 337.44 65 353.524 65C369.609 65 369.609 83 385.655 83C401.74 83 401.74 65 417.786 65C433.871 65 433.871 83 449.917 83C466.001 83 466.001 65 482.085 65C498.169 65 498.169 83 514.254 83C530.337 83 530.337 65 546.422 65C562.506 65 562.506 83 578.591 83C594.674 83 594.675 65 610.759 65" stroke="#E17304" stroke-opacity="0.5" stroke-width="3" stroke-miterlimit="10" stroke-linecap="round"/>
<path d="M289.188 305C305.272 305 305.272 323 321.356 323C337.44 323 337.44 305 353.524 305C369.609 305 369.609 323 385.655 323C401.74 323 401.74 305 417.786 305C433.871 305 433.871 323 449.917 323C466.001 323 466.001 305 482.085 305C498.169 305 498.169 323 514.254 323C530.337 323 530.337 305 546.422 305C562.506 305 562.506 323 578.591 323C594.674 323 594.675 305 610.759 305" stroke="#E17304" stroke-opacity="0.5" stroke-width="3" stroke-miterlimit="10" stroke-linecap="round"/>
<path d="M-32.3828 65C-16.2986 65 -16.2986 83 -0.214331 83C15.8699 83 15.8699 65 31.9542 65C48.0384 65 48.0384 83 64.0849 83C80.1697 83 80.1697 65 96.2157 65C112.3 65 112.3 83 128.346 83C144.431 83 144.431 65 160.514 65C176.599 65 176.599 83 192.684 83C208.767 83 208.767 65 224.852 65C240.936 65 240.936 83 257.021 83C273.104 83 273.104 65 289.189 65" stroke="#E17304" stroke-opacity="0.5" stroke-width="3" stroke-miterlimit="10" stroke-linecap="round"/>
<path d="M-32.3828 305C-16.2986 305 -16.2986 323 -0.214331 323C15.8699 323 15.8699 305 31.9542 305C48.0384 305 48.0384 323 64.0849 323C80.1697 323 80.1697 305 96.2157 305C112.3 305 112.3 323 128.346 323C144.431 323 144.431 305 160.514 305C176.599 305 176.599 323 192.684 323C208.767 323 208.767 305 224.852 305C240.936 305 240.936 323 257.021 323C273.104 323 273.104 305 289.189 305" stroke="#E17304" stroke-opacity="0.5" stroke-width="3" stroke-miterlimit="10" stroke-linecap="round"/>
<path d="M289.188 185C305.272 185 305.272 203 321.356 203C337.44 203 337.44 185 353.524 185C369.609 185 369.609 203 385.655 203C401.74 203 401.74 185 417.786 185C433.871 185 433.871 203 449.917 203C466.001 203 466.001 185 482.085 185C498.169 185 498.169 203 514.254 203C530.337 203 530.337 185 546.422 185C562.506 185 562.506 203 578.591 203C594.674 203 594.675 185 610.759 185" stroke="#E17304" stroke-opacity="0.5" stroke-width="3" stroke-miterlimit="10" stroke-linecap="round"/>
<path d="M289.188 425C305.272 425 305.272 443 321.356 443C337.44 443 337.44 425 353.524 425C369.609 425 369.609 443 385.655 443C401.74 443 401.74 425 417.786 425C433.871 425 433.871 443 449.917 443C466.001 443 466.001 425 482.085 425C498.169 425 498.169 443 514.254 443C530.337 443 530.337 425 546.422 425C562.506 425 562.506 443 578.591 443C594.674 443 594.675 425 610.759 425" stroke="#E17304" stroke-opacity="0.5" stroke-width="3" stroke-miterlimit="10" stroke-linecap="round"/>
<path d="M-32.3828 185C-16.2986 185 -16.2986 203 -0.214331 203C15.8699 203 15.8699 185 31.9542 185C48.0384 185 48.0384 203 64.0849 203C80.1697 203 80.1697 185 96.2157 185C112.3 185 112.3 203 128.346 203C144.431 203 144.431 185 160.514 185C176.599 185 176.599 203 192.684 203C208.767 203 208.767 185 224.852 185C240.936 185 240.936 203 257.021 203C273.104 203 273.104 185 289.189 185" stroke="#E17304" stroke-opacity="0.5" stroke-width="3" stroke-miterlimit="10" stroke-linecap="round"/>
<path d="M-32.3828 425C-16.2986 425 -16.2986 443 -0.214331 443C15.8699 443 15.8699 425 31.9542 425C48.0384 425 48.0384 443 64.0849 443C80.1697 443 80.1697 425 96.2157 425C112.3 425 112.3 443 128.346 443C144.431 443 144.431 425 160.514 425C176.599 425 176.599 443 192.684 443C208.767 443 208.767 425 224.852 425C240.936 425 240.936 443 257.021 443C273.104 443 273.104 425 289.189 425" stroke="#E17304" stroke-opacity="0.5" stroke-width="3" stroke-miterlimit="10" stroke-linecap="round"/>
<path d="M289.188 125C305.272 125 305.272 143 321.356 143C337.44 143 337.44 125 353.524 125C369.609 125 369.609 143 385.655 143C401.74 143 401.74 125 417.786 125C433.871 125 433.871 143 449.917 143C466.001 143 466.001 125 482.085 125C498.169 125 498.169 143 514.254 143C530.337 143 530.337 125 546.422 125C562.506 125 562.506 143 578.591 143C594.674 143 594.675 125 610.759 125" stroke="#E17304" stroke-opacity="0.5" stroke-width="3" stroke-miterlimit="10" stroke-linecap="round"/>
<path d="M289.188 365C305.272 365 305.272 383 321.356 383C337.44 383 337.44 365 353.524 365C369.609 365 369.609 383 385.655 383C401.74 383 401.74 365 417.786 365C433.871 365 433.871 383 449.917 383C466.001 383 466.001 365 482.085 365C498.169 365 498.169 383 514.254 383C530.337 383 530.337 365 546.422 365C562.506 365 562.506 383 578.591 383C594.674 383 594.675 365 610.759 365" stroke="#E17304" stroke-opacity="0.5" stroke-width="3" stroke-miterlimit="10" stroke-linecap="round"/>
<path d="M-32.3828 125C-16.2986 125 -16.2986 143 -0.214331 143C15.8699 143 15.8699 125 31.9542 125C48.0384 125 48.0384 143 64.0849 143C80.1697 143 80.1697 125 96.2157 125C112.3 125 112.3 143 128.346 143C144.431 143 144.431 125 160.514 125C176.599 125 176.599 143 192.684 143C208.767 143 208.767 125 224.852 125C240.936 125 240.936 143 257.021 143C273.104 143 273.104 125 289.189 125" stroke="#E17304" stroke-opacity="0.5" stroke-width="3" stroke-miterlimit="10" stroke-linecap="round"/>
<path d="M-32.3828 365C-16.2986 365 -16.2986 383 -0.214331 383C15.8699 383 15.8699 365 31.9542 365C48.0384 365 48.0384 383 64.0849 383C80.1697 383 80.1697 365 96.2157 365C112.3 365 112.3 383 128.346 383C144.431 383 144.431 365 160.514 365C176.599 365 176.599 383 192.684 383C208.767 383 208.767 365 224.852 365C240.936 365 240.936 383 257.021 383C273.104 383 273.104 365 289.189 365" stroke="#E17304" stroke-opacity="0.5" stroke-width="3" stroke-miterlimit="10" stroke-linecap="round"/>
<path d="M289.188 245C305.272 245 305.272 263 321.356 263C337.44 263 337.44 245 353.524 245C369.609 245 369.609 263 385.655 263C401.74 263 401.74 245 417.786 245C433.871 245 433.871 263 449.917 263C466.001 263 466.001 245 482.085 245C498.169 245 498.169 263 514.254 263C530.337 263 530.337 245 546.422 245C562.506 245 562.506 263 578.591 263C594.674 263 594.675 245 610.759 245" stroke="#E17304" stroke-opacity="0.5" stroke-width="3" stroke-miterlimit="10" stroke-linecap="round"/>
<path d="M289.188 485C305.272 485 305.272 503 321.356 503C337.44 503 337.44 485 353.524 485C369.609 485 369.609 503 385.655 503C401.74 503 401.74 485 417.786 485C433.871 485 433.871 503 449.917 503C466.001 503 466.001 485 482.085 485C498.169 485 498.169 503 514.254 503C530.337 503 530.337 485 546.422 485C562.506 485 562.506 503 578.591 503C594.674 503 594.675 485 610.759 485" stroke="#E17304" stroke-opacity="0.5" stroke-width="3" stroke-miterlimit="10" stroke-linecap="round"/>
<path d="M289.188 5C305.272 5 305.272 23 321.356 23C337.44 23 337.44 5 353.524 5C369.609 5 369.609 23 385.655 23C401.74 23 401.74 5 417.786 5C433.871 5 433.871 23 449.917 23C466.001 23 466.001 5 482.085 5C498.169 5 498.169 23 514.254 23C530.337 23 530.337 5 546.422 5C562.506 5 562.506 23 578.591 23C594.674 23 594.675 5 610.759 5" stroke="#E17304" stroke-opacity="0.5" stroke-width="3" stroke-miterlimit="10" stroke-linecap="round"/>
<path d="M-32.3828 245C-16.2986 245 -16.2986 263 -0.214331 263C15.8699 263 15.8699 245 31.9542 245C48.0384 245 48.0384 263 64.0849 263C80.1697 263 80.1697 245 96.2157 245C112.3 245 112.3 263 128.346 263C144.431 263 144.431 245 160.514 245C176.599 245 176.599 263 192.684 263C208.767 263 208.767 245 224.852 245C240.936 245 240.936 263 257.021 263C273.104 263 273.104 245 289.189 245" stroke="#E17304" stroke-opacity="0.5" stroke-width="3" stroke-miterlimit="10" stroke-linecap="round"/>
<path d="M-32.3828 485C-16.2986 485 -16.2986 503 -0.214331 503C15.8699 503 15.8699 485 31.9542 485C48.0384 485 48.0384 503 64.0849 503C80.1697 503 80.1697 485 96.2157 485C112.3 485 112.3 503 128.346 503C144.431 503 144.431 485 160.514 485C176.599 485 176.599 503 192.684 503C208.767 503 208.767 485 224.852 485C240.936 485 240.936 503 257.021 503C273.104 503 273.104 485 289.189 485" stroke="#E17304" stroke-opacity="0.5" stroke-width="3" stroke-miterlimit="10" stroke-linecap="round"/>
<path d="M-32.3828 5C-16.2986 5 -16.2986 23 -0.214331 23C15.8699 23 15.8699 5 31.9542 5C48.0384 5 48.0384 23 64.0849 23C80.1697 23 80.1697 5 96.2157 5C112.3 5 112.3 23 128.346 23C144.431 23 144.431 5 160.514 5C176.599 5 176.599 23 192.684 23C208.767 23 208.767 5 224.852 5C240.936 5 240.936 23 257.021 23C273.104 23 273.104 5 289.189 5" stroke="#E17304" stroke-opacity="0.5" stroke-width="3" stroke-miterlimit="10" stroke-linecap="round"/>
</g>
</svg>
