<svg width="153" height="153" viewBox="0 0 153 153" fill="none" xmlns="http://www.w3.org/2000/svg">
<path d="M31 59C31 47.9543 39.9543 39 51 39H102C113.046 39 122 47.9543 122 59V121.862H31V59Z" fill="#92C1ED"/>
<rect x="36.1787" y="61.9346" width="39.2114" height="26.6341" rx="5" fill="#12416D"/>
<rect x="77.6094" y="61.9346" width="39.2114" height="26.6341" rx="5" fill="#12416D"/>
<rect x="53.9072" y="44.1785" width="49.5238" height="6.65854" rx="3.32927" fill="#12416D"/>
<circle cx="42.0213" cy="111.554" r="5.51051" fill="#12416D"/>
<circle cx="110.902" cy="109.718" r="5.51051" fill="#12416D"/>
<path d="M38.3477 130.841H48.4503V139.617C48.4503 142.379 46.2117 144.617 43.4503 144.617H43.3477C40.5862 144.617 38.3477 142.379 38.3477 139.617V130.841Z" fill="#92C1ED"/>
<path d="M103.555 130.841H113.657V139.617C113.657 142.379 111.419 144.617 108.657 144.617H108.555C105.793 144.617 103.555 142.379 103.555 139.617V130.841Z" fill="#92C1ED"/>
<path d="M31 122.575H121.923V124.923C121.923 127.684 119.685 129.923 116.923 129.923H36C33.2386 129.923 31 127.684 31 124.923V122.575Z" fill="#92C1ED"/>
</svg>
