<svg width="507" height="264" viewBox="0 0 507 264" fill="none" xmlns="http://www.w3.org/2000/svg">
<g clip-path="url(#clip0_872_4136)">
<path d="M383.344 70.9947C387.621 78.5096 392.421 85.9844 396.329 93.6998C412.669 126.005 424.498 157.324 438.342 190.463C439.281 192.717 444.072 204.603 445.525 204.715C448.679 203.456 455.461 199.694 457.908 202.991C460.356 206.287 458.759 213.617 460.372 214.957C473.133 219.817 488.742 220.21 501.487 224.397C503.164 224.95 504.552 224.942 505.692 226.61C509.945 232.85 502.795 249.604 498.092 255.034C486.952 257.608 475.404 259.749 463.992 261.057C455.107 262.075 443.96 263.078 435.1 263.463C432.46 263.575 419.137 263.976 418.206 262.717L417.853 260.279C423.142 258.667 428.824 259.822 434.297 259.453C455.164 258.065 475.813 254.985 496.503 252.235V249.837C485.548 250.679 474.914 253.542 463.992 254.633C457.94 255.242 450.91 255.05 444.747 255.451C433.358 256.188 419.892 259.525 409.033 255.042L498.381 246.661C499.568 246.388 503.469 235.111 503.67 233.323C504.175 228.88 503.878 228.599 499.753 227.741C494.416 226.634 488.75 226.113 483.381 225.03L482.185 226.297C482.097 229.754 481.824 233.564 479.256 236.178C476.038 234.221 480.123 224.597 478.847 223.37L473.245 222.56C473.494 225.632 472.675 229.361 471.03 231.96C470.613 232.617 470.468 234.125 469.232 232.978C467.097 230.997 470.605 222.408 470.027 221.758L464.048 220.916C463.486 221.012 462.435 231.149 458.799 230.572C456.713 226.45 459.971 223.859 460.452 219.833C451.841 218.077 458.374 211.685 455.573 205.702L444.851 209.647C443.92 209.487 441.865 206.183 441.28 205.164C430.806 186.726 424.041 159.69 414.796 139.399C404.282 116.325 391.771 93.9965 380.744 71.1711C378.32 68.8292 354.372 69.4147 349.364 69.2302C343.225 69.0137 336.042 67.8027 330.007 67.6984C321.46 67.554 319.22 74.2348 313.98 79.4479C312.551 80.8675 298.475 93.3549 299.093 94.2051C300.064 94.2211 300.866 94.7023 301.516 95.4001C314.004 108.786 322.078 127.657 331.636 143.112C332.43 144.275 332.374 144.002 333.169 143.112C336.026 139.904 345.375 120.094 348.441 120.696C351.146 121.225 347.037 124.938 347.639 126.31C356.346 137.618 365.238 148.967 373.585 160.54C388.247 180.879 405.992 201.908 409.932 227.276C417.934 227.709 426.248 226.586 433.671 223.498C436.858 222.167 440.188 219.392 443.021 218.389C445.854 217.387 445.694 220.539 444.353 222.143C443.824 222.768 439.081 225.592 437.957 226.177C429.924 230.347 418.648 232.729 409.86 230.572C410.695 236.018 405.061 251.825 407.404 255.683C408.134 256.886 412.516 258.803 413.062 261.041C395.888 261.859 407.099 238.873 407.372 229.441C407.797 214.965 391.353 191.554 383.215 179.788C371.258 162.489 358.104 145.951 346.042 128.716L334.581 147.668C336.708 155.102 341.844 161.583 342.061 169.595C338.072 175.209 329.854 178.866 325.705 183.766C313.434 198.267 299.807 236.531 283.042 243.789C276.926 246.436 265.193 248.826 258.468 249.708C200.636 257.295 146.89 253.149 89.2029 252.251C66.6755 251.898 43.6264 258.009 21.8373 256.213C-24.2288 252.419 14.4298 213.938 31.0425 199.67C43.0084 189.388 56.74 181.272 70.3752 173.605L69.8777 171.961C62.9758 168.488 57.0209 163.491 50.5604 159.337C47.9521 157.661 44.6296 156.69 42.0293 155.03C33.7069 149.705 27.2866 138.709 27.8483 128.7L30.9703 128.796C32.768 138.533 37.3505 149.183 46.6921 153.57L59.1155 107.887C52.5025 107.486 51.9969 103.059 49.6936 98.4317C49.4127 97.8703 49.6134 96.8758 48.3293 97.4292C47.912 97.6056 42.1658 102.666 41.4595 103.396C40.2557 104.647 37.7036 107.759 36.8128 109.179C34.8947 112.234 30.9943 124.61 30.3041 125.131C25.9303 128.451 27.9848 119.91 28.4101 118.426C33.0809 102.249 47.6792 90.2912 64.3642 88.631C65.576 83.2094 69.2356 64.7871 74.9658 63.0708C83.7697 60.4401 78.6334 78.1727 77.6142 82.1748C83.9302 79.7928 86.2416 82.3512 84.8371 88.5909C86.4743 87.6766 91.2173 86.8586 91.9717 89.1123C92.6459 93.0903 90.3586 95.5043 88.0393 98.2071C90.8482 98.6001 93.1675 102.53 95.6795 103.011C100.679 103.974 104.427 101.431 108.954 101.768C111.313 104.094 107.934 114.143 110.109 115.058C115.398 105.441 123.616 96.6673 132.243 89.8661C137.099 86.0325 150.838 76.4083 156.673 76.4885C163.366 76.5847 166.6 89.7619 167.764 95.1354C171.111 110.59 172.066 127 169.795 142.623C169.016 147.972 167.756 153.217 166.287 158.366C187.017 157.508 207.659 155.76 228.388 157.476C229.825 155.022 227.401 153.57 227.666 150.811C227.899 148.437 230.692 146.97 230.122 144.379L218.052 84.5809C219.761 84.252 219.922 85.3748 220.507 86.5298C223.469 92.3845 234.271 144.026 233.139 148.967C232.273 152.736 230.908 149.705 232.321 154.942C232.586 155.928 232.321 158.046 232.562 158.302C232.698 158.447 236.101 158.888 236.558 158.727C237.273 158.471 245.988 149.416 247.361 147.948C257.85 136.712 266.606 123.872 276.661 112.266C280.257 108.12 285.056 104.904 287.721 100.004C287.624 93.0983 284.823 86.6501 286.276 79.7687C272.641 79.5522 259.439 79.5602 245.948 81.5813C239.817 82.4956 229.448 86.1127 223.958 86.1528C222.738 86.1608 221.976 86.0084 221.173 85.022C219.247 69.3265 214.175 53.6631 215.62 37.6308C216.005 33.34 219.609 25.1033 223.461 23.01C234.415 17.059 252.344 20.8285 264.174 21.2536C287.616 22.0957 308.049 22.2401 331.387 26.2662C344.428 28.5199 357.325 32.6021 370.359 34.6392C373.248 35.0884 378.745 36.147 381.362 35.6337C385.31 34.8638 386.883 26.98 392.998 31.6397C401.104 12.7522 417.588 -13.1048 439.225 7.60324C440.044 8.76617 438.382 9.55215 438.342 10.3702C437.62 25.6246 428.672 45.1858 421.786 59.197C419.651 63.5359 415.277 74.1867 410.165 74.708C406.256 75.101 384.885 69.8558 383.376 70.9466L383.344 70.9947ZM404.09 70.1044C406.882 66.0462 408.969 62.6377 411.024 58.1464C418.487 41.8173 423.792 24.3654 430.389 7.67543C430.67 5.91099 424.538 3.80168 422.974 3.65732C416.12 3.00769 409.579 10.2018 405.823 15.2545C408.006 16.5217 417.821 19.0721 414.226 22.8656L403.48 18.8956L400.205 25.2637C402.846 24.8226 409.001 28.3514 408.231 31.2708C407.179 35.2648 401.233 28.0386 399.082 28.5519C391.819 35.3851 401.096 34.0859 402.621 40.1411C400.069 46.1402 395.719 37.2057 393.737 36.139C393.504 36.0107 388.817 34.9119 388.552 34.92C387.429 34.92 385.495 36.5561 385.76 37.6949L391.361 41.7211C387.662 47.1347 383.577 39.5075 380.527 38.93C378.135 38.4729 375.078 39.2268 372.534 38.898C354.043 36.548 335.055 30.3324 316.235 27.79C296.067 25.0632 272.609 24.2852 252.176 23.6356C245.651 23.427 228.677 22.4646 224.44 27.2607C212.498 40.7747 222.578 65.4848 223.653 81.4209C240.988 78.7903 258.099 74.4434 275.819 75.7907C274.487 72.9837 273.235 69.4789 274.936 66.4954C278.467 62.0682 307.503 62.7499 313.996 62.9665C335.793 63.6803 357.991 65.7575 379.748 66.9766C381.835 67.0969 383.946 66.9525 386.032 67.0167C388.288 62.4773 390.35 56.5022 389.708 51.4094C389.323 48.3858 386.482 46.1562 390.174 43.7421C396.265 50.1984 392.268 60.7369 388.97 67.7786L404.09 70.1125V70.1044ZM436.296 10.0654L433.11 8.42932C428.72 25.0551 420.975 40.4699 415.028 56.5343L407.42 70.9786L411.385 71.7726C418.038 57.3123 426.176 42.1541 431.304 27.0762C433.23 21.422 433.607 15.3989 436.296 10.0574V10.0654ZM320.745 66.9846C310.738 67.0327 300.698 65.4688 290.666 66.1826C284.687 66.6076 274.519 67.3134 278.339 75.6785C280.859 76.3602 286.348 75.8629 287.793 77.86L290.65 96.6512L320.745 66.9846ZM73.3687 85.2385C73.6737 84.7332 75.7122 75.0689 75.8807 73.7135C76.1295 71.7486 75.9288 69.7516 75.9609 67.7866C74.2435 68.6849 73.6496 71.4598 72.9594 73.2002C70.8889 78.4615 68.8825 84.9177 68.3368 90.2351C68.8825 88.5268 73.0798 85.7117 73.3687 85.2385ZM163.446 159.217C163.824 153.57 165.726 148.245 166.56 142.671C168.791 127.673 168.334 113.814 165.637 98.8888C164.995 95.3519 161.071 78.9828 156.633 79.2875C139.434 88.5589 123.873 100.838 112.059 116.317L125.639 129.213L128.134 137.562C129.427 132.814 134.097 130.32 136.954 126.727C138.479 124.802 142.757 119.276 143.736 117.464C144.892 115.322 144.394 112.331 146.593 111.104C149.081 128.724 126.85 135.902 124.13 151.998C132.998 150.827 146.344 152.303 154.803 155.431C158.278 156.714 159.971 159.489 163.446 159.225V159.217ZM80.7842 84.629C71.0494 87.829 67.9997 98.5359 64.7494 107.077L86.7793 94.2131L88.0072 91.0371C85.134 91.4301 82.8628 92.4647 80.0539 90.9569L80.7842 84.621V84.629ZM63.9308 91.8471C62.9276 91.1173 52.9199 94.7745 52.2618 95.8332C49.8301 99.7229 57.2215 106.38 61.5232 105.473L63.9388 91.8471H63.9308ZM339.95 167.165C327.246 142.759 315.449 116.549 297.07 95.8733C290.786 103.926 283.226 110.959 276.629 118.731C264.495 133.007 254.078 149.055 239.688 161.222C259.142 183.478 274.398 215.438 262.962 245.016C263.949 245.722 278.098 242.418 280 241.6C295.586 234.887 310.914 194.946 322.824 180.935C327.166 175.818 334.718 171.455 339.95 167.165ZM107.26 106.283L95.8159 108.561C91.3217 106.283 88.1516 99.4904 82.3653 101.03C78.3285 102.105 65.568 109.716 63.1282 113.069C60.6484 116.477 59.7897 122.34 58.313 126.326C62.735 125.508 88.9863 137.69 90.3506 136.704C91.7229 133.167 94.2189 129.422 96.5061 126.406C98.2236 124.136 105.294 117.472 105.727 116.405C106.265 115.09 107.694 106.773 107.268 106.291L107.26 106.283ZM81.5788 176.051C82.4214 173.003 83.0153 169.579 81.956 166.467C81.7313 165.793 76.4264 159.008 75.985 158.8C74.3077 157.998 71.6994 158.599 69.5245 158.038C62.2133 156.137 58.9711 143.104 66.4026 140.361C69.1554 139.343 81.4423 145.879 84.821 147.571C89.1468 149.737 100.471 157.332 104.058 158.078C107.966 158.896 118.383 148.141 120.462 144.724C128.801 131.026 117.123 126.398 108.48 118.346L90.7519 139.832L57.5265 127.93L50.432 156.658L81.5788 176.051ZM115.069 163.459C113.103 161.895 103.817 160.668 100.31 159.353C90.5191 155.688 80.6478 148.149 71.1698 143.489C65.3754 142.326 65.881 148.71 68.0719 152.271C72.1087 158.816 76.8678 152.496 82.3893 152.8C82.9993 155.575 80.7521 155.736 79.1872 157.22V158.399C86.7391 163.066 89.1307 170.525 84.8291 178.906C87.5176 180.462 89.0745 184.993 89.6283 188.097C90.7599 188.346 90.9445 187.929 91.6507 187.311C94.0102 185.234 97.092 180.478 99.612 178C104.186 173.501 110.535 168.56 116.907 167.237C117.324 166.78 115.542 163.844 115.077 163.475L115.069 163.459ZM147.396 160.821C138.744 159.658 130.414 160.845 121.971 162.93C121.449 163.058 120.703 162.625 120.165 162.457L119.314 165.617L126.337 163.419L147.396 160.821ZM47.8799 214.54C52.4223 206.969 63.7703 208.685 69.5245 206.103C70.7685 205.541 75.0621 200.881 77.3172 199.454C80.4873 197.441 88.7776 195.628 87.6781 191.289C87.5256 190.68 82.4535 181.553 81.9319 180.927C81.0411 179.86 74.4201 175.153 73.2885 175.377C64.7253 182.964 54.1558 187.672 44.9024 194.321C31.7648 203.761 10.8986 222.608 4.67084 237.526C3.5232 240.276 2.47186 241.921 3.30651 245.04C5.12026 251.858 10.2164 251.497 16.2034 252.235C34.1804 254.44 53.594 250.919 71.5791 249.042C76.0573 248.577 79.5323 250.238 83.6092 247.43C95.0214 239.563 88.89 222.287 80.0058 214.941C68.9949 205.83 60.0384 213.168 47.8959 214.54H47.8799Z" fill="#190D00"/>
<path d="M292.648 161.615C291.436 161.671 291.645 160.091 290.666 159.201C289.358 158.014 279.39 151.076 278.226 150.731C271.822 148.814 265.514 160.003 261.766 164.037C259.391 166.595 256.598 168.408 254.15 170.846C257.97 174.688 262.489 178.473 263.757 184.079C260.37 180.614 250.226 172.811 253.291 167.59C261.036 162.561 268.355 143.954 278.981 147.619C279.527 147.812 287.6 153.282 288.587 154.052C291.059 155.984 293.09 158.238 292.648 161.615Z" fill="#190D00"/>
<path d="M293.459 164.831C293.049 173.468 282.817 182.355 276.188 187.263C274.406 188.578 272.577 190.672 270.193 190.487C267.753 187.832 279.976 179.628 281.846 177.679L293.459 164.831Z" fill="#190D00"/>
<path d="M114.491 126.334C112.477 131.523 105.463 135.156 100.053 134.338L111 127.24L114.491 126.326V126.334Z" fill="#190D00"/>
<path d="M91.2173 111.095C90.6074 115.354 85.6316 115.354 82.3973 115.09L87.7423 112.026L91.2173 111.095Z" fill="#190D00"/>
<path d="M77.566 151.188C73.9947 147.988 73.2644 152.832 69.5486 151.18L71.9642 148.381L69.5486 146.384C71.5228 144.9 78.7859 149.913 77.566 151.188Z" fill="#190D00"/>
</g>
<defs>
<clipPath id="clip0_872_4136">
<rect width="507" height="264" fill="white"/>
</clipPath>
</defs>
</svg>
