<svg width="562" height="456" viewBox="0 0 562 456" fill="none" xmlns="http://www.w3.org/2000/svg">
<g clip-path="url(#clip0_981_3889)">
<mask id="mask0_981_3889" style="mask-type:alpha" maskUnits="userSpaceOnUse" x="40" y="183" width="221" height="324">
<rect x="40.7593" y="193.707" width="203.345" height="312.753" transform="rotate(-2.97158 40.7593 193.707)" fill="#D9D9D9"/>
</mask>
<g mask="url(#mask0_981_3889)">
<path d="M220.946 348.242C217.826 356.002 188.513 427.042 146.228 438.277C140.518 439.795 139.604 438.887 111.061 443.784C89.5646 447.477 76.2225 450.371 70.8558 443.458C69.4491 441.644 69.0876 439.798 68.8052 438.27C64.8147 416.481 101.753 389.388 119.612 376.288C125.445 372.014 130.315 368.769 133.225 366.879C130.411 362.936 125.842 357.698 118.873 353.932C110.104 349.202 105.66 351.187 99.5473 346.906C88.5942 339.234 88.4246 322.723 88.4287 321.297C88.4752 306.991 97.5388 292.562 108.36 289.416C112.178 288.309 114.823 289.002 117.89 286.383C121.272 283.505 120.959 280.192 124.606 270.822C126.722 265.386 129.383 259.906 130.343 260.185C131.842 260.616 128.087 274.825 132.363 276.968C133.71 277.642 135.277 276.817 136.42 278.066C137.802 279.561 136.505 281.821 137.721 282.816C139.174 284.009 141.943 281.531 143.175 282.533C144.602 283.688 141.436 287.409 142.474 291.459C143.454 295.286 147.928 298.399 152.033 298.765C157.402 299.246 160.12 294.86 162.708 296.096C164.294 296.86 165.754 299.698 164.507 309.538C168.916 301.461 177.199 288.999 191.651 278.747C197.928 274.293 204.018 271.212 209.281 269.059C210.277 269.587 211.697 270.437 213.2 271.714C219.951 277.435 222.86 286.973 222.686 314.32C222.629 323.323 222.227 334.827 220.946 348.226L220.946 348.242Z" fill="#E9F3FB"/>
<path d="M428.984 249.578C433.517 256.682 438.554 263.721 442.739 271.04C460.236 301.683 473.305 331.593 488.421 363.175C489.446 365.323 494.699 376.659 496.115 376.695C499.113 375.31 505.507 371.304 508.05 374.391C510.593 377.479 509.413 384.7 511.047 385.923C523.682 390.014 538.856 389.61 551.441 393.046C553.097 393.5 554.445 393.422 555.636 394.99C560.081 400.853 553.986 417.533 549.694 423.059C539.01 426.128 527.906 428.796 516.892 430.644C508.318 432.084 497.547 433.622 488.964 434.444C486.406 434.686 473.493 435.748 472.525 434.569L472.059 432.212C477.112 430.375 482.687 431.214 487.982 430.578C508.17 428.175 528.062 424.135 548.01 420.412L547.889 418.077C537.296 419.449 527.117 422.774 516.567 424.387C510.723 425.285 503.888 425.452 497.924 426.154C486.906 427.446 474 431.375 463.231 427.555L549.551 414.888C550.691 414.563 553.907 403.383 554.012 401.63C554.278 397.277 553.975 397.019 549.927 396.391C544.69 395.581 539.162 395.359 533.895 394.575L532.798 395.87C532.887 399.241 532.815 402.966 530.454 405.642C527.231 403.898 530.71 394.318 529.409 393.187L523.929 392.68C524.326 395.659 523.72 399.333 522.254 401.947C521.882 402.609 521.818 404.085 520.56 403.03C518.388 401.208 521.358 392.665 520.764 392.061L514.917 391.542C514.377 391.664 513.868 401.591 510.31 401.212C508.075 397.302 511.108 394.614 511.372 390.669C502.923 389.392 508.942 382.836 505.92 377.15L495.71 381.533C494.798 381.424 492.636 378.309 492.016 377.347C480.915 359.914 472.98 333.921 462.978 314.622C451.604 292.677 438.328 271.558 426.469 249.881C423.997 247.722 400.777 249.499 395.905 249.572C389.934 249.67 382.899 248.853 377.034 249.055C368.729 249.346 366.893 255.966 362.069 261.308C360.754 262.763 347.718 275.635 348.361 276.432C349.305 276.399 350.108 276.827 350.775 277.474C363.575 289.883 372.368 307.858 382.429 322.43C383.259 323.523 383.191 323.26 383.917 322.353C386.529 319.084 394.605 299.317 397.611 299.749C400.264 300.128 396.462 303.952 397.116 305.258C406.142 315.834 415.349 326.44 424.037 337.292C439.301 356.364 457.591 375.953 462.7 400.464C470.49 400.483 478.505 398.97 485.556 395.588C488.582 394.131 491.676 391.26 494.375 390.141C497.075 389.022 497.079 392.1 495.859 393.73C495.376 394.366 490.914 397.355 489.853 397.982C482.264 402.449 471.437 405.337 462.796 403.679C463.882 408.941 459.212 424.623 461.682 428.262C462.452 429.397 466.803 431.043 467.446 433.195C450.813 434.858 460.536 411.903 460.324 402.703C460.005 388.58 442.856 366.606 434.36 355.555C421.876 339.307 408.27 323.862 395.687 307.682L385.519 326.719C387.96 333.854 393.274 339.907 393.89 347.7C390.301 353.37 382.507 357.346 378.727 362.329C367.547 377.071 356.251 415.029 340.342 422.944C334.538 425.831 323.268 428.75 316.783 429.948C261.02 440.253 208.63 438.923 152.579 440.955C130.69 441.747 108.621 448.861 87.3763 448.209C42.4606 446.836 78.0471 407.405 93.4543 392.67C104.552 382.052 117.473 373.454 130.323 365.299L129.757 363.722C122.88 360.688 116.846 356.121 110.364 352.4C107.747 350.898 104.472 350.121 101.864 348.635C93.5147 343.867 86.7254 333.48 86.7647 323.702L89.8005 323.639C92.0381 333.032 97.0257 343.175 106.317 346.978L116.068 301.854C109.628 301.797 108.913 297.51 106.443 293.118C106.142 292.586 106.286 291.607 105.068 292.211C104.672 292.404 99.3486 297.623 98.6998 298.369C97.5944 299.648 95.274 302.808 94.4809 304.236C92.7732 307.309 89.6122 319.56 88.9685 320.102C84.8899 323.557 86.4527 315.133 86.7906 313.667C90.5074 297.674 104.076 285.291 120.191 282.833C121.093 277.491 123.714 259.362 129.191 257.401C137.605 254.395 133.515 271.927 132.728 275.876C138.74 273.238 141.113 275.613 140.065 281.762C141.608 280.789 146.172 279.753 147.018 281.91C147.874 285.751 145.775 288.218 143.66 290.967C146.407 291.208 148.857 294.919 151.321 295.262C156.223 295.947 159.733 293.282 164.145 293.382C166.553 295.528 163.781 305.487 165.939 306.268C170.587 296.635 178.122 287.674 186.154 280.615C190.675 276.636 203.527 266.569 209.196 266.353C215.699 266.11 219.505 278.782 220.907 283.957C224.937 298.842 226.694 314.778 225.279 330.11C224.794 335.36 223.836 340.533 222.67 345.622C242.752 343.741 262.704 340.998 282.917 341.625C284.187 339.162 281.761 337.87 281.878 335.17C281.984 332.846 284.621 331.275 283.937 328.781L269.195 271.142C270.838 270.736 271.051 271.821 271.678 272.917C274.849 278.47 287.948 328.228 287.099 333.097C286.448 336.812 284.97 333.928 286.606 338.958C286.913 339.906 286.763 341.982 287.01 342.219C287.15 342.353 290.476 342.611 290.912 342.432C291.592 342.146 299.596 332.887 300.854 331.388C310.47 319.915 318.321 306.967 327.497 295.156C330.778 290.936 335.275 287.561 337.614 282.654C337.171 275.932 334.126 269.793 335.188 263.017C321.939 263.493 309.123 264.166 296.127 266.815C290.22 268.014 280.337 272.06 275.009 272.376C273.825 272.445 273.077 272.335 272.248 271.414C269.585 256.223 263.868 241.222 264.46 225.533C264.617 221.334 267.699 213.129 271.333 210.896C281.668 204.548 299.265 207.316 310.771 207.134C333.573 206.772 353.418 205.883 376.28 208.629C389.055 210.167 401.782 213.493 414.539 214.82C417.367 215.112 422.758 215.866 425.272 215.235C429.066 214.286 430.195 206.527 436.368 210.758C443.282 191.952 457.979 165.935 480.032 185.015C480.885 186.107 479.312 186.956 479.315 187.755C479.385 202.65 471.686 222.154 465.709 236.149C463.856 240.483 460.148 251.078 455.211 251.843C451.437 252.423 430.423 248.391 429.013 249.53L428.984 249.578ZM449.08 247.665C451.587 243.572 453.44 240.147 455.208 235.668C461.628 219.387 465.896 202.12 471.457 185.531C471.64 183.798 465.581 182.052 464.054 181.991C457.367 181.703 451.381 189.04 447.99 194.151C450.173 195.276 459.832 197.265 456.533 201.141L445.899 197.816L443.042 204.184C445.583 203.621 451.738 206.748 451.137 209.631C450.319 213.574 444.18 206.835 442.117 207.443C435.412 214.465 444.353 212.732 446.14 218.554C443.965 224.526 439.29 216.042 437.312 215.103C437.079 214.99 432.474 214.156 432.217 214.177C431.126 214.234 429.331 215.925 429.646 217.021L435.288 220.66C431.97 226.12 427.618 218.896 424.628 218.487C422.283 218.163 419.352 219.051 416.866 218.859C398.795 217.502 380.046 212.405 361.646 210.877C341.928 209.237 319.114 209.661 299.243 210.058C292.898 210.184 276.37 210.102 272.499 214.987C261.588 228.752 272.624 252.313 274.474 267.782C291.171 264.346 307.563 259.249 324.835 259.669C323.399 257.002 322.007 253.651 323.508 250.659C326.712 246.169 354.937 245.37 361.251 245.253C382.449 244.85 404.106 245.755 425.29 245.845C427.322 245.858 429.364 245.611 431.393 245.568C433.353 241.033 435.053 235.109 434.173 230.18C433.646 227.255 430.775 225.226 434.237 222.689C440.477 228.67 437.13 239.137 434.283 246.162L449.081 247.673L449.08 247.665ZM477.312 187.561L474.136 186.128C470.715 202.544 463.976 217.949 459.014 233.896L452.358 248.349L456.247 248.923C461.975 234.502 469.11 219.327 473.326 204.382C474.91 198.778 474.972 192.892 477.312 187.553L477.312 187.561ZM368.007 248.827C358.293 249.378 348.467 248.361 338.763 249.562C332.98 250.277 323.144 251.477 327.276 259.432C329.757 259.969 335.061 259.208 336.564 261.081L340.288 279.241L368.007 248.827ZM128.761 279.074C129.032 278.567 130.522 269.051 130.617 267.722C130.759 265.795 130.464 263.86 130.395 261.945C128.773 262.906 128.337 265.639 127.755 267.369C126.011 272.598 124.389 278.988 124.128 284.195C124.572 282.503 128.505 279.55 128.761 279.074ZM219.955 346.593C220.036 341.075 221.613 335.792 222.141 330.32C223.549 315.599 222.404 302.123 219.032 287.72C218.229 284.308 213.592 268.561 209.298 269.082C193.07 278.979 178.583 291.724 167.896 307.396L181.731 319.274L184.577 327.28C185.591 322.591 190 319.926 192.592 316.282C193.975 314.33 197.849 308.732 198.707 306.917C199.721 304.773 199.087 301.884 201.16 300.578C204.466 317.616 183.246 325.728 181.419 341.544C189.969 339.956 203.001 340.721 211.372 343.342C214.81 344.416 216.595 347.034 219.955 346.601L219.955 346.593ZM135.93 278.107C126.64 281.715 124.221 292.297 121.497 300.781L142.235 287.14L143.266 283.985C140.497 284.512 138.344 285.635 135.541 284.308L135.929 278.099L135.93 278.107ZM119.932 285.987C118.922 285.327 109.39 289.394 108.805 290.458C106.641 294.369 114.153 300.481 118.284 299.381L119.94 285.987L119.932 285.987ZM391.718 345.44C378.149 322.308 365.371 297.373 346.482 278.159C340.789 286.319 333.805 293.551 327.793 301.454C316.734 315.971 307.432 332.128 294.076 344.704C314.089 365.402 330.517 395.764 320.909 425.152C321.903 425.789 335.473 421.858 337.278 420.965C352.07 413.641 364.932 373.964 375.787 359.716C379.743 354.513 386.854 349.883 391.718 345.44ZM162.729 297.865L151.734 300.661C147.255 298.669 143.834 292.211 138.294 294.003C134.429 295.253 122.425 303.31 120.226 306.698C117.991 310.144 117.454 315.897 116.222 319.854C120.473 318.835 146.576 329.378 147.85 328.349C149.004 324.834 151.238 321.06 153.306 318.008C154.859 315.71 161.386 308.862 161.753 307.801C162.208 306.493 163.175 298.32 162.737 297.873L162.729 297.865ZM141.324 367.117C141.988 364.106 142.391 360.74 141.205 357.762C140.953 357.117 135.46 350.776 135.021 350.595C133.352 349.898 130.85 350.616 128.71 350.178C121.516 348.695 117.709 336.164 124.785 333.118C127.406 331.987 139.666 337.735 143.032 339.213C147.341 341.104 158.719 347.931 162.239 348.477C166.075 349.077 175.645 338.076 177.49 334.643C184.893 320.88 173.322 316.961 164.523 309.553L148.398 331.375L115.539 321.457L110.104 349.797L141.324 367.117ZM173.202 353.164C171.213 351.74 162.137 351.012 158.665 349.908C148.974 346.831 139.009 339.986 129.572 335.924C123.887 335.084 124.701 341.277 127.008 344.635C131.258 350.806 135.559 344.41 140.935 344.429C141.668 347.101 139.494 347.37 138.05 348.895L138.109 350.043C145.677 354.209 148.376 361.354 144.624 369.734C147.313 371.114 149.053 375.45 149.748 378.445C150.859 378.63 151.017 378.214 151.672 377.577C153.857 375.435 156.609 370.647 158.93 368.106C163.144 363.493 169.057 358.361 175.177 356.751C175.559 356.285 173.681 353.515 173.21 353.179L173.202 353.164ZM204.453 348.965C195.995 348.268 187.967 349.844 179.876 352.301C179.376 352.452 178.629 352.068 178.098 351.931L177.432 355.052L184.139 352.557L204.453 348.965ZM110.553 406.305C114.58 398.702 125.684 399.802 131.14 396.996C132.32 396.387 136.253 391.631 138.37 390.127C141.346 388.007 149.303 385.823 148.016 381.652C147.837 381.066 142.451 372.432 141.913 371.849C140.994 370.855 134.328 366.603 133.241 366.878C125.311 374.7 115.287 379.819 106.64 386.761C94.3623 396.618 75.0571 416.028 69.7651 430.872C68.79 433.61 67.8525 435.264 68.8205 438.261C70.9261 444.81 75.8556 444.202 81.7054 444.619C99.2702 445.861 117.94 441.453 135.306 438.718C139.63 438.04 143.088 439.482 146.904 436.542C157.586 428.303 150.76 411.785 141.763 405.077C130.612 396.757 122.288 404.357 110.569 406.305L110.553 406.305Z" fill="#12416D"/>
<path d="M170.763 317.031C169.069 322.187 162.443 326.079 157.15 325.555L167.419 318.09L170.762 317.023L170.763 317.031Z" fill="#1A5B99"/>
<path d="M147.396 303.361C147.02 307.54 142.189 307.791 139.035 307.696L144.07 304.442L147.396 303.361Z" fill="#1A5B99"/>
<path d="M136.17 343.101C132.541 340.164 132.077 344.92 128.386 343.498L130.59 340.649L128.144 338.826C129.985 337.281 137.29 341.798 136.17 343.101Z" fill="#1A5B99"/>
</g>
<path d="M411.083 356.565C378.731 418.657 246.406 473.205 130.63 395.276C63.2629 349.931 32.9854 284.317 78.029 217.398C128.715 142.097 278.93 159.617 347.355 193.477C417.015 227.949 447.183 287.28 411.083 356.565Z" fill="#92C1ED"/>
<mask id="mask1_981_3889" style="mask-type:alpha" maskUnits="userSpaceOnUse" x="56" y="169" width="371" height="271">
<path d="M411.369 362.083C379.017 424.175 246.692 478.723 130.916 400.794C63.549 355.448 33.2715 289.835 78.3152 222.916C129.001 147.615 279.216 165.134 347.641 198.994C417.301 233.466 447.469 292.798 411.369 362.083Z" fill="#92C1ED"/>
</mask>
<g mask="url(#mask1_981_3889)">
<path d="M482.995 380.927C488.199 378.915 494.086 377.12 495.351 378.972C497.11 381.531 489.636 390.572 481.947 395.913C477.443 399.042 467.402 404.696 450.763 403.895C447.471 393.731 444.186 383.575 440.894 373.412L388.99 308.885C384.632 315.733 380.283 322.581 375.926 329.429L339.506 282.445C347.698 272.533 355.891 262.621 364.084 252.71L417.49 249.937C428.766 269.715 440.101 290.757 451.28 313.052C463.003 336.427 473.529 359.115 482.994 380.919L482.995 380.927Z" fill="#E9F3FB"/>
<path d="M318.321 264.419C301.907 267.058 285.5 269.697 269.086 272.336C266.236 259.37 263.386 246.404 260.536 233.437C261.6 223.911 265.832 220.109 267.597 218.788C270.479 216.637 273.808 215.868 287.623 215.686C295.927 215.576 300.079 215.52 304.908 215.835C324.986 217.13 326.617 214.7 346.929 215.494C371.926 216.473 367.798 220.086 387.552 219.977C388.277 219.97 397.168 221.456 414.945 224.322C421.323 225.35 424.676 225.94 426.848 228.646C432.255 235.4 425.117 248.846 423.763 251.323C403.166 250.33 380.698 250.251 356.635 251.653C343.088 252.44 330.135 253.639 317.831 255.118L318.314 264.419L318.321 264.419Z" fill="#E9F3FB"/>
<path d="M216.76 350.798C213.708 358.365 185.042 427.64 143.701 438.6C138.118 440.082 137.225 439.196 109.319 443.975C88.3033 447.579 75.2591 450.402 70.0133 443.663C68.6383 441.894 68.2852 440.094 68.0093 438.604C64.1109 417.359 100.226 390.936 117.688 378.16C123.391 373.991 128.153 370.826 130.998 368.983C128.248 365.139 123.782 360.032 116.969 356.36C108.396 351.749 104.052 353.685 98.0761 349.512C87.3689 342.033 87.2053 325.933 87.2095 324.542C87.2569 310.593 96.1197 296.522 106.699 293.452C110.432 292.373 113.018 293.048 116.017 290.494C119.323 287.687 119.018 284.457 122.584 275.32C124.654 270.019 127.256 264.675 128.195 264.947C129.66 265.367 125.987 279.222 130.167 281.312C131.484 281.969 133.016 281.164 134.133 282.382C135.484 283.839 134.216 286.043 135.405 287.013C136.825 288.176 139.533 285.76 140.737 286.736C142.132 287.863 139.036 291.491 140.051 295.441C141.008 299.172 145.382 302.206 149.395 302.563C154.644 303.032 157.301 298.754 159.831 299.959C161.382 300.704 162.808 303.471 161.588 313.066C165.899 305.189 173.999 293.037 188.129 283.039C194.266 278.695 200.221 275.689 205.366 273.589C206.34 274.104 207.728 274.933 209.198 276.178C215.796 281.755 218.639 291.056 218.465 317.721C218.409 326.5 218.014 337.718 216.759 350.783L216.76 350.798Z" fill="#E9F3FB"/>
<path d="M343.758 335.231C321.787 340.007 299.809 344.791 277.838 349.567C277.94 345.781 277.957 340.22 277.478 333.508C277.025 327.124 276.187 320.56 272.539 302.365C271.147 295.418 269.276 286.434 266.897 275.917C275.58 271.923 288.928 267.166 305.677 266.396C314.074 266.014 321.496 266.713 327.638 267.761C333.014 290.251 338.39 312.741 343.766 335.231L343.758 335.231Z" fill="#92C1ED"/>
<path d="M328.278 425.162L272.419 428.062L268.37 350.067C273.361 349.541 280.605 348.134 288.089 343.987C299.203 337.827 304.221 329.279 312.479 317.386C318.491 308.726 327.38 296.624 339.506 282.452C346.915 289.522 355.327 298.694 363.472 310.217C373.504 324.407 380.14 337.918 384.55 348.871C379.74 353.467 374.776 358.773 369.899 364.877C355.311 383.133 347.08 401.578 342.28 415.934C337.613 419.01 332.946 422.094 328.278 425.17L328.278 425.162Z" fill="#92C1ED"/>
<path d="M467.773 200.988C461.263 218.9 454.761 236.805 448.251 254.718C430.2 256.732 425.019 254.175 423.771 251.315C422.072 247.423 427.947 243.643 426.835 236.04C425.749 228.649 419.215 225.506 420.616 222.171C421.234 220.696 423.408 219.17 430.474 219.185C430.797 215.548 431.802 209.454 435.371 202.868C438.388 197.289 442.08 193.515 444.652 191.266C445.598 190.208 448.557 187.19 453.287 186.494C461.489 185.289 467.096 192.224 467.342 192.539L467.781 200.995L467.773 200.988Z" fill="#3B8FDE"/>
<path d="M420.159 254.565C424.59 261.491 429.514 268.354 433.604 275.49C450.705 305.368 463.478 334.531 478.252 365.324C479.254 367.418 484.388 378.471 485.772 378.506C488.704 377.155 494.955 373.248 497.441 376.258C499.926 379.269 498.772 386.31 500.369 387.502C512.72 391.49 527.556 391.094 539.859 394.442C541.478 394.885 542.795 394.809 543.959 396.337C548.304 402.054 542.343 418.319 538.147 423.708C527.701 426.702 516.845 429.305 506.078 431.109C497.695 432.514 487.164 434.015 478.773 434.818C476.273 435.054 463.648 436.092 462.702 434.942L462.247 432.643C467.187 430.852 472.637 431.669 477.814 431.048C497.551 428.703 516.999 424.76 536.501 421.128L536.382 418.85C526.026 420.19 516.074 423.433 505.761 425.007C500.047 425.884 493.365 426.048 487.534 426.733C476.762 427.994 464.144 431.827 453.617 428.104L538.008 415.741C539.122 415.424 542.268 404.521 542.371 402.813C542.632 398.568 542.336 398.316 538.378 397.704C533.258 396.916 527.854 396.7 522.705 395.936L521.632 397.198C521.719 400.486 521.648 404.118 519.339 406.728C516.188 405.027 519.591 395.685 518.319 394.583L512.962 394.089C513.35 396.994 512.757 400.577 511.323 403.126C510.96 403.771 510.897 405.21 509.667 404.182C507.543 402.406 510.449 394.075 509.868 393.486L504.152 392.981C503.623 393.1 503.125 402.78 499.646 402.411C497.462 398.598 500.427 395.977 500.686 392.13C492.426 390.886 498.311 384.493 495.358 378.948L485.375 383.224C484.484 383.118 482.371 380.081 481.764 379.142C470.915 362.146 463.16 336.801 453.384 317.984C442.268 296.587 429.292 275.996 417.7 254.86C415.284 252.755 392.582 254.491 387.82 254.563C381.982 254.66 375.105 253.864 369.371 254.062C361.252 254.346 359.456 260.802 354.739 266.011C353.453 267.43 340.707 279.984 341.336 280.761C342.258 280.728 343.044 281.146 343.695 281.776C356.208 293.874 364.801 311.4 374.636 325.608C375.447 326.674 375.38 326.417 376.091 325.533C378.644 322.345 386.542 303.069 389.481 303.49C392.075 303.859 388.358 307.588 388.996 308.861C397.819 319.173 406.819 329.513 415.311 340.094C430.231 358.689 448.11 377.788 453.101 401.688C460.717 401.705 468.553 400.229 475.447 396.93C478.406 395.509 481.43 392.709 484.07 391.617C486.709 390.526 486.712 393.527 485.519 395.117C485.047 395.737 480.684 398.652 479.647 399.263C472.227 403.62 461.642 406.438 453.195 404.822C454.256 409.953 449.688 425.245 452.102 428.793C452.855 429.9 457.108 431.505 457.737 433.603C441.476 435.226 450.984 412.842 450.778 403.871C450.468 390.1 433.705 368.675 425.401 357.901C413.198 342.06 399.898 327.001 387.599 311.225L377.656 329.79C380.041 336.746 385.236 342.648 385.836 350.247C382.327 355.776 374.707 359.655 371.011 364.513C360.079 378.89 349.031 415.904 333.476 423.624C327.802 426.439 316.783 429.287 310.443 430.457C255.926 440.512 204.708 439.222 149.909 441.211C128.51 441.986 106.934 448.926 86.164 448.293C42.2529 446.96 77.0489 408.507 92.1135 394.137C102.964 383.782 115.597 375.396 128.161 367.442L127.608 365.905C120.886 362.947 114.987 358.495 108.65 354.867C106.092 353.404 102.891 352.646 100.341 351.197C92.179 346.549 85.5429 336.422 85.5826 326.888L88.5506 326.825C90.7369 335.984 95.6116 345.874 104.695 349.581L114.234 305.58C107.937 305.525 107.239 301.345 104.825 297.063C104.531 296.544 104.672 295.589 103.481 296.178C103.093 296.366 97.8886 301.456 97.2542 302.184C96.1733 303.432 93.9044 306.513 93.1289 307.905C91.4589 310.902 88.367 322.848 87.7376 323.377C83.7498 326.746 85.2788 318.532 85.6093 317.102C89.2451 301.508 102.512 289.431 118.266 287.032C119.149 281.823 121.715 264.145 127.069 262.233C135.295 259.3 131.295 276.396 130.524 280.247C136.402 277.673 138.722 279.989 137.696 285.985C139.205 285.036 143.667 284.025 144.494 286.129C145.33 289.874 143.278 292.279 141.21 294.961C143.895 295.195 146.291 298.814 148.699 299.147C153.492 299.815 156.924 297.215 161.237 297.312C163.591 299.405 160.879 309.116 162.989 309.877C167.534 300.484 174.902 291.745 182.756 284.86C187.175 280.98 199.742 271.162 205.283 270.951C211.641 270.713 215.361 283.069 216.73 288.115C220.668 302.629 222.384 318.167 220.999 333.118C220.523 338.237 219.586 343.281 218.446 348.244C238.079 346.407 257.585 343.729 277.346 344.338C278.588 341.937 276.216 340.677 276.332 338.044C276.435 335.777 279.014 334.246 278.345 331.814L263.94 275.613C265.547 275.216 265.754 276.275 266.368 277.343C269.467 282.758 282.266 331.274 281.436 336.022C280.799 339.645 279.354 336.833 280.953 341.737C281.253 342.661 281.106 344.685 281.348 344.917C281.484 345.048 284.736 345.299 285.162 345.124C285.827 344.845 293.653 335.816 294.884 334.354C304.286 323.165 311.963 310.538 320.936 299.02C324.144 294.905 328.54 291.614 330.828 286.828C330.396 280.274 327.419 274.288 328.459 267.681C315.506 268.147 302.976 268.805 290.271 271.389C284.496 272.56 274.833 276.506 269.624 276.815C268.467 276.882 267.736 276.775 266.925 275.878C264.323 261.065 258.737 246.439 259.318 231.14C259.472 227.046 262.486 219.045 266.039 216.867C276.143 210.675 293.347 213.372 304.596 213.193C326.888 212.838 346.289 211.968 368.639 214.642C381.128 216.14 393.571 219.382 406.042 220.675C408.806 220.959 414.076 221.694 416.534 221.077C420.244 220.151 421.348 212.586 427.383 216.71C434.145 198.372 448.516 173.001 470.074 191.603C470.908 192.667 469.37 193.496 469.372 194.275C469.439 208.799 461.91 227.818 456.065 241.465C454.253 245.692 450.626 256.023 445.8 256.77C442.109 257.336 421.566 253.407 420.187 254.517L420.159 254.565ZM439.806 252.697C442.257 248.705 444.07 245.365 445.798 240.998C452.077 225.121 456.252 208.284 461.691 192.107C461.87 190.417 455.947 188.716 454.454 188.656C447.917 188.377 442.063 195.532 438.747 200.516C440.882 201.612 450.324 203.551 447.098 207.331L436.703 204.09L433.909 210.299C436.393 209.75 442.41 212.799 441.822 215.609C441.021 219.455 435.021 212.884 433.004 213.478C426.448 220.326 435.189 218.635 436.935 224.311C434.808 230.134 430.239 221.863 428.305 220.947C428.078 220.837 423.575 220.024 423.324 220.045C422.258 220.1 420.503 221.749 420.81 222.818L426.326 226.366C423.081 231.69 418.828 224.647 415.905 224.249C413.612 223.933 410.747 224.799 408.316 224.612C390.65 223.291 372.32 218.324 354.332 216.836C335.055 215.24 312.751 215.657 293.325 216.047C287.122 216.17 270.963 216.092 267.178 220.856C256.509 234.28 267.295 257.253 269.102 272.335C285.426 268.983 301.452 264.011 318.337 264.418C316.934 261.817 315.573 258.55 317.041 255.633C320.175 251.254 347.768 250.471 353.941 250.356C374.665 249.96 395.838 250.84 416.548 250.925C418.535 250.937 420.531 250.696 422.515 250.654C424.432 246.231 426.095 240.455 425.234 235.649C424.719 232.797 421.913 230.819 425.298 228.344C431.398 234.176 428.124 244.382 425.34 251.233L439.807 252.705L439.806 252.697ZM467.415 194.086L464.31 192.689C460.963 208.696 454.372 223.719 449.52 239.269L443.011 253.363L446.813 253.922C452.415 239.86 459.391 225.062 463.516 210.489C465.065 205.023 465.126 199.284 467.415 194.078L467.415 194.086ZM360.546 253.84C351.049 254.379 341.442 253.388 331.956 254.561C326.302 255.259 316.685 256.43 320.724 264.187C323.149 264.71 328.335 263.968 329.805 265.793L333.443 283.5L360.546 253.84ZM126.646 283.366C126.91 282.871 128.369 273.592 128.462 272.296C128.601 270.417 128.312 268.531 128.246 266.663C126.66 267.601 126.233 270.265 125.664 271.952C123.958 277.051 122.372 283.282 122.116 288.36C122.55 286.71 126.395 283.83 126.646 283.366ZM215.791 349.191C215.871 343.81 217.414 338.658 217.931 333.323C219.309 318.968 218.192 305.828 214.896 291.785C214.113 288.457 209.581 273.103 205.383 273.611C189.516 283.265 175.351 295.694 164.902 310.977L178.426 322.557L181.207 330.364C182.199 325.791 186.51 323.191 189.044 319.638C190.397 317.735 194.184 312.276 195.024 310.506C196.016 308.415 195.396 305.598 197.423 304.324C200.653 320.937 179.906 328.85 178.118 344.272C186.477 342.723 199.218 343.467 207.401 346.021C210.762 347.069 212.506 349.621 215.792 349.199L215.791 349.191ZM133.654 282.422C124.572 285.941 122.205 296.26 119.542 304.533L139.817 291.229L140.826 288.152C138.118 288.667 136.014 289.762 133.273 288.468L133.654 282.414L133.654 282.422ZM118.014 290.108C117.025 289.464 107.707 293.431 107.134 294.469C105.018 298.283 112.362 304.241 116.4 303.168L118.021 290.107L118.014 290.108ZM383.713 348.043C370.452 325.489 357.962 301.177 339.498 282.445C333.931 290.402 327.102 297.455 321.224 305.162C310.41 319.318 301.314 335.074 288.256 347.339C307.818 367.519 323.874 397.122 314.478 425.779C315.449 426.401 328.716 422.565 330.481 421.694C344.943 414.551 357.523 375.861 368.137 361.966C372.005 356.892 378.958 352.376 383.713 348.043ZM159.852 301.684L149.102 304.412C144.724 302.47 141.38 296.174 135.964 297.921C132.185 299.141 120.449 306.999 118.298 310.303C116.112 313.663 115.586 319.273 114.381 323.132C118.538 322.137 144.055 332.415 145.302 331.41C146.43 327.983 148.614 324.303 150.637 321.326C152.155 319.086 158.537 312.407 158.896 311.373C159.342 310.097 160.287 302.128 159.86 301.692L159.852 301.684ZM138.916 369.214C139.565 366.278 139.96 362.996 138.801 360.092C138.555 359.463 133.185 353.28 132.756 353.104C131.124 352.425 128.678 353.125 126.586 352.699C119.553 351.254 115.833 339.035 122.752 336.064C125.314 334.961 137.299 340.564 140.589 342.004C144.802 343.848 155.924 350.504 159.366 351.035C163.116 351.62 172.473 340.892 174.278 337.544C181.517 324.123 170.205 320.303 161.604 313.081L145.837 334.361L113.714 324.694L108.397 352.329L138.916 369.214ZM170.083 355.604C168.139 354.216 159.265 353.508 155.872 352.431C146.398 349.433 136.657 342.758 127.431 338.8C121.874 337.981 122.668 344.019 124.923 347.293C129.078 353.31 133.283 347.073 138.539 347.091C139.255 349.696 137.13 349.959 135.717 351.446L135.776 352.566C143.174 356.627 145.811 363.593 142.142 371.765C144.77 373.111 146.471 377.338 147.15 380.258C148.236 380.439 148.391 380.034 149.031 379.412C151.168 377.323 153.859 372.654 156.128 370.176C160.248 365.677 166.03 360.672 172.013 359.101C172.387 358.647 170.551 355.946 170.091 355.619L170.083 355.604ZM200.636 351.505C192.367 350.827 184.518 352.365 176.608 354.761C176.119 354.909 175.389 354.534 174.87 354.401L174.219 357.444L180.776 355.011L200.636 351.505ZM108.828 407.43C112.766 400.015 123.622 401.086 128.956 398.35C130.109 397.756 133.955 393.118 136.025 391.651C138.935 389.583 146.714 387.453 145.456 383.386C145.282 382.815 140.017 374.396 139.491 373.828C138.593 372.858 132.077 368.713 131.014 368.982C123.26 376.61 113.46 381.602 105.005 388.373C93.0007 397.986 74.1246 416.915 68.949 431.391C67.9953 434.06 67.0785 435.673 68.0246 438.595C70.0822 444.981 74.9015 444.387 80.6205 444.793C97.7922 446.002 116.045 441.701 133.023 439.033C137.251 438.37 140.631 439.776 144.362 436.909C154.806 428.874 148.135 412.768 139.34 406.228C128.44 398.117 120.301 405.528 108.843 407.429L108.828 407.43Z" fill="#12416D"/>
<path d="M338.543 345.103C337.395 345.216 337.515 343.705 336.542 342.908C335.242 341.845 325.439 335.747 324.318 335.477C318.144 333.972 312.709 344.909 309.35 348.925C307.222 351.472 304.66 353.331 302.457 355.768C306.272 359.228 310.748 362.601 312.228 367.863C308.842 364.739 298.829 357.827 301.481 352.717C308.584 347.56 314.614 329.527 324.88 332.484C325.408 332.64 333.341 337.437 334.315 338.12C336.757 339.834 338.795 341.874 338.543 345.103Z" fill="#1A5B99"/>
<path d="M339.47 348.118C339.508 356.342 330.234 365.286 324.184 370.275C322.557 371.612 320.924 373.69 318.652 373.632C316.206 371.231 327.403 362.836 329.081 360.893L339.47 348.118Z" fill="#1A5B99"/>
<path d="M167.704 320.371C166.048 325.399 159.569 329.195 154.395 328.685L164.435 321.404L167.703 320.364L167.704 320.371Z" fill="#1A5B99"/>
<path d="M144.862 307.045C144.493 311.12 139.77 311.365 136.687 311.273L141.609 308.1L144.862 307.045Z" fill="#1A5B99"/>
<path d="M133.882 345.797C130.334 342.934 129.88 347.571 126.271 346.185L128.426 343.407L126.035 341.629C127.836 340.123 134.977 344.526 133.882 345.797Z" fill="#1A5B99"/>
</g>
<mask id="mask2_981_3889" style="mask-type:alpha" maskUnits="userSpaceOnUse" x="250" y="139" width="307" height="384">
<rect x="250.468" y="154.773" width="287.335" height="368.01" transform="rotate(-2.97158 250.468 154.773)" fill="#D9D9D9"/>
</mask>
<g mask="url(#mask2_981_3889)">
<path d="M482.995 380.927C488.199 378.916 494.086 377.121 495.351 378.972C497.11 381.531 489.636 390.573 481.947 395.914C477.443 399.042 467.402 404.696 450.763 403.895C447.471 393.732 444.186 383.576 440.894 373.413L388.99 308.885C384.632 315.734 380.283 322.581 375.926 329.43L339.506 282.445C347.698 272.533 355.891 262.622 364.084 252.71L417.49 249.938C428.766 269.715 440.101 290.758 451.28 313.053C463.003 336.428 473.529 359.116 482.994 380.92L482.995 380.927Z" fill="#E9F3FB"/>
<path d="M318.321 264.419C301.907 267.059 285.5 269.698 269.086 272.337C266.236 259.371 263.386 246.404 260.536 233.438C261.6 223.911 265.832 220.109 267.597 218.788C270.479 216.637 273.808 215.869 287.623 215.686C295.927 215.576 300.079 215.521 304.908 215.835C324.986 217.13 326.617 214.701 346.929 215.495C371.926 216.473 367.798 220.087 387.552 219.978C388.277 219.971 397.168 221.457 414.945 224.322C421.323 225.351 424.676 225.941 426.848 228.646C432.255 235.4 425.117 248.847 423.763 251.323C403.166 250.33 380.698 250.251 356.635 251.653C343.088 252.44 330.135 253.64 317.831 255.119L318.314 264.42L318.321 264.419Z" fill="#E9F3FB"/>
<path d="M343.758 335.231C321.787 340.008 299.809 344.792 277.838 349.568C277.94 345.782 277.957 340.221 277.478 333.509C277.025 327.124 276.187 320.561 272.539 302.366C271.147 295.418 269.276 286.434 266.897 275.918C275.58 271.923 288.928 267.167 305.677 266.397C314.074 266.014 321.496 266.714 327.638 267.762C333.014 290.252 338.39 312.741 343.766 335.231L343.758 335.231Z" fill="#66A8E5"/>
<path d="M328.278 425.163L272.419 428.062L268.37 350.068C273.361 349.541 280.605 348.134 288.089 343.988C299.203 337.827 304.221 329.28 312.479 317.387C318.491 308.726 327.38 296.625 339.506 282.453C346.915 289.523 355.327 298.695 363.472 310.218C373.504 324.408 380.14 337.919 384.55 348.872C379.74 353.467 374.776 358.774 369.899 364.877C355.311 383.133 347.08 401.578 342.28 415.935C337.613 419.011 332.946 422.095 328.278 425.17L328.278 425.163Z" fill="#66A8E5"/>
<path d="M467.773 200.988C461.263 218.901 454.761 236.806 448.251 254.719C430.2 256.733 425.019 254.176 423.771 251.315C422.072 247.424 427.947 243.644 426.835 236.04C425.749 228.65 419.215 225.506 420.616 222.172C421.234 220.696 423.408 219.17 430.474 219.185C430.797 215.548 431.802 209.455 435.371 202.869C438.388 197.289 442.08 193.515 444.652 191.266C445.598 190.209 448.557 187.191 453.287 186.495C461.489 185.29 467.096 192.224 467.342 192.54L467.781 200.995L467.773 200.988Z" fill="#92C1ED"/>
<path d="M536.694 424.128C522.533 426.322 511.298 428.685 503.712 430.415C492.63 432.946 481.175 433.418 469.99 435.419C466.789 435.99 460.668 437.118 455.603 433.699C452.5 431.607 450.906 428.558 450.061 426.41C450.884 418.439 451.708 410.468 452.524 402.49C456.066 403.49 463.066 404.883 471.059 402.452C474.826 401.309 483.767 398.592 485.952 391.834C487.676 386.504 483.963 382.512 486.586 379.626C488.537 377.485 492.818 377.255 495.35 378.965C498.738 381.248 496.081 386.122 499.124 389.561C501.241 391.949 503.749 391.108 513.46 391.903C524.329 392.797 522.073 393.93 533.077 394.902C538.471 395.378 540.787 395.266 542.461 397.195C545.044 400.17 543.954 405.221 543.032 408.195C540.917 413.506 538.809 418.809 536.694 424.12L536.694 424.128Z" fill="#92C1ED"/>
<path d="M420.159 254.565C424.59 261.492 429.514 268.355 433.604 275.49C450.705 305.368 463.478 334.531 478.252 365.325C479.254 367.419 484.388 378.472 485.772 378.507C488.703 377.155 494.955 373.249 497.441 376.259C499.926 379.269 498.772 386.31 500.369 387.503C512.72 391.49 527.556 391.094 539.859 394.443C541.478 394.886 542.795 394.81 543.959 396.338C548.304 402.055 542.343 418.32 538.147 423.709C527.701 426.703 516.845 429.305 506.077 431.109C497.695 432.515 487.164 434.016 478.773 434.818C476.273 435.055 463.648 436.092 462.702 434.942L462.247 432.644C467.187 430.852 472.637 431.669 477.814 431.049C497.551 428.703 516.999 424.761 536.501 421.128L536.382 418.851C526.026 420.19 516.074 423.434 505.761 425.008C500.047 425.885 493.365 426.048 487.534 426.733C476.762 427.995 464.144 431.827 453.617 428.104L538.008 415.742C539.122 415.424 542.268 404.522 542.371 402.813C542.632 398.568 542.336 398.316 538.378 397.705C533.258 396.916 527.854 396.7 522.705 395.937L521.632 397.199C521.719 400.486 521.648 404.118 519.339 406.728C516.188 405.028 519.591 395.686 518.319 394.583L512.962 394.09C513.35 396.995 512.757 400.577 511.323 403.127C510.96 403.772 510.897 405.211 509.667 404.183C507.543 402.406 510.449 394.075 509.868 393.487L504.152 392.981C503.623 393.1 503.125 402.781 499.646 402.411C497.462 398.599 500.427 395.978 500.686 392.13C492.426 390.886 498.311 384.493 495.358 378.949L485.375 383.225C484.484 383.118 482.371 380.081 481.764 379.143C470.915 362.146 463.16 336.801 453.384 317.985C442.268 296.587 429.292 275.997 417.7 254.861C415.284 252.756 392.582 254.492 387.82 254.564C381.982 254.66 375.105 253.864 369.371 254.062C361.252 254.346 359.456 260.802 354.739 266.012C353.453 267.43 340.707 279.984 341.336 280.761C342.258 280.729 343.044 281.146 343.695 281.777C356.208 293.875 364.801 311.401 374.636 325.609C375.447 326.674 375.38 326.418 376.091 325.533C378.644 322.346 386.542 303.07 389.481 303.49C392.075 303.86 388.358 307.589 388.996 308.862C397.819 319.173 406.819 329.514 415.311 340.095C430.231 358.69 448.11 377.789 453.101 401.688C460.717 401.705 468.553 400.229 475.447 396.931C478.406 395.509 481.43 392.71 484.07 391.618C486.709 390.526 486.712 393.528 485.519 395.117C485.047 395.737 480.684 398.652 479.647 399.264C472.227 403.621 461.642 406.439 453.195 404.823C454.256 409.954 449.688 425.245 452.102 428.794C452.855 429.9 457.108 431.505 457.736 433.603C441.476 435.227 450.984 412.843 450.778 403.871C450.468 390.101 433.705 368.676 425.401 357.902C413.198 342.06 399.898 327.001 387.599 311.226L377.656 329.79C380.041 336.747 385.236 342.649 385.836 350.248C382.327 355.777 374.707 359.655 371.011 364.514C360.079 378.891 349.031 415.905 333.476 423.625C327.802 426.44 316.783 429.288 310.443 430.457C255.926 440.513 204.708 439.223 149.909 441.212C128.51 441.986 106.934 448.927 86.164 448.294C42.2529 446.961 77.0489 408.507 92.1135 394.137C102.964 383.782 115.597 375.397 128.161 367.443L127.608 365.906C120.886 362.948 114.987 358.495 108.65 354.868C106.092 353.404 102.891 352.646 100.341 351.198C92.179 346.55 85.5429 336.422 85.5826 326.888L88.5506 326.826C90.7369 335.985 95.6116 345.875 104.695 349.581L114.234 305.58C107.937 305.525 107.239 301.345 104.825 297.064C104.531 296.544 104.672 295.59 103.481 296.179C103.093 296.367 97.8886 301.457 97.2542 302.185C96.1733 303.432 93.9044 306.514 93.1288 307.906C91.4589 310.902 88.367 322.848 87.7376 323.377C83.7498 326.747 85.2788 318.533 85.6093 317.103C89.2451 301.508 102.512 289.431 118.266 287.032C119.149 281.823 121.715 264.146 127.069 262.233C135.295 259.301 131.295 276.396 130.524 280.247C136.402 277.674 138.722 279.99 137.696 285.986C139.205 285.036 143.667 284.026 144.494 286.129C145.33 289.874 143.278 292.28 141.21 294.961C143.895 295.196 146.291 298.814 148.699 299.147C153.492 299.815 156.924 297.216 161.237 297.313C163.591 299.406 160.879 309.117 162.989 309.878C167.534 300.484 174.902 291.746 182.756 284.861C187.175 280.981 199.742 271.163 205.283 270.951C211.641 270.713 215.361 283.069 216.73 288.115C220.668 302.629 222.384 318.168 220.999 333.118C220.523 338.237 219.586 343.281 218.446 348.244C238.079 346.408 257.585 343.73 277.346 344.339C278.588 341.937 276.216 340.678 276.332 338.044C276.435 335.778 279.014 334.246 278.345 331.814L263.94 275.613C265.547 275.217 265.754 276.275 266.367 277.343C269.467 282.758 282.266 331.274 281.436 336.023C280.799 339.645 279.354 336.833 280.953 341.738C281.253 342.662 281.106 344.686 281.348 344.918C281.484 345.048 284.736 345.299 285.162 345.124C285.827 344.846 293.653 335.816 294.884 334.354C304.286 323.166 311.963 310.539 320.936 299.021C324.144 294.905 328.54 291.614 330.828 286.829C330.396 280.275 327.419 274.289 328.459 267.681C315.506 268.147 302.976 268.805 290.271 271.39C284.496 272.56 274.833 276.507 269.624 276.815C268.467 276.883 267.736 276.776 266.925 275.878C264.323 261.066 258.737 246.439 259.318 231.141C259.472 227.046 262.486 219.046 266.039 216.868C276.143 210.676 293.347 213.373 304.596 213.193C326.888 212.838 346.289 211.969 368.639 214.643C381.128 216.141 393.571 219.382 406.042 220.675C408.806 220.959 414.076 221.694 416.534 221.078C420.244 220.152 421.348 212.586 427.383 216.711C434.145 198.372 448.516 173.002 470.074 191.604C470.908 192.668 469.37 193.496 469.372 194.275C469.439 208.799 461.91 227.819 456.065 241.466C454.253 245.692 450.626 256.023 445.8 256.771C442.109 257.336 421.566 253.408 420.187 254.518L420.159 254.565ZM439.806 252.697C442.257 248.705 444.07 245.365 445.798 240.998C452.077 225.121 456.252 208.284 461.691 192.108C461.87 190.418 455.947 188.717 454.454 188.657C447.917 188.377 442.063 195.532 438.747 200.516C440.882 201.612 450.324 203.551 447.098 207.331L436.703 204.09L433.909 210.3C436.393 209.751 442.41 212.799 441.822 215.61C441.021 219.455 435.021 212.885 433.004 213.478C426.447 220.326 435.189 218.635 436.935 224.311C434.808 230.135 430.239 221.863 428.305 220.948C428.078 220.837 423.575 220.025 423.324 220.045C422.258 220.101 420.503 221.75 420.81 222.819L426.326 226.367C423.081 231.691 418.828 224.648 415.905 224.249C413.612 223.933 410.747 224.8 408.316 224.613C390.65 223.292 372.32 218.324 354.332 216.837C335.055 215.24 312.751 215.657 293.325 216.047C287.122 216.17 270.963 216.093 267.178 220.857C256.509 234.28 267.295 257.253 269.102 272.336C285.426 268.983 301.452 264.012 318.337 264.418C316.934 261.818 315.573 258.551 317.041 255.633C320.174 251.254 347.768 250.471 353.941 250.357C374.665 249.961 395.838 250.84 416.548 250.926C418.535 250.937 420.531 250.696 422.515 250.654C424.432 246.232 426.095 240.455 425.234 235.65C424.719 232.797 421.913 230.819 425.298 228.345C431.398 234.177 428.124 244.383 425.34 251.233L439.807 252.705L439.806 252.697ZM467.415 194.087L464.31 192.69C460.963 208.697 454.372 223.719 449.52 239.27L443.011 253.364L446.813 253.922C452.415 239.86 459.391 225.063 463.516 210.489C465.065 205.024 465.126 199.285 467.415 194.079L467.415 194.087ZM360.546 253.841C351.049 254.38 341.442 253.389 331.956 254.561C326.302 255.259 316.685 256.431 320.724 264.187C323.149 264.711 328.335 263.968 329.805 265.794L333.443 283.5L360.546 253.841ZM126.646 283.367C126.91 282.872 128.369 273.592 128.462 272.297C128.601 270.418 128.312 268.531 128.246 266.663C126.66 267.601 126.233 270.266 125.664 271.953C123.958 277.052 122.372 283.283 122.116 288.36C122.55 286.711 126.395 283.83 126.646 283.367ZM215.791 349.191C215.871 343.81 217.414 338.659 217.931 333.323C219.309 318.969 218.192 305.828 214.896 291.785C214.113 288.458 209.581 273.104 205.383 273.612C189.516 283.265 175.351 295.694 164.902 310.978L178.426 322.557L181.207 330.364C182.199 325.791 186.51 323.192 189.044 319.639C190.397 317.735 194.184 312.276 195.024 310.506C196.016 308.415 195.396 305.599 197.423 304.325C200.653 320.938 179.906 328.851 178.118 344.273C186.477 342.724 199.218 343.468 207.401 346.022C210.762 347.069 212.506 349.622 215.792 349.199L215.791 349.191ZM133.654 282.422C124.572 285.941 122.205 296.261 119.542 304.533L139.817 291.23L140.826 288.153C138.118 288.667 136.014 289.762 133.273 288.468L133.654 282.415L133.654 282.422ZM118.014 290.108C117.025 289.465 107.707 293.431 107.134 294.469C105.018 298.283 112.362 304.242 116.4 303.169L118.021 290.108L118.014 290.108ZM383.713 348.044C370.452 325.49 357.962 301.177 339.498 282.445C333.931 290.403 327.102 297.456 321.224 305.162C310.41 319.319 301.314 335.075 288.256 347.339C307.818 367.519 323.874 397.123 314.478 425.779C315.449 426.401 328.716 422.566 330.481 421.695C344.943 414.551 357.523 375.861 368.137 361.967C372.005 356.893 378.958 352.377 383.713 348.044ZM159.852 301.685L149.102 304.412C144.724 302.47 141.38 296.174 135.964 297.922C132.185 299.142 120.449 306.999 118.298 310.304C116.112 313.663 115.586 319.274 114.381 323.132C118.538 322.138 144.055 332.415 145.302 331.411C146.43 327.984 148.614 324.304 150.637 321.327C152.155 319.086 158.537 312.408 158.896 311.374C159.342 310.098 160.287 302.128 159.86 301.692L159.852 301.685ZM138.916 369.214C139.565 366.278 139.96 362.996 138.801 360.093C138.555 359.464 133.185 353.281 132.756 353.105C131.124 352.426 128.678 353.125 126.586 352.699C119.553 351.254 115.833 339.036 122.752 336.064C125.314 334.961 137.299 340.564 140.589 342.005C144.802 343.848 155.924 350.504 159.366 351.036C163.116 351.62 172.473 340.892 174.278 337.545C181.517 324.123 170.205 320.303 161.604 313.081L145.837 334.362L113.714 324.695L108.397 352.33L138.916 369.214ZM170.083 355.605C168.139 354.216 159.265 353.508 155.872 352.432C146.398 349.433 136.657 342.759 127.431 338.8C121.874 337.981 122.668 344.02 124.923 347.294C129.078 353.311 133.283 347.074 138.539 347.091C139.255 349.697 137.13 349.96 135.717 351.446L135.776 352.566C143.174 356.627 145.811 363.594 142.142 371.766C144.77 373.111 146.471 377.338 147.15 380.259C148.236 380.439 148.391 380.034 149.031 379.413C151.168 377.324 153.859 372.655 156.128 370.177C160.248 365.678 166.03 360.673 172.013 359.102C172.387 358.647 170.551 355.947 170.091 355.62L170.083 355.605ZM200.636 351.506C192.367 350.828 184.518 352.365 176.608 354.762C176.119 354.909 175.389 354.535 174.87 354.401L174.219 357.445L180.776 355.011L200.636 351.506ZM108.828 407.431C112.766 400.016 123.622 401.087 128.956 398.351C130.109 397.756 133.955 393.119 136.025 391.652C138.935 389.584 146.714 387.454 145.456 383.387C145.282 382.815 140.017 374.397 139.491 373.828C138.593 372.859 132.077 368.714 131.014 368.983C123.26 376.611 113.46 381.603 105.005 388.374C93.0007 397.987 74.1246 416.916 68.949 431.391C67.9953 434.06 67.0785 435.674 68.0246 438.596C70.0822 444.981 74.9015 444.387 80.6205 444.793C97.7922 446.002 116.045 441.702 133.023 439.033C137.251 438.371 140.631 439.776 144.362 436.909C154.806 428.874 148.135 412.768 139.34 406.229C128.44 398.118 120.301 405.529 108.843 407.43L108.828 407.431Z" fill="#12416D"/>
<path d="M338.543 345.104C337.395 345.217 337.515 343.706 336.542 342.908C335.242 341.846 325.439 335.748 324.318 335.477C318.144 333.972 312.709 344.909 309.35 348.926C307.222 351.473 304.66 353.332 302.457 355.768C306.272 359.229 310.748 362.601 312.228 367.864C308.842 364.74 298.829 357.828 301.481 352.718C308.584 347.56 314.614 329.527 324.88 332.485C325.408 332.641 333.341 337.438 334.315 338.12C336.757 339.834 338.795 341.875 338.543 345.104Z" fill="#1A5B99"/>
<path d="M339.47 348.118C339.508 356.342 330.234 365.287 324.184 370.275C322.557 371.612 320.924 373.69 318.652 373.633C316.206 371.231 327.403 362.837 329.081 360.893L339.47 348.118Z" fill="#1A5B99"/>
</g>
</g>
<defs>
<clipPath id="clip0_981_3889">
<rect width="562" height="456" fill="white"/>
</clipPath>
</defs>
</svg>
