<svg width="476" height="423" viewBox="0 0 476 423" fill="none" xmlns="http://www.w3.org/2000/svg">
<g clip-path="url(#clip0_872_4144)">
<path d="M268.604 13.252L270.253 11.9738C272.558 11.9738 273.353 21.0667 273.267 22.8813C273.134 25.6959 271.267 32.994 271.492 34.8086C271.598 35.6563 273.148 36.2788 273.565 37.1C275.592 41.1133 270.598 55.3652 269.916 60.2792C269.392 61.0739 268.756 60.3521 268.439 59.4514C266.577 54.1996 271.22 45.4247 271.24 39.7425L266.942 45.6896C263.676 42.4379 268.809 38.2789 269.233 35.4113C269.783 31.7092 270.326 26.5899 270.591 22.8614C270.724 20.9938 270.505 19.0931 270.584 17.2256C265.776 21.2587 269.306 29.8549 266.286 35.1066C264.074 32.7953 265.279 29.8085 265.292 27.4972C265.306 24.8548 265.173 22.1793 265.292 19.5435C265.412 16.6361 266.849 13.7818 265.292 10.6096C265.14 10.4241 264.445 10.9606 264.292 11.2586C263.696 12.4771 262.829 18.464 262.643 20.2057C262.14 25.027 262.676 30.2721 261.656 35.1066C259.358 31.9741 260.398 27.6628 259.954 24.2257C259.623 21.6495 258.556 17.8083 258.013 14.9076C257.828 13.9341 258.013 12.8679 256.695 12.5897C254.477 20.8614 256.225 29.4906 254.695 37.7491C253.761 37.8285 253.503 35.3252 253.443 34.7027C253.079 30.7158 253.536 25.8747 252.211 22.0203C251.913 21.1528 251.383 20.464 250.728 21.1991C250.277 24.5965 250.33 28.0734 250.065 31.4708C248.111 56.9811 247.615 82.763 244.071 108.26C244.919 118.949 241.806 138.678 248.734 147.367C250.37 149.413 262.405 159.466 264.637 160.605C265.326 160.956 265.869 161.029 266.617 160.943C266.379 157.029 269.452 152.883 271.657 149.751C275.506 144.281 280.539 138.89 285.825 134.777C286.083 133.453 285.533 133.976 284.984 133.651C282.215 132.009 279.394 131.909 276.923 129.121C273.797 125.591 270.684 116.121 269.459 111.419C266.173 98.8229 265.749 80.9219 266.591 67.8687C266.69 66.372 267.18 65.0607 267.286 63.5971C268.776 64.1601 269.134 66.5111 269.273 67.8952C271.26 86.9419 267.173 105.088 276.738 123.346C279.235 128.115 281.798 128.856 286.494 130.81C300.688 136.711 315.252 140.174 330.347 142.592C335.016 143.34 339.077 145.247 344.104 144.386L340.123 141.426C336.553 138.274 335.811 133.36 335.493 128.837C334.612 116.254 338.401 102.379 340.799 90.0942C334.003 91.1737 330.387 83.2133 334.751 78.498C332.804 75.7629 328.843 74.1867 328.817 70.5575C328.784 65.4846 333.619 67.3389 336.977 68.4118C340.573 69.5641 343.289 71.4118 346.442 73.3854C352.562 68.0343 362.013 66.2793 369.968 67.2197C371.829 70.4251 367.862 69.0939 366.669 69.1866C360.622 69.6568 353.628 70.7959 348.766 74.5245C357.171 78.5775 363.159 85.2266 370.292 90.7433C373.452 93.187 377.227 95.3658 380.499 97.7566C381.923 98.7964 384.658 101.737 385.851 102.339C387.917 103.386 391.58 101.83 393.785 104.002C397.104 97.5977 397.667 90.6241 394.077 84.1869C389.924 76.7298 384.321 73.5178 377.24 69.233C380.77 68.2528 386.122 71.9814 388.818 74.2132C396.541 80.604 400.852 90.8691 398.137 100.73C397.693 102.333 396.024 104.79 395.918 105.77C395.792 106.902 397.594 108.929 397.799 110.942C398.561 118.565 394.322 122.83 387.844 125.684C387.347 130.969 384.711 144.506 387.791 148.605C388.295 149.281 401.038 154.003 403.31 155.095C428.644 167.274 442.169 182.52 455.515 206.871C464.019 222.388 481.194 253.898 474.517 271.143C466.874 290.892 436.983 305.714 419.842 316.495C419.179 316.912 418.437 317.091 417.709 317.323C416.305 319.237 422.941 332.403 423.451 335.621C424.69 343.35 421.974 348.747 419.285 355.655C417.583 357.681 414.682 356.509 413.788 357.118C413.503 357.31 413.437 358.304 413.039 358.648C411.96 359.582 410.503 359.853 410.317 361.31C410.152 362.622 410.96 363.953 411.026 365.264C411.278 370.105 410.801 375.019 410.999 379.867C411.384 389.212 413.159 398.583 412.013 407.98C410.523 411.278 389.699 419.179 385.347 420.391C373.478 423.676 357.43 423.57 345.19 421.828C341.11 421.252 338.023 419.06 338.169 414.609C335.897 415.159 333.844 416.344 331.559 416.94C317.087 420.709 302.688 419.073 289.355 412.755C286.845 411.569 283.599 410.464 282.553 407.636C280.182 401.192 284.46 389.808 285.672 382.986C290.037 358.509 293.19 332.78 298.747 308.641C302.125 293.965 307.834 280.091 307.728 264.64C306.218 244.706 309.735 221.97 307.708 202.348C307.033 195.851 301.058 189.334 296.098 185.48C282.414 174.837 266.365 166.691 252.708 156.016C244.753 149.797 242.025 141.347 241.435 131.525C239.918 106.187 244.568 81.6305 246.767 56.6566C247.356 49.9347 246.515 42.3054 246.754 35.4245C246.86 32.3781 247.754 18.1262 248.9 16.7487C250.536 14.7818 252.834 17.8481 253.384 17.252C253.178 13.7222 253.43 9.64928 256.437 7.35123C258.894 8.02011 259.663 10.5433 260.338 12.6162C261.809 11.1327 261.424 7.42408 263.776 6.74195C267.193 5.74193 268.571 10.6427 268.624 13.2785L268.604 13.252ZM360.662 86.0942C360.006 84.8028 358.715 83.7564 357.569 82.9021C353.853 80.1404 347.362 76.2331 343.229 74.0609C339.447 72.0741 335.242 69.9085 330.864 70.2065C329.559 71.4781 335.586 76.4715 336.619 76.7497C337.778 77.0609 344.163 73.5178 345.428 76.498C346.442 78.8821 343.203 77.9947 341.421 78.4451C339.057 79.0411 334.871 80.9352 334.877 83.7763C334.732 86.9353 339.938 87.5445 342.368 87.3922C344.799 87.2399 348.945 84.5379 350.336 84.7167C350.912 84.7895 350.879 86.0677 351.363 86.4319C352.654 87.3988 358.794 86.6836 360.669 86.0876L360.662 86.0942ZM358.013 90.081C354.794 89.9684 351.383 90.8956 349.071 88.1008L348.117 91.1009L342.17 91.4585C340.905 99.1143 339.202 106.863 338.427 114.591C338.361 115.254 337.891 115.671 338.778 116.26L348.078 116.565C345.726 114.353 345.905 112.386 346.091 109.287C348.422 108.763 347.051 111.81 347.541 113.465C347.614 113.711 349.873 116.803 350.058 116.909C350.383 117.108 356.602 117.843 357.682 117.896C364.027 118.214 371.796 117.081 375.531 111.24C378.108 107.214 373.008 101.472 374.929 96.6705C371.849 95.6705 366.014 88.6638 363.53 88.2333C362.629 88.0743 360.761 88.7035 361.324 90.0678C364.278 90.3459 365.583 92.5579 365.292 95.3725L357.999 93.0678C356.489 92.1605 358.191 90.2466 357.999 90.0876L358.013 90.081ZM383.175 103.313L376.558 98.0215C375.432 102.737 379.505 106.969 377.552 111.273C375.902 114.909 371.829 117.797 368.093 119.042C360.337 121.631 356.489 119.227 349.065 118.552C345.428 118.221 341.66 119.168 338.136 117.889C336.878 121.048 337.951 123.327 338.136 126.168C338.441 130.79 337.447 135.254 341.878 138.32C348.594 142.969 360.635 142.373 367.623 138.446C369.955 137.135 376.167 131.638 377.048 129.327C378.757 124.843 380.227 105.485 382.069 103.505C382.287 103.273 382.824 103.286 383.162 103.32L383.175 103.313ZM381.883 122.499C386.996 123.956 393.573 121.651 394.951 116.088C397.269 106.77 391.606 104.227 383.195 106.677L381.883 122.499ZM350.727 148.353C350.661 153.075 349.733 156.38 354.694 158.625C360.033 161.042 366.126 159.261 371.438 157.466C373.929 156.625 382.473 152.426 383.532 150.327C384.374 148.923 383.228 147.486 383.175 146.036C382.969 140.36 383.095 138.261 381.916 132.731C381.433 130.459 381.009 128.174 381.194 125.837L379.121 130.711C374.644 138.241 361.841 145.612 353.701 148.406C352.509 148.817 351.886 148.605 350.734 148.353H350.727ZM289.123 137.102C287.898 136.837 287.547 137.77 286.805 138.426C282.864 141.903 272.346 152.996 270.889 157.605C270.604 158.499 270.472 159.347 270.584 160.274L272.889 159.605C275.883 153.837 279.645 148.347 283.838 143.4C284.573 142.532 289.938 137.916 289.123 137.102ZM455.376 220.547C448.878 222.626 443.136 227.083 436.824 229.474C435.916 229.818 426.273 231.759 428.227 233.785C437.917 230.984 447.68 227.209 455.376 220.547ZM457.807 287.879C461.529 284.369 470.563 274.793 472.444 270.395C475.18 264.004 472.676 254.474 470.788 247.838C468.252 238.905 462.966 230.679 459.992 221.865C449.991 229.428 438.844 235.898 426.22 237.765C433.956 249.838 438.016 262.713 429.167 275.475C420.57 287.859 409.94 293.614 399.409 303.336C395.892 306.581 394.772 308.396 393.09 312.912C389.891 321.495 389.281 331.634 391.792 340.409C393.891 341.224 393.527 337.25 393.779 337.091L395.097 337.767L393.818 331.548L397.09 330.482L396.554 332.608L402.462 356.887C405.595 357.436 406.078 357.032 406.363 353.999C407.039 346.972 403.707 338.933 403.707 331.8C405.111 331.535 405.264 332.442 405.734 333.409C406.701 335.416 407.78 340.529 408.171 342.893C408.92 347.337 409.165 351.794 409.006 356.297C411.403 356.496 410.708 354.244 411.172 352.847C411.496 351.873 412.344 351.423 412.364 350.039C412.404 346.482 410.648 341.171 410.324 337.429C410.185 335.787 410.403 334.105 410.33 332.462C411.284 332.31 411.198 333.575 411.476 334.283C413.808 340.151 414.894 347.383 414.967 353.655C416.815 353.251 417.517 351.9 417.497 350.019C417.431 344.006 414.086 336.681 414.304 330.475C417.305 332.906 418.517 339.522 418.954 343.383C419.093 344.588 418.669 344.476 420.259 344.383C423.14 334.767 415.503 326.562 414.602 317.204C417.126 315.522 418.848 313.224 421.372 311.382C432.929 302.945 447.03 298.045 457.807 287.879ZM413.907 287.051C415.695 285.382 417.855 284.455 419.603 282.455C422.087 279.601 428.902 269.587 429.896 266.256C434.665 250.242 423.365 239.567 415.629 227.169C414.722 226.977 414.914 227.858 414.655 228.494C411.417 236.375 403.793 255.143 402.541 262.746C401.071 271.673 400.952 282.614 400.409 291.74C400.263 294.15 398.925 296.872 400.071 299.349L411.039 290.442C411.933 289.263 412.834 288.051 413.907 287.051ZM383.844 267.567L364.212 277.402C352.502 281.918 340.739 286.601 328.718 290.256C323.24 291.919 316.637 292.68 311.47 294.866C310.537 295.263 309.271 295.541 309 296.694C323.525 295.15 337.374 290.561 350.899 285.283C361.099 281.303 369.968 277.157 379.154 271.15C380.717 270.13 382.764 269.077 383.844 267.567ZM387.818 324.515C386.546 324.403 385.427 325.098 384.181 325.184C366.517 326.396 352.615 325.164 335.473 320.879C324.088 318.032 313.232 313.628 302.377 309.276L296.416 341.065L301.701 331.462C302.271 330.833 302.734 330.025 303.363 331.131C304.456 333.052 300.588 338.979 299.595 341.277C297.687 345.694 294.64 351.8 293.276 356.151C290.984 363.456 290.408 374.397 288.938 382.278C287.467 390.159 285.275 398.033 283.831 405.967C285.971 405.377 285.772 407.132 286.871 407.874C296.992 414.722 312.682 416.02 324.492 414.51C328.89 413.947 333.513 413.185 337.202 410.616L330.864 357.628C332.109 357.913 332.195 359.284 332.519 360.277C335.97 370.92 336.036 383.258 337.553 394.318C338.593 401.927 340.481 409.47 340.852 417.179C344.104 417.695 347.793 418.298 351.058 418.563C364.391 419.642 375.829 419.311 388.652 415.086C395.766 412.742 402.767 409.51 409.344 405.987L408.343 383.463C399.217 386.682 393.984 379.304 389.924 372.41C385.645 365.145 382.844 356.622 381.194 348.363C382.122 348.376 382.506 350.244 382.824 351.025C386.712 360.496 388.97 368.231 396.077 376.185C400.263 380.867 402.19 380.662 408.343 379.483V360.277C405.793 359.085 403.177 361.529 401.025 359.317C398.117 356.337 398.071 346.721 396.084 343.065C395.123 341.297 395.17 343.436 394.66 343.727C392.09 345.211 390.52 343.456 389.46 341.078C389.116 340.31 387.811 335.939 387.811 335.442V324.515H387.818Z" fill="#190D00"/>
<path d="M97.1379 86.4585C97.7869 85.5115 98.4493 85.2134 99.4759 84.8227C107.854 81.6041 127.168 81.2134 133.248 76.2067C134.639 75.061 135.348 73.4649 136.077 71.8821C135.394 70.5907 133.805 70.0013 132.427 69.7231C131.182 69.4715 128.374 69.1138 127.128 69.0609C125.883 69.0079 125.631 70.551 124.3 70.2331C123.585 65.8092 129.506 64.4118 128.93 60.3058C128.128 59.511 114.239 63.6171 111.875 64.1071C100.648 66.4449 88.9249 67.69 77.9302 71.2265C76.5591 71.6702 74.0952 72.2397 73.0421 72.9616C71.1412 74.253 70.2338 77.9153 67.664 78.8425C67.1474 72.3192 72.658 69.1403 77.95 67.2728C88.4017 63.5773 100.966 62.2065 111.862 60.1203C115.405 59.4448 127.559 55.2527 129.943 57.6368C131.679 59.372 130.897 64.0409 130.261 66.2595C144.793 66.9151 138.395 81.7829 127.605 82.1604C127.022 82.5511 129.771 89.9685 130.069 91.2864C130.738 94.2401 130.837 99.7435 131.93 102.008C133.149 104.538 139.156 105.624 139.276 108.307C139.401 111.254 134.904 114.068 132.341 114.697C132.208 124.3 132.407 136.208 121.022 138.81C117.246 139.671 112.928 139.83 109.067 139.771L109.729 147.062C120.22 146.267 130.407 146.274 140.554 143.108C153.423 139.095 180.917 124.731 186.222 111.949C189.461 104.148 190.891 86.5711 191.229 77.8822C191.984 58.6369 187.937 45.683 185.328 27.4311C184.798 23.7489 183.652 16.4177 183.97 13.0269C184.069 11.9871 184.619 9.71556 185.215 8.9076L187.222 8.64932L188.547 0.039911C190.6 -0.271352 192.156 1.44391 192.521 3.3446L194.223 0.722041L198.462 2.68896C199.74 -1.59588 201.601 1.57636 202.979 3.80818C206.33 9.23211 207.542 16.3249 208.41 22.5502C209.523 22.6297 209 21.1263 209.682 20.1925C210.079 19.6429 210.695 19.2588 211.391 19.2124C213.576 19.2124 214.855 23.7356 215.04 25.5238C215.305 28.1198 215.384 38.3783 214.53 40.2591C214.113 41.1796 213.537 41.9876 212.384 41.7558C212.709 35.5703 213.848 29.345 212.377 23.2125C210.291 24.7158 210.357 28.1066 209.39 30.4973C209.132 31.1397 209.317 32.0139 208.41 31.8152C205.178 23.2058 206.105 13.0799 200.787 5.33138L201.78 27.8417L199.965 23.3714C199.522 19.6826 198.892 15.9739 198.468 12.2851C198.137 9.45728 199.277 5.8347 195.501 4.65588C194.19 11.6626 196.779 18.5038 196.488 25.5304C196.455 26.3383 196.991 27.994 195.832 27.835C195.601 26.5105 194.865 25.4973 194.561 24.133C193.309 18.5038 193.541 11.8878 192.375 6.45061C192.137 5.33138 191.269 3.72871 189.865 4.00024C189.693 13.7885 190.812 23.5039 192.507 33.1331C191.196 33.3716 190.885 32.5504 190.474 31.5305C189.606 29.3715 189.03 25.8218 188.626 23.4443C188.189 20.8945 188.321 16.3713 187.752 14.3845C187.606 13.8679 187.136 13.2653 186.56 13.2653C187.103 17.9475 187.288 22.7224 187.97 27.4178C192.19 56.6037 196.892 77.4981 190.328 107.439C188.798 114.432 185.771 118.678 180.936 123.876C175.485 129.744 167.763 133.4 161.391 138.102C169.644 146.651 176.274 156.638 182.241 166.903C187.533 162.539 193.388 158.718 198.627 154.301C204.569 149.301 216.418 136.598 218.67 129.161C222.048 118.035 220.319 96.4123 218.928 84.5247C217.511 72.3589 213.404 58.7428 212.848 46.8883C212.801 45.8817 211.788 45.4049 213.364 44.3982C214.51 44.4578 216.438 54.5043 216.808 56.1799C221.054 75.5113 225.955 108.83 222.008 127.87C220.2 136.612 207.549 150.863 200.767 156.963C194.673 162.44 187.626 167.162 181.148 171.778C173.657 177.122 163.491 182.129 160.384 191.42C158.947 195.712 159.656 198.758 159.384 203.003C158.159 222.388 156.602 241.858 155.403 261.276C154.589 274.435 157.914 282.336 160.503 294.594C163.259 307.634 165.431 320.793 168.306 333.813C172.876 354.529 180.254 377.496 182.486 398.444C182.731 400.722 182.473 403.046 182.553 405.324L181.241 404.007C179.685 409.192 173.412 412.848 168.63 414.914C158.576 419.258 143.932 420.649 133.553 416.907C131.381 416.126 128.99 414.199 126.943 413.583C123.221 412.464 122.386 413.311 118.657 410.609C117.505 409.775 116.253 407.285 114.981 408.285C114.219 408.881 114.445 410.656 112.994 411.596C111.431 412.616 106.682 413.536 104.662 413.861C94.0315 415.556 77.5129 414.166 67.1672 411.099C64.1006 410.185 60.4379 409.258 60.6896 405.331C65.6306 406.907 70.6445 408.252 75.771 409.119C85.2821 410.722 95.6807 411.384 105.218 409.788C108.662 409.212 112.378 408.861 114.226 405.569L103.086 353.006C104.218 353.191 104.258 354.31 104.589 355.145C110.557 370.231 111.736 387.98 116.471 403.53C117.571 406.404 120.253 408.245 122.75 409.834C136.11 418.311 159.94 416.623 173.108 408.126C176.909 405.669 178.896 403.815 179.254 399.033C179.453 396.417 178.777 393.841 178.393 391.284C175.545 372.35 169.928 353.761 165.663 335.138C163.087 323.879 161.629 310.422 158.053 299.7C157.828 299.018 157.748 298.462 157.053 298.038C146.323 303.25 133.937 307.429 122.307 310.303C103.331 314.999 80.4139 316.793 62.6898 307.31C63.3124 310.104 61.9613 313.078 61.9613 315.588C61.9613 340.098 61.7891 364.589 60.0339 389.092C59.9014 390.967 59.7425 406.02 57.7223 405.973C56.5169 404.834 55.9671 402.636 56.0334 401.04C56.3381 393.39 57.8217 385.49 58.0601 377.841L60.736 306.343C60.8883 301.866 60.6896 293.859 58.5701 289.905C57.7091 288.296 51.5692 282.051 49.7876 280.144C45.6215 275.693 37.1568 269.322 36.2296 263.236C35.4348 258.037 38.7332 252.554 40.1705 247.706C30.8117 245.315 20.7906 240.554 13.0677 234.739C12.2796 234.15 9.06061 230.342 8.38502 231.15C2.6757 245.401 -0.814804 259.792 6.70932 274.21C13.4718 287.164 32.9775 296.773 44.469 305.992C47.9993 308.82 53.7086 313.224 54.5895 317.727C56.2387 326.118 53.9735 332.707 53.4105 340.754C53.3112 342.145 53.0065 348.29 54.404 348.363L57.3912 346.721L57.0732 351.039C51.1983 354.979 51.7878 347.29 50.4168 344.423C49.7677 343.065 46.8071 341.29 45.8268 339.741C42.0118 333.688 49.4829 322.879 52.7416 317.581C42.9788 307.892 31.0104 300.925 20.0819 292.634C9.15333 284.342 2.51012 276.548 0.430385 261.965C-2.32493 242.653 8.60359 221.421 17.0815 204.44C27.2682 184.036 47.8867 160.049 70.1345 152.85C74.7046 151.373 77.5791 152.804 78.9303 147.075C79.7781 143.479 78.3474 137.526 77.7315 133.684C75.0556 116.995 70.0351 100.836 67.3328 84.1472L69.3662 84.5313C73.2011 100.214 77.4533 115.843 79.9172 131.823L85.6927 128.327L87.7393 124.77C82.3016 115.274 82.2817 99.6176 97.1312 102.022V86.4585H97.1379ZM125.598 83.4982C122.28 83.7962 101.271 87.0347 100.079 88.7433L99.4759 105.359C98.6546 106.644 96.4755 105.267 94.8992 105.359C85.4741 105.876 85.5801 116.512 90.2165 122.519C90.7 124.353 97.4227 127.472 97.1312 128.843C96.5616 131.545 90.8126 128.155 89.8522 127.194C89.1567 131.267 84.5005 133.823 80.5927 133.83C80.6325 139.506 83.0368 144.665 81.2418 150.367L107.073 147.055L102.437 133.155C104.781 132.585 106.656 135.876 108.192 136.333C111.305 137.254 120.373 136.075 123.446 134.618C127.87 132.519 129.281 125.651 129.586 121.227C126.135 122.539 122.664 120.532 119.637 118.889C118.717 118.393 117.988 118.995 118.333 117.254C122.062 117.909 125.843 119.121 129.533 117.863C128.228 112.035 132.937 112.439 134.891 108.326L128.903 102.902C128.956 96.2401 126.777 89.942 125.598 83.4916V83.4982ZM60.7028 287.455C59.9147 268.667 56.4242 250.13 52.4303 231.825C48.2311 239.05 43.4689 247.388 40.8262 255.322C39.018 260.746 37.7264 262.898 41.5018 267.918L60.7095 287.455H60.7028ZM50.7678 340.436L52.7548 321.899L48.4496 330.502C46.8799 334.403 45.5685 338.939 50.7744 340.443L50.7678 340.436Z" fill="#190D00"/>
<path d="M359.331 106.631L357.318 106.333L356.781 105.545C355.986 96.697 360.556 99.4719 359.331 106.631Z" fill="#190D00"/>
<path d="M345.422 104.644C342.501 105.307 343.09 98.6973 344.428 98.6973C346.203 100.148 345.203 102.691 345.422 104.644Z" fill="#190D00"/>
<path d="M346.794 126.446L346.754 124.512C351.086 126.24 355.338 124.929 359.55 123.73C362.657 122.843 362.816 124.79 360.027 126.201C356.179 128.141 350.814 127.393 346.794 126.446Z" fill="#190D00"/>
<path d="M390.459 109.287C390.85 111.353 389.916 112.24 388.612 113.578L391.122 117.227C387.929 116.876 387.671 114.267 383.836 115.903C382.617 114.691 389.261 108.061 390.453 109.287H390.459Z" fill="#190D00"/>
<path d="M96.4699 119.903C94.7412 119.624 95.4764 117.174 95.0525 116.691C94.6021 116.181 89.628 116.22 91.5157 113.273L94.4829 113.942V110.637C95.3969 110.472 95.4963 111.823 95.6354 112.465C96.1321 114.81 96.4832 117.505 96.4699 119.909V119.903Z" fill="#190D00"/>
<path d="M121.646 103.346C121.566 101.161 119.831 98.5051 121.97 96.7368C123.758 96.8229 124.977 103.717 121.646 103.346Z" fill="#190D00"/>
</g>
<defs>
<clipPath id="clip0_872_4144">
<rect width="476" height="423" fill="white"/>
</clipPath>
</defs>
</svg>
