<svg width="562" height="446" viewBox="0 0 562 446" fill="none" xmlns="http://www.w3.org/2000/svg">
<g clip-path="url(#clip0_981_3890)">
<path d="M447.512 332.812C423.783 399.35 299.094 472.201 172.589 410.359C98.9788 374.375 59.6279 312.995 95.3727 239.875C135.595 157.596 288.148 154.291 361.224 178.651C435.619 203.45 473.991 258.566 447.512 332.812Z" fill="#92C1ED"/>
<mask id="mask0_981_3890" style="mask-type:alpha" maskUnits="userSpaceOnUse" x="43" y="50" width="450" height="384">
<path d="M492.672 361.074H431.625C388.41 417.29 281.169 463.438 172.589 410.359C145.537 397.135 123.112 380.481 107.341 361.074H43V50H492.672V361.074Z" fill="#D9D9D9"/>
</mask>
<g mask="url(#mask0_981_3890)">
<path d="M180.781 183.393C181.188 185.124 179.444 186.701 178.359 188.185C173.998 194.13 178.175 201.158 175.607 205.681C173.979 208.546 169.357 210.937 156.343 209.02C158.61 214.368 157.341 217.305 157.011 217.995C154.589 222.993 145.266 225.023 134.656 220.066C134.597 216.099 134.355 210.39 133.483 203.6C129.859 175.181 119.781 162.31 125.644 153.376C127.01 151.295 131.148 149.811 139.365 146.916C143.154 145.586 173.62 134.973 175.626 139.826C176.498 141.949 171.605 146.133 172.69 147.534C173.494 148.564 176.237 146.37 179.153 147.74C180.355 148.307 182.138 149.729 182.293 151.491C182.632 155.592 173.727 156.798 172.932 162.393C172.438 165.886 175.752 166.515 176.217 172.8C176.45 176.015 175.713 177.654 177.002 179.632C178.369 181.734 180.404 181.693 180.801 183.383L180.781 183.393Z" fill="#F1F1F1"/>
<path d="M194.822 459.941C179.677 460.024 172.971 457.097 169.734 454.109C168.949 453.377 166.507 450.925 163.465 451.193C160.935 451.409 159.85 453.346 157.806 454.882C155.334 456.737 153.425 456.52 140.353 456.026C129.248 455.603 127.62 455.634 124.665 454.325C120.789 452.605 118.075 450.08 116.389 448.235C117.494 413.52 118.608 378.794 119.713 344.079C146.061 344.563 172.409 345.058 198.747 345.542C204.377 366.326 209.532 389.058 213.689 413.592C215.676 425.319 217.304 436.705 218.622 447.72C218.351 448.287 218.06 448.823 217.759 449.328C212.352 458.231 200.559 459.694 194.832 459.952L194.822 459.941Z" fill="#66A8E5"/>
<path d="M221.103 236.831L202.042 210.246C209.378 203.816 216.723 197.386 224.058 190.946C225.415 184.464 226.772 177.993 228.138 171.512C229.02 161.269 228.942 152.954 228.729 147.338C228.206 133.973 227.944 127.296 225.987 118.166C225.337 115.126 220.657 100.608 223.835 96.2797C224.068 95.9603 224.688 95.2287 225.27 93.9922C226.898 90.5299 225.841 88.2217 226.965 87.5313C228.245 86.7482 229.795 89.6231 233.632 89.8189C235.716 89.9323 235.948 89.1594 236.966 89.6128C239.476 90.7257 239.989 96.2488 240.493 101.7C240.794 104.894 240.726 106.625 241.869 107.326C243.458 108.305 245.299 106.017 246.772 106.697C249.253 107.841 247.683 116.002 247.354 122.834C246.966 130.727 248.459 132.046 250.697 146.915C251.656 153.294 252.839 162.722 253.439 174.562C254.418 179.137 257.267 195.057 248.536 208.803C246.443 212.111 244.059 214.687 241.782 216.676C234.892 223.394 228.002 230.102 221.112 236.821L221.103 236.831Z" fill="#E9F3FB"/>
<path d="M97.62 323.996C99.8197 326.954 103.357 331.426 108.202 336.361C114.278 342.554 115.915 342.884 117.863 346.161C121.022 351.488 119.346 355.105 118.59 371.17C117.756 389.017 119.191 398.342 114.859 400.403C114.035 400.795 112.291 401.258 111.157 400.403C109.239 398.95 110.983 395.158 108.754 391.366C107.562 389.336 106.613 389.645 105.721 388.213C102.775 383.463 111.177 376.672 110.557 369.212C110.275 365.853 108.328 364.235 89.1603 349.53C79.6541 342.235 75.3226 338.938 72.1538 332.394C70.0026 327.943 69.2468 323.77 68.9367 320.946C68.2971 318.71 67.706 315.804 67.6479 312.394C67.5122 304.851 70.022 299.08 71.5627 296.133C77.1831 284.201 82.8035 272.268 88.4142 260.326C97.6781 265.643 106.952 270.97 116.216 276.287C110.024 292.187 103.822 308.086 97.6297 323.986L97.62 323.996Z" fill="#E9F3FB"/>
<path d="M293.45 183.022C295.514 197.159 299.477 201.611 302.908 202.909C305.379 203.847 309.536 203.888 310.786 206.804C311.416 208.257 311.028 209.772 310.786 210.648C307.278 223.487 305.611 230.123 301.328 231.916C292.868 235.45 278.943 227.918 273.585 210.648C272.528 202.981 271.792 194.233 271.782 184.578C271.773 169.049 273.652 155.581 275.93 144.793C274.641 112.52 276.414 103.369 278.837 102.885C279.292 102.792 280.678 102.833 281.715 101.772C283.595 99.8555 282.655 96.0635 283.285 95.9398C283.963 95.7956 284.845 100.371 286.163 100.381C287.587 100.391 287.771 95.0227 289.826 94.5487C291.696 94.1159 294.467 97.9389 295.834 101.772C296.948 104.905 296.628 106.893 295.834 117.218C295.126 126.389 295.378 124.874 295.039 128.172C294.574 132.685 293.818 138.332 292.529 144.793C292.839 157.539 293.149 170.286 293.459 183.032L293.45 183.022Z" fill="#E9F3FB"/>
<path d="M326.388 459.941C333.248 461.023 341.756 462.239 349.121 456.881C351.175 455.386 352.619 453.769 353.549 452.563C353.239 455.046 353.22 458.54 355.226 460.673C357.3 462.888 360.245 462.29 366.864 462.053C378.037 461.662 376.816 463.115 383.609 462.239C385.363 462.012 391.4 461.157 398.764 458.097C404.472 455.727 408.968 452.872 412.195 450.482C410.683 418.816 409.162 387.141 407.65 355.475C379.432 354.816 351.204 354.167 322.986 353.507C319.847 372.807 316.61 392.21 313.257 411.727C311.619 421.238 309.972 430.718 308.315 440.167C306.813 442.733 305.098 446.7 306.241 450.461C308.257 457.066 317.744 458.56 326.388 459.931V459.941Z" fill="#66A8E5"/>
<path d="M429.33 329.704C427.13 332.662 423.593 337.134 418.748 342.069C412.672 348.262 411.034 348.592 409.087 351.869C408.776 352.394 408.612 353.528 407.788 354.754C405.879 357.608 402.962 358.433 402.003 358.824C394.415 361.946 391.111 386.656 396.964 389.861C398.795 390.871 400.123 388.995 402.003 390.16C406.286 392.818 402.662 404.658 406.393 406.41C407.207 406.791 407.41 406.255 412.081 406.111C413.641 406.059 414.93 406.09 415.783 406.111C415.783 406.111 417.75 405.616 419.397 404.091C423.196 400.578 422.808 390.397 420.085 382.524C418.883 379.041 417.372 376.445 416.383 374.93C424.601 365.316 432.246 359.144 437.78 355.249C444.088 350.807 448.952 348.427 455.212 342.234C460.687 336.824 464.292 331.415 466.482 327.685C466.279 323.017 465.717 316.339 464.069 308.498C462.015 298.729 459.873 288.538 452.577 278.832C450.009 275.411 445.6 270.444 438.516 266.054L410.715 282.016C412.856 283.376 430.919 295.236 431.675 315.464C431.888 321.11 430.696 325.984 429.301 329.714L429.33 329.704Z" fill="#E9F3FB"/>
<path d="M390.673 222.58C378.764 232.72 366.719 233.482 362.717 228.474C359.373 224.291 361.873 216.367 362.629 214.192C356.176 213.389 353.375 210.586 352.183 209.009C351.069 207.546 348.346 203.239 352.261 182.62C353.695 175.056 355.323 168.987 356.476 165.051C350.245 165.267 348.404 164.237 348.055 163.103C347.425 161.104 351.427 158.827 350.701 156.22C350.051 153.891 346.408 154.015 345.739 151.222C345.555 150.439 345.468 148.925 346.262 148.162C348.501 146.029 354.402 153.242 361.68 152.057C364.5 151.593 365.42 150.223 367.765 148.966C377.048 144.009 395.227 148.172 400.518 160.919C403.726 168.647 401.022 176.736 399.733 179.951C400.14 181.425 400.596 183.588 400.654 186.237C400.722 189.72 400.799 193.718 398.261 196.201C396.109 198.303 393.125 198.293 391.739 198.179C391.39 206.31 391.041 214.44 390.692 222.57L390.673 222.58Z" fill="#E9F3FB"/>
<path d="M293.384 97.8567L294.779 96.7026C296.727 96.7026 297.396 104.864 297.328 106.502C297.221 109.027 295.642 115.58 295.826 117.208C295.913 117.971 297.221 118.527 297.58 119.259C299.295 122.865 295.07 135.653 294.498 140.074C294.052 140.785 293.52 140.146 293.248 139.332C291.678 134.612 295.593 126.74 295.613 121.639L291.979 126.977C289.227 124.061 293.558 120.32 293.917 117.744C294.382 114.416 294.837 109.83 295.06 106.471C295.167 104.792 294.983 103.081 295.06 101.412C291 105.039 293.975 112.747 291.436 117.466C289.566 115.395 290.583 112.705 290.593 110.634C290.603 108.264 290.496 105.863 290.593 103.493C290.7 100.876 291.911 98.3204 290.593 95.4661C290.467 95.3012 289.876 95.7855 289.75 96.0535C289.246 97.1457 288.51 102.525 288.355 104.091C287.928 108.419 288.384 113.128 287.521 117.466C285.583 114.653 286.455 110.778 286.087 107.697C285.806 105.389 284.905 101.937 284.449 99.3302C284.294 98.4544 284.449 97.4961 283.335 97.2488C281.465 104.678 282.938 112.417 281.649 119.846C280.864 119.918 280.641 117.672 280.593 117.116C280.283 113.54 280.67 109.192 279.556 105.729C279.304 104.956 278.858 104.338 278.306 104.987C277.928 108.037 277.967 111.16 277.753 114.21C276.106 137.116 275.68 160.27 272.685 183.156C273.402 192.76 270.767 210.473 276.62 218.273C277.996 220.118 288.161 229.134 290.05 230.165C290.632 230.484 291.087 230.546 291.727 230.463C291.523 226.95 294.12 223.23 295.981 220.417C299.227 215.502 303.481 210.669 307.948 206.969C308.171 205.774 307.706 206.248 307.241 205.96C304.906 204.486 302.522 204.393 300.438 201.889C297.793 198.716 295.167 190.215 294.13 186C291.359 174.696 291 158.621 291.707 146.895C291.785 145.545 292.202 144.371 292.299 143.062C293.558 143.567 293.859 145.679 293.975 146.916C295.651 164.021 292.202 180.312 300.274 196.706C302.376 200.983 304.547 201.652 308.51 203.404C320.497 208.701 332.794 211.813 345.537 213.976C349.481 214.646 352.911 216.367 357.156 215.594L353.793 212.936C350.78 210.102 350.15 205.692 349.888 201.632C349.142 190.328 352.34 177.88 354.365 166.844C348.628 167.813 345.576 160.672 349.258 156.437C347.611 153.985 344.268 152.563 344.248 149.306C344.219 144.752 348.299 146.411 351.138 147.379C354.181 148.42 356.468 150.069 359.123 151.841C364.288 147.039 372.273 145.463 378.988 146.308C380.558 149.183 377.215 147.998 376.197 148.08C371.09 148.503 365.189 149.523 361.08 152.872C368.174 156.509 373.232 162.475 379.25 167.432C381.924 169.627 385.103 171.584 387.864 173.728C389.066 174.665 391.372 177.303 392.38 177.839C394.124 178.777 397.215 177.375 399.076 179.333C401.876 173.583 402.351 167.329 399.318 161.538C395.81 154.84 391.081 151.955 385.103 148.111C388.087 147.225 392.603 150.574 394.88 152.583C401.402 158.323 405.045 167.535 402.749 176.386C402.371 177.829 400.966 180.034 400.869 180.91C400.762 181.93 402.283 183.743 402.458 185.557C403.097 192.399 399.522 196.232 394.056 198.788C393.64 203.528 391.411 215.687 394.018 219.366C394.444 219.974 405.2 224.209 407.119 225.198C428.505 236.131 439.93 249.825 451.2 271.691C458.381 285.623 472.877 313.918 467.247 329.406C460.794 347.14 435.56 360.443 421.083 370.129C420.521 370.5 419.9 370.664 419.28 370.871C418.098 372.591 423.699 384.41 424.135 387.306C425.182 394.241 422.885 399.094 420.617 405.297C419.183 407.121 416.732 406.07 415.976 406.606C415.734 406.781 415.685 407.667 415.346 407.977C414.435 408.811 413.204 409.058 413.049 410.367C412.914 411.542 413.592 412.737 413.65 413.922C413.863 418.271 413.456 422.681 413.631 427.04C413.96 435.427 415.453 443.846 414.484 452.285C413.224 455.253 395.646 462.342 391.963 463.424C381.944 466.371 368.387 466.279 358.057 464.723C354.607 464.207 352.01 462.239 352.126 458.241C350.208 458.736 348.473 459.797 346.545 460.333C334.325 463.713 322.164 462.25 310.914 456.572C308.791 455.5 306.049 454.521 305.167 451.976C303.161 446.185 306.776 435.973 307.803 429.842C311.485 407.863 314.15 384.761 318.84 363.091C321.689 349.911 326.515 337.454 326.428 323.584C325.149 305.685 328.124 285.272 326.408 267.652C325.837 261.82 320.788 255.967 316.612 252.504C305.061 242.952 291.514 235.636 279.982 226.053C273.267 220.468 270.96 212.884 270.466 204.064C269.187 181.312 273.112 159.26 274.963 136.838C275.466 130.8 274.749 123.947 274.953 117.775C275.04 115.044 275.796 102.246 276.765 101.01C278.141 99.2478 280.089 101.999 280.554 101.463C280.379 98.2895 280.593 94.6315 283.132 92.5706C285.205 93.1682 285.854 95.4352 286.426 97.3003C287.667 95.971 287.347 92.6427 289.324 92.0244C292.211 91.128 293.374 95.5279 293.423 97.8979L293.384 97.8567ZM371.11 163.258C370.557 162.094 369.472 161.156 368.493 160.394C365.354 157.921 359.879 154.407 356.39 152.459C353.192 150.677 349.646 148.729 345.944 148.997C344.839 150.141 349.927 154.623 350.809 154.871C351.787 155.149 357.175 151.965 358.241 154.644C359.094 156.787 356.361 155.984 354.859 156.385C352.863 156.921 349.326 158.621 349.336 161.177C349.21 164.011 353.609 164.557 355.663 164.423C357.718 164.289 361.216 161.857 362.388 162.022C362.873 162.084 362.844 163.238 363.261 163.568C364.356 164.433 369.53 163.794 371.119 163.258H371.11ZM368.871 166.844C366.158 166.741 363.27 167.576 361.323 165.062L360.518 167.751L355.499 168.071C354.433 174.944 352.999 181.899 352.34 188.844C352.282 189.442 351.884 189.813 352.63 190.349L360.479 190.616C358.493 188.628 358.638 186.866 358.803 184.084C360.77 183.61 359.617 186.35 360.024 187.834C360.082 188.051 361.991 190.833 362.146 190.926C362.427 191.101 367.67 191.76 368.581 191.812C373.939 192.1 380.5 191.08 383.649 185.835C385.829 182.218 381.517 177.066 383.135 172.759C380.538 171.863 375.606 165.567 373.513 165.185C372.747 165.041 371.178 165.608 371.652 166.834C374.143 167.092 375.248 169.07 375.005 171.595L368.852 169.523C367.573 168.709 369.017 166.989 368.852 166.844H368.871ZM390.122 178.725L384.541 173.975C383.591 178.21 387.031 182.012 385.384 185.876C383.988 189.143 380.548 191.729 377.399 192.853C370.848 195.171 367.602 193.017 361.332 192.409C358.26 192.111 355.082 192.956 352.107 191.812C351.041 194.645 351.952 196.696 352.107 199.241C352.359 203.394 351.526 207.402 355.266 210.154C360.935 214.327 371.1 213.791 377.001 210.267C378.969 209.092 384.211 204.156 384.957 202.075C386.401 198.046 387.641 180.662 389.192 178.89C389.376 178.684 389.831 178.694 390.112 178.725H390.122ZM389.027 195.944C393.339 197.252 398.892 195.181 400.064 190.184C402.022 181.817 397.245 179.529 390.142 181.734L389.037 195.934L389.027 195.944ZM362.718 219.16C362.66 223.405 361.875 226.362 366.061 228.382C370.567 230.556 375.713 228.959 380.199 227.341C382.302 226.589 389.512 222.818 390.413 220.932C391.12 219.675 390.151 218.376 390.112 217.078C389.938 211.977 390.045 210.102 389.047 205.135C388.64 203.095 388.281 201.044 388.436 198.942L386.682 203.311C382.903 210.071 372.088 216.697 365.218 219.201C364.21 219.572 363.687 219.376 362.708 219.149L362.718 219.16ZM310.71 209.061C309.673 208.824 309.383 209.659 308.753 210.246C305.429 213.369 296.543 223.333 295.312 227.475C295.07 228.279 294.963 229.041 295.051 229.876L296.998 229.278C299.527 224.106 302.706 219.17 306.243 214.729C306.863 213.956 311.388 209.803 310.71 209.072V209.061ZM451.074 283.984C445.589 285.849 440.735 289.858 435.415 292.001C434.649 292.31 426.509 294.052 428.157 295.875C436.335 293.361 444.582 289.971 451.084 283.984H451.074ZM453.128 344.44C456.268 341.287 463.904 332.693 465.493 328.746C467.8 323.007 465.687 314.454 464.098 308.488C461.956 300.471 457.489 293.083 454.989 285.169C446.539 291.96 437.139 297.771 426.48 299.451C433.011 310.291 436.442 321.853 428.971 333.311C421.713 344.43 412.739 349.602 403.844 358.33C400.878 361.246 399.929 362.874 398.504 366.924C395.801 374.632 395.287 383.73 397.409 391.613C399.183 392.345 398.872 388.779 399.086 388.635L400.2 389.243L399.115 383.658L401.876 382.7L401.421 384.617L406.412 406.421C409.057 406.915 409.464 406.555 409.706 403.824C410.278 397.518 407.458 390.294 407.468 383.895C408.65 383.658 408.776 384.472 409.173 385.348C409.997 387.151 410.898 391.737 411.237 393.86C411.867 397.847 412.08 401.856 411.945 405.895C413.97 406.07 413.379 404.051 413.776 402.793C414.047 401.918 414.765 401.516 414.784 400.269C414.823 397.074 413.33 392.304 413.059 388.944C412.943 387.471 413.127 385.956 413.059 384.483C413.863 384.349 413.796 385.482 414.028 386.121C415.995 391.386 416.916 397.878 416.974 403.515C418.534 403.154 419.125 401.938 419.116 400.248C419.057 394.849 416.237 388.275 416.422 382.7C418.951 384.884 419.978 390.83 420.346 394.292C420.462 395.374 420.104 395.271 421.451 395.189C423.883 386.554 417.439 379.186 416.674 370.778C418.805 369.263 420.259 367.202 422.391 365.553C432.149 357.98 444.058 353.57 453.148 344.45L453.128 344.44ZM416.063 343.698C417.575 342.194 419.397 341.369 420.869 339.566C422.972 337.01 428.719 328.015 429.562 325.026C433.593 310.652 424.048 301.059 417.517 289.93C416.751 289.755 416.916 290.548 416.693 291.115C413.96 298.194 407.526 315.042 406.47 321.873C405.229 329.89 405.132 339.71 404.667 347.902C404.541 350.066 403.408 352.508 404.386 354.734L413.65 346.738C414.406 345.676 415.172 344.594 416.073 343.698H416.063ZM390.684 326.201L374.114 335.032C364.23 339.082 354.297 343.286 344.142 346.573C339.519 348.067 333.947 348.747 329.577 350.715C328.792 351.066 327.717 351.323 327.494 352.354C339.762 350.963 351.448 346.851 362.873 342.101C371.488 338.525 378.969 334.805 386.731 329.416C388.048 328.499 389.783 327.551 390.684 326.201ZM394.037 377.342C392.961 377.239 392.012 377.867 390.965 377.939C376.052 379.032 364.317 377.919 349.84 374.075C340.227 371.52 331.06 367.563 321.893 363.657L316.863 392.201L321.331 383.576C321.815 383.009 322.203 382.277 322.736 383.277C323.656 384.998 320.391 390.325 319.557 392.386C317.949 396.353 315.371 401.835 314.218 405.74C312.28 412.294 311.795 422.124 310.555 429.203C309.315 436.283 307.464 443.351 306.243 450.472C308.045 449.946 307.881 451.512 308.811 452.182C317.358 458.334 330.604 459.498 340.576 458.148C344.287 457.643 348.192 456.953 351.303 454.645L345.954 407.07C347 407.327 347.078 408.554 347.349 409.45C350.266 419.012 350.324 430.079 351.603 440.013C352.485 446.845 354.074 453.614 354.394 460.539C357.136 461.003 360.257 461.549 363.009 461.786C374.259 462.754 383.92 462.456 394.754 458.664C400.762 456.562 406.673 453.656 412.226 450.492L411.383 430.265C403.679 433.15 399.26 426.524 395.83 420.342C392.215 413.819 389.851 406.163 388.455 398.754C389.24 398.764 389.56 400.444 389.831 401.145C393.116 409.646 395.016 416.591 401.024 423.732C404.551 427.936 406.189 427.751 411.383 426.689V409.44C409.231 408.368 407.022 410.563 405.2 408.574C402.749 405.895 402.7 397.27 401.033 393.983C400.219 392.396 400.268 394.313 399.832 394.581C397.661 395.91 396.334 394.334 395.442 392.201C395.151 391.51 394.047 387.584 394.047 387.141V377.331L394.037 377.342Z" fill="#12416D"/>
<path d="M148.61 163.588C149.163 162.743 149.715 162.475 150.578 162.114C157.651 159.229 173.96 158.879 179.086 154.376C180.259 153.345 180.86 151.913 181.47 150.491C180.889 149.327 179.552 148.801 178.389 148.554C177.342 148.327 174.968 148.008 173.912 147.956C172.856 147.905 172.652 149.296 171.528 149.007C170.927 145.04 175.927 143.783 175.443 140.094C174.765 139.383 163.039 143.072 161.043 143.505C151.566 145.607 141.672 146.72 132.379 149.893C131.216 150.285 129.143 150.8 128.251 151.449C126.652 152.614 125.877 155.891 123.716 156.736C123.28 150.872 127.931 148.028 132.399 146.349C141.226 143.031 151.828 141.794 161.024 139.919C164.018 139.311 174.28 135.55 176.296 137.693C177.759 139.249 177.1 143.443 176.567 145.432C188.835 146.019 183.437 159.373 174.328 159.703C173.834 160.054 176.16 166.71 176.412 167.895C176.974 170.543 177.061 175.489 177.982 177.519C179.009 179.786 184.087 180.765 184.183 183.176C184.29 185.825 180.491 188.349 178.331 188.916C178.214 197.541 178.389 208.226 168.776 210.565C165.588 211.338 161.944 211.483 158.679 211.431L159.241 217.974C168.098 217.263 176.693 217.263 185.269 214.43C196.132 210.833 219.35 197.932 223.827 186.453C226.559 179.446 227.77 163.67 228.051 155.86C228.691 138.579 225.27 126.946 223.071 110.562C222.625 107.254 221.656 100.67 221.927 97.6298C222.005 96.6921 222.47 94.6518 222.974 93.9305L224.67 93.6935L225.794 85.9652C227.528 85.687 228.836 87.2327 229.146 88.9329L230.581 86.5732L234.166 88.3352C235.251 84.4917 236.812 87.3357 237.984 89.3451C240.814 94.219 241.831 100.587 242.568 106.172C243.508 106.244 243.062 104.894 243.643 104.049C243.982 103.555 244.496 103.204 245.087 103.173C246.928 103.173 248.013 107.233 248.169 108.841C248.391 111.17 248.459 120.382 247.732 122.072C247.384 122.896 246.889 123.628 245.92 123.411C246.201 117.857 247.161 112.272 245.92 106.759C244.157 108.109 244.215 111.149 243.401 113.303C243.178 113.88 243.343 114.663 242.577 114.488C239.845 106.759 240.629 97.6607 236.143 90.7052L236.976 110.922L235.445 106.914C235.067 103.606 234.544 100.268 234.176 96.96C233.895 94.4251 234.864 91.1689 231.666 90.1076C230.561 96.4035 232.742 102.545 232.499 108.851C232.47 109.573 232.926 111.067 231.947 110.922C231.753 109.737 231.133 108.82 230.871 107.594C229.815 102.535 230.009 96.5993 229.03 91.7151C228.827 90.7052 228.1 89.2729 226.908 89.5099C226.763 98.2995 227.712 107.027 229.137 115.673C228.032 115.889 227.77 115.147 227.422 114.23C226.695 112.293 226.201 109.109 225.861 106.976C225.493 104.688 225.6 100.618 225.125 98.8457C224.999 98.382 224.602 97.8358 224.117 97.8358C224.573 102.04 224.737 106.327 225.309 110.541C228.865 136.745 232.848 155.509 227.305 182.393C226.007 188.669 223.458 192.481 219.379 197.16C214.776 202.425 208.254 205.712 202.876 209.937C209.843 217.614 215.444 226.578 220.483 235.801C224.951 231.875 229.893 228.454 234.321 224.487C239.341 219.994 249.341 208.597 251.24 201.92C254.089 191.925 252.626 172.511 251.463 161.836C250.3 151.161 246.802 138.693 246.327 128.038C246.289 127.131 245.436 126.698 246.763 125.802C247.732 125.853 249.36 134.87 249.671 136.374C253.256 153.737 257.394 183.651 254.06 200.745C252.529 208.597 241.85 221.395 236.124 226.867C230.978 231.782 225.028 236.028 219.563 240.17C213.235 244.961 204.659 249.464 202.033 257.811C200.822 261.665 201.413 264.395 201.19 268.208C200.153 285.612 198.835 303.099 197.827 320.534C197.139 332.353 199.95 339.442 202.14 350.447C204.465 362.153 206.306 373.972 208.729 385.657C212.586 404.256 218.817 424.875 220.706 443.691C220.91 445.742 220.697 447.823 220.764 449.874L219.66 448.689C218.342 453.346 213.051 456.623 209.01 458.478C200.521 462.383 188.157 463.63 179.396 460.271C177.565 459.57 175.54 457.839 173.815 457.283C170.675 456.273 169.968 457.035 166.818 454.614C165.84 453.862 164.793 451.625 163.718 452.522C163.078 453.058 163.262 454.655 162.041 455.5C160.723 456.417 156.711 457.241 155.006 457.53C146.033 459.055 132.079 457.808 123.348 455.047C120.76 454.232 117.66 453.388 117.882 449.863C122.049 451.275 126.284 452.491 130.615 453.264C138.649 454.706 147.428 455.294 155.481 453.862C158.388 453.346 161.528 453.027 163.088 450.08L153.678 402.886C154.638 403.051 154.667 404.061 154.948 404.802C159.987 418.353 160.985 434.283 164.977 448.246C165.908 450.832 168.165 452.481 170.278 453.903C181.557 461.518 201.684 460.003 212.789 452.367C215.997 450.162 217.673 448.493 217.983 444.206C218.148 441.857 217.576 439.549 217.256 437.251C214.853 420.249 210.115 403.556 206.51 386.832C204.33 376.723 203.099 364.636 200.085 355.012C199.891 354.404 199.833 353.899 199.242 353.518C190.182 358.196 179.726 361.947 169.91 364.533C153.882 368.748 134.54 370.365 119.569 361.844C120.092 364.358 118.958 367.027 118.958 369.273C118.958 391.283 118.813 413.273 117.33 435.272C117.214 436.952 117.088 450.471 115.373 450.43C114.355 449.41 113.89 447.432 113.948 445.999C114.21 439.137 115.46 432.037 115.654 425.174L117.912 360.978C118.037 356.959 117.873 349.767 116.08 346.212C115.353 344.769 110.169 339.153 108.667 337.443C105.149 333.445 98.0076 327.726 97.2227 322.265C96.5541 317.597 99.3352 312.671 100.546 308.323C92.6489 306.18 84.1796 301.903 77.658 296.679C76.9991 296.143 74.2761 292.732 73.7044 293.454C68.8786 306.252 65.9424 319.173 72.2896 332.116C77.9972 343.749 94.4707 352.374 104.171 360.659C107.146 363.204 111.971 367.15 112.718 371.19C114.113 378.722 112.194 384.637 111.719 391.86C111.642 393.107 111.38 398.63 112.562 398.692L115.082 397.218L114.811 401.093C109.849 404.627 110.343 397.723 109.19 395.147C108.648 393.931 106.138 392.334 105.314 390.943C102.087 385.502 108.405 375.806 111.157 371.045C102.911 362.349 92.8136 356.094 83.5788 348.644C74.1017 340.988 68.7332 334.197 66.9793 321.1C64.6536 303.758 73.8788 284.695 81.0399 269.445C89.6449 251.123 107.049 229.587 125.828 223.116C129.685 221.787 132.117 223.075 133.251 217.933C133.968 214.708 132.757 209.36 132.234 205.908C129.976 190.925 125.732 176.407 123.454 161.434L125.17 161.785C128.406 175.871 132.001 189.895 134.075 204.249L138.949 201.106L140.674 197.912C136.081 189.39 136.061 175.325 148.601 177.488V163.516L148.61 163.588ZM172.642 160.929C169.842 161.197 152.099 164.103 151.101 165.638L150.597 180.559C149.899 181.713 148.068 180.477 146.73 180.559C138.775 181.023 138.862 190.575 142.777 195.964C143.184 197.613 148.862 200.416 148.61 201.642C148.126 204.063 143.281 201.024 142.467 200.158C141.876 203.816 137.951 206.114 134.647 206.124C134.676 211.225 136.711 215.852 135.199 220.973L157.012 217.995L153.097 205.516C155.074 205.011 156.663 207.958 157.962 208.371C160.588 209.195 168.253 208.134 170.84 206.835C174.58 204.95 175.772 198.788 176.024 194.81C173.107 195.985 170.181 194.182 167.623 192.718C166.848 192.275 166.227 192.811 166.518 191.245C169.667 191.832 172.856 192.924 175.976 191.791C174.871 186.556 178.844 186.917 180.501 183.228L175.443 178.354C175.482 172.378 173.65 166.72 172.652 160.929H172.642ZM117.853 344.069C117.194 327.2 114.239 310.559 110.867 294.123C107.32 300.615 103.299 308.096 101.07 315.216C99.5387 320.08 98.4534 322.017 101.641 326.531L117.853 344.069ZM109.471 391.634L111.148 374.992L107.514 382.71C106.186 386.213 105.082 390.284 109.471 391.634Z" fill="#12416D"/>
<path d="M369.986 181.703L368.28 181.435L367.825 180.724C367.156 172.78 371.013 175.273 369.976 181.703H369.986Z" fill="#1A5B99"/>
<path d="M358.242 179.91C355.781 180.508 356.275 174.572 357.409 174.572C358.911 175.881 358.058 178.158 358.242 179.91Z" fill="#1A5B99"/>
<path d="M359.403 199.499L359.374 197.757C363.027 199.313 366.622 198.128 370.178 197.057C372.804 196.263 372.94 198.005 370.585 199.272C367.339 201.014 362.814 200.344 359.412 199.499H359.403Z" fill="#1A5B99"/>
<path d="M396.265 184.084C396.595 185.938 395.81 186.732 394.705 187.937L396.827 191.214C394.133 190.895 393.911 188.556 390.674 190.029C389.647 188.937 395.248 182.991 396.265 184.084Z" fill="#1A5B99"/>
<path d="M148.048 193.615C146.585 193.368 147.215 191.163 146.857 190.73C146.479 190.277 142.273 190.307 143.872 187.659L146.382 188.257V185.289C147.157 185.145 147.234 186.351 147.351 186.928C147.767 189.03 148.068 191.451 148.058 193.605L148.048 193.615Z" fill="#1A5B99"/>
<path d="M169.309 178.756C169.241 176.798 167.778 174.408 169.59 172.821C171.101 172.893 172.129 179.086 169.309 178.756Z" fill="#1A5B99"/>
</g>
</g>
<defs>
<clipPath id="clip0_981_3890">
<rect width="562" height="446" fill="white"/>
</clipPath>
</defs>
</svg>
