<svg width="562" height="446" viewBox="0 0 562 446" fill="none" xmlns="http://www.w3.org/2000/svg">
<g clip-path="url(#clip0_981_3954)">
<path d="M464.521 325.645C441.847 389.223 322.703 458.834 201.825 399.743C131.489 365.359 93.8886 306.71 128.043 236.841C166.476 158.222 312.245 155.064 382.071 178.34C453.157 202.036 489.822 254.701 464.521 325.645Z" fill="#92C1ED"/>
<g clip-path="url(#clip1_981_3954)">
<path d="M425.966 103.655C423.543 104.185 421.807 99.0054 420.531 97.1317C418.638 94.3359 416.656 91.6186 414.557 88.9797C413.929 88.1949 412.929 87.3709 412.929 86.2624C415.852 84.8498 418.236 87.5279 420.541 90.3335C424.593 95.2777 424.22 99.3487 425.976 103.645L425.966 103.655Z" fill="#1A5B99"/>
<path d="M425.966 103.655C426.005 103.753 426.29 104.215 426.505 104.744C427.732 107.687 428.919 108.423 430.851 110.718C426.839 107.207 421.355 102.773 420.531 97.1318C421.807 99.0055 423.543 104.185 425.966 103.655Z" fill="#E9F3FB"/>
<path d="M412.929 86.2624C412.929 87.3709 413.929 88.1949 414.557 88.9797C413.576 88.9503 411.879 87.4592 411.3 86.8019C411.212 86.7038 411.389 86.3605 411.3 86.2624C411.781 86.1741 412.644 86.3997 412.929 86.2624Z" fill="#E9F3FB"/>
<path d="M411.3 86.8114C411.879 87.4589 413.576 88.95 414.557 88.9892C416.656 91.6281 418.638 94.3454 420.531 97.1412C421.355 102.782 426.849 107.216 430.851 110.728C466.618 142.061 533.011 175.277 460.467 213.977C458.956 214.781 456.21 216.92 455.307 215.33C454.846 206.139 453.178 198.379 448.784 190.335C447.93 188.765 441.308 180.809 441.72 180.015C443.869 175.846 454.915 185.4 458.289 186.803C461.664 188.206 465.735 188.599 469.159 190.06C472.464 184.753 462.664 184.586 459.378 182.997C444.634 175.856 446.449 170.862 437.914 159.355C426.388 143.826 418.275 134.791 402.324 123.765C401.961 123.52 401.824 121.323 401.235 121.048C400.117 120.518 397.037 122.617 395.8 122.676C386.923 123.147 377.907 119.988 378.408 109.639C379.418 112.621 382.341 116.8 386.02 116.163C388.061 115.809 388.953 112.523 389.277 112.356C389.444 112.268 391.366 113.072 393.083 112.356C393.711 112.091 395.398 109.688 395.8 109.639C396.046 109.61 398.224 111.287 400.696 110.728C401.941 110.443 403.334 108.207 403.952 108.011C405.453 107.53 407.641 108.472 409.927 107.471C412.212 106.47 414.282 100.849 413.458 98.5048C412.124 94.679 410.898 101.546 410.741 101.762C402.667 112.935 397.164 86.7526 405.581 85.7324C407.837 85.4577 409.809 89.4601 411.29 86.8213L411.3 86.8114Z" fill="#E9F3FB"/>
<path d="M195.022 150.929C194.002 150.968 193.767 151.488 193.394 151.469C193.335 151.469 193.571 150.399 193.119 150.38C186.802 150.076 181.436 147.643 175.462 151.469C176.698 149.742 178.169 149.879 178.718 148.212C190.814 146.78 188.342 137.539 186.056 138.431C185.507 138.647 185.281 143.631 181.161 144.406C170.822 146.368 173.097 131.663 175.726 130.819C178.983 129.779 181.259 133.556 182.25 133.536C183.015 133.526 182.976 131.908 183.064 131.908C184.595 131.849 186.311 131.996 187.959 131.908C188.097 131.908 188.067 133.262 190.402 132.997C198.25 132.114 207.53 128.121 215.398 126.473L220.018 141.963C219.4 143.572 193.276 145.926 192.845 147.937C192.796 148.143 194.493 150.625 195.022 150.929Z" fill="#E9F3FB"/>
<path d="M163.503 149.3C163.699 149.408 164.406 149.193 164.592 149.3C175.255 155.746 172.165 147.77 175.187 147.123C175.363 147.083 177.315 148.378 178.718 148.212C178.169 149.889 176.697 149.742 175.461 151.468C167.849 162.102 181.818 164.3 182.524 160.974C183.211 157.757 177.904 159.748 176.55 157.717C173.627 153.342 190.402 150.654 191.765 156.089C193.963 164.869 178.865 170.097 178.728 171.304C178.708 171.5 179.052 171.981 179.022 172.677C178.973 174.08 177.835 175.189 176.825 175.924C169.811 193.71 168.565 215.772 173.293 234.342C166.799 235.519 154.262 237.246 157.804 246.565C162.659 236.657 173.421 239.512 182.524 238.688C177.982 250.234 178.591 262.987 179.807 275.092C169.497 275.573 152.418 277.456 145.571 268.029C135.006 253.491 151.437 202.313 152.634 183.262C153.379 171.471 149.387 152.292 151.545 141.963C151.653 141.443 152.958 138.568 153.448 138.431C157.087 137.401 153.811 150.988 158.343 152.557C160.442 153.283 164.327 152.469 163.503 149.3Z" fill="#E9F3FB"/>
<path d="M193.394 151.478C192.904 155.02 195.111 157.001 194.483 160.984C193.218 169.018 178.042 176.945 178.728 171.304C178.876 170.097 193.973 164.869 191.766 156.089C190.402 150.664 173.627 153.352 176.551 157.717C177.904 159.748 183.212 157.757 182.525 160.974C181.838 164.192 167.849 162.102 175.462 151.468C181.446 147.643 186.802 150.075 193.119 150.38C193.571 150.399 193.335 151.468 193.394 151.468V151.478Z" fill="#1A5B99"/>
<path d="M383.283 186.686C386.834 189.413 386.305 191.198 388.345 192.63C395.163 197.398 410.829 184.282 436.364 175.149C440.74 173.58 446.753 171.657 451.423 174.443C455.288 176.758 454.542 180.103 459.398 182.987C464.117 185.793 468.953 185.224 469.728 187.726C469.914 188.334 469.777 189.089 469.178 190.05C465.755 188.579 461.723 188.216 458.309 186.794C454.934 185.391 443.889 175.836 441.74 180.005C441.328 180.81 447.95 188.765 448.803 190.325C453.198 198.369 454.866 206.129 455.327 215.321C456.229 216.91 458.986 214.762 460.487 213.967C533.031 175.277 466.638 142.051 430.871 110.718C428.938 108.423 427.751 107.687 426.525 104.744C427.447 104.047 428.046 104.224 428.968 104.744C435.952 108.668 451.001 122.264 457.77 128.111C479.234 146.662 517.139 177.563 482.765 204.726C476.81 209.435 417.51 245.8 413.478 246.026C413.007 244.789 412.889 245.506 412.389 246.026C397.154 261.986 391.661 301.108 388.483 322.915C387.227 331.528 382.293 364.313 383.587 370.738C383.852 372.033 387.041 375.467 386.844 376.712C386.668 377.85 382.214 379.577 381.41 381.333C381.4 381.362 380.262 381.617 381.41 381.872C390.651 391.614 379.399 393.595 378.153 397.902C377.515 400.099 378.83 405.661 378.153 407.682C377.211 410.478 340.669 421.455 335.5 422.622C309.317 428.528 266.409 431 242.031 418.277C233.399 413.764 239.334 412.724 237.96 406.593C237.901 406.348 235.459 403.905 235.243 402.787C233.997 396.263 242.885 385.62 243.934 379.959C246.544 366.01 239.942 316.372 236.322 301.167C234.86 295.006 233.752 286.03 227.356 284.049C208.099 278.074 161.62 283.254 149.102 275.897C128.315 263.683 148.759 202.656 149.377 181.614C149.701 170.725 145.816 147.338 149.377 138.147C151.408 132.908 153.772 135.635 156.166 134.615C156.872 134.311 157.313 132.339 158.343 131.898C159.148 131.554 161.865 132.241 162.689 131.898C163.523 131.545 164.671 125.825 167.584 125.374C169.958 125.011 171.999 127.493 172.479 127.552C175.834 127.915 180.739 123.824 183.074 131.898C182.986 131.898 183.025 133.516 182.26 133.526C181.269 133.546 178.993 129.769 175.736 130.809C173.107 131.643 170.831 146.357 181.171 144.395C185.291 143.611 185.517 138.627 186.066 138.421C188.352 137.529 190.824 146.769 178.728 148.202C177.325 148.368 175.373 147.074 175.197 147.113C172.175 147.75 175.256 155.736 164.602 149.291C163.68 118.988 153.409 147.701 159.982 149.291C164.416 146.809 162.719 148.839 163.513 149.291C164.337 152.459 160.443 153.283 158.353 152.547C153.821 150.978 157.097 137.381 153.458 138.421C152.968 138.559 151.663 141.433 151.555 141.953C149.387 152.283 153.38 171.461 152.644 183.252C151.447 202.313 135.015 253.481 145.581 268.019C152.428 277.446 169.507 275.563 179.817 275.082C178.591 262.967 177.992 250.214 182.534 238.678C173.431 239.512 162.66 236.647 157.814 246.555C154.272 237.236 166.809 235.5 173.303 234.332C168.575 215.762 169.821 193.7 176.835 175.914C179.425 176.013 174.569 198.006 174.392 200.096C173.98 204.942 173.107 233.783 177.384 235.146C181.534 234.519 185.752 234.244 189.882 233.518C200.025 231.723 243.179 223.188 250.203 219.931C252.881 218.685 251.292 214.644 252.106 211.505C254.519 202.244 258.767 198.065 266.232 192.483C265.997 190.649 259.375 191.846 257.541 190.306C254.137 187.461 246.259 153.725 243.679 147.652C242.149 146.75 225.188 152.145 223.03 151.459C221.823 151.076 221.254 146.789 220.852 146.563C219.292 145.7 198.887 150.762 195.042 150.909C194.522 150.615 192.825 148.133 192.864 147.917C193.296 145.896 219.419 143.552 220.038 141.943L215.417 126.453C207.55 128.101 198.26 132.094 190.422 132.977C188.087 133.242 188.106 131.888 187.979 131.888C187.508 130.132 189.813 129.072 190.971 128.631C201.791 124.472 217.83 122.922 229.553 119.39C231.927 118.674 248.417 113.22 248.839 112.052C248.996 111.621 248.202 106.578 248.025 106.343C247.446 105.617 241.158 105.803 239.334 105.254C233.212 103.4 228.984 96.2094 227.65 90.3137C226.973 87.3217 227.061 76.8448 226.561 75.6381C225.845 73.9214 216.987 74.4315 218.409 64.2293C218.517 63.4641 220.724 61.0313 220.587 60.4231C220.518 60.1386 217.448 58.1079 216.781 56.0773C213.386 45.6396 222.519 45.1099 223.304 43.04C223.912 41.441 223.314 35.6924 224.393 32.72C227.709 23.5478 243.483 23.7833 250.752 27.0107C252.204 27.6582 256.344 31.847 256.726 31.9058C257.59 32.0432 260.964 28.9825 264.878 29.728C267.262 30.1793 269.45 33.9855 269.773 34.0738C272.324 34.7899 276.67 29.7771 283.36 35.1627C292.258 42.3239 285.921 51.4765 287.431 57.7155C287.647 58.5886 290.894 61.5512 291.237 63.1502C292.905 70.9883 285.871 72.8522 285.803 73.4702C285.773 73.735 288.304 75.8049 288.52 78.0906C288.697 80.0035 287.137 85.4382 285.803 87.0568C282.085 91.5595 275.502 88.028 280.908 97.9261C284.949 105.323 295.446 99.3388 302.646 101.183C295.495 96.8667 285.185 87.2726 289.609 78.0906C292.218 72.6658 300.802 74.4119 305.638 75.9128C311.014 77.5903 324.336 87.3021 327.916 87.871C330.192 88.2242 332.547 86.7429 333.891 86.7821C339.227 86.9391 345.329 87.7729 349.645 89.4995C357.719 92.7269 359.71 99.1033 370.295 96.023C371.041 95.8072 373.071 92.6092 374.641 92.2168C376.328 91.795 381.831 92.7171 382.793 92.2168C383.009 92.1089 383.735 88.8226 384.971 87.871C387.237 86.1249 389.63 87.4394 389.866 87.3315C392.397 86.0955 394.055 80.3665 399.371 85.1537C399.636 86.3015 399.891 85.1635 399.911 85.1537C401.059 84.7025 402.187 82.7307 403.443 82.4364C407.543 81.4848 408.936 83.6528 411.32 86.2426C411.408 86.3407 411.232 86.684 411.32 86.7821C409.848 89.421 407.867 85.4186 405.611 85.6933C397.203 86.7135 402.697 112.896 410.771 101.723C410.927 101.497 412.154 94.6398 413.488 98.4657C414.312 100.81 412.301 106.402 409.956 107.432C407.671 108.442 405.483 107.491 403.982 107.971C403.364 108.168 401.971 110.404 400.725 110.689C398.253 111.248 396.085 109.57 395.83 109.6C394.574 109.757 394.359 110.934 393.113 112.317C393.113 112.317 390.474 115.26 386.05 116.123C385.334 116.261 384.725 116.3 384.166 116.271C380.89 116.094 378.81 115.26 377.26 114.829C375.426 114.318 372.669 114.22 368.696 116.123C367.283 123.736 365.881 131.339 364.468 138.951C368.853 137.391 371.139 138.48 371.924 138.951C376.966 141.972 376.897 153.313 371.924 158.482C368.598 161.935 365.047 160.591 361.378 164.437C358.327 167.635 357.572 171.922 357.425 175.149C363.183 179.485 368.264 181.447 371.924 182.428C375.926 183.498 379.507 183.753 383.313 186.666L383.283 186.686Z" fill="#12416D"/>
<path d="M374.621 96.043C375.543 95.9939 376.044 95.837 375.975 96.8572C375.955 97.2104 374.052 96.5433 374.621 96.043Z" fill="#3B8FDE"/>
<path d="M363.202 98.7603L376.24 99.2998C377.525 106.52 377.348 113.073 368.088 111.798C367.725 108.207 363.713 103.253 362.928 100.654C362.653 99.7413 362.143 99.4666 363.202 98.7505V98.7603Z" fill="#E9F3FB"/>
<path d="M394.182 87.9005C400.804 85.7423 398.871 101.311 400.971 105.558C394.035 112.69 388.444 89.7643 394.182 87.9005Z" fill="#E9F3FB"/>
<path d="M380.056 96.0428C384.461 95.1109 383.166 100.438 384.127 102.831C385.137 105.343 389.532 111.13 386.03 111.797C380.213 112.896 377.751 97.1513 380.056 96.0428Z" fill="#E9F3FB"/>
<path d="M387.119 91.1575C387.59 91.0594 388.747 91.03 389.022 91.4322C387.129 94.6891 392.936 105.47 392.828 106.647C391.906 116.3 380.762 92.4819 387.119 91.1575Z" fill="#E9F3FB"/>
<path d="M399.342 85.1831H399.882C399.882 85.1831 399.607 86.3309 399.342 85.1831Z" fill="#E9F3FB"/>
<path d="M413.468 246.026C413.115 246.045 412.742 246.026 412.379 246.026C412.88 245.506 412.997 244.79 413.468 246.026Z" fill="#E9F3FB"/>
<path d="M381.41 381.873C380.262 381.608 381.4 381.353 381.41 381.333V381.873Z" fill="#E9F3FB"/>
<path d="M297.182 411.763C293.877 420.249 310.799 409.399 305.609 424.261C292.14 426.88 303.726 414.608 290.394 415.02C282.321 415.275 287.52 421.21 286.323 422.897C282.164 426.615 281.565 415.962 281.977 414.745C282.321 413.715 286.362 413.333 287.412 413.392C287.834 413.411 294.181 415.854 295.289 415.02C296.329 414.245 294.289 412.754 297.192 411.763H297.182Z" fill="#E9F3FB"/>
<path d="M297.182 411.763C294.278 412.754 296.319 414.245 295.279 415.02C294.17 415.854 287.823 413.411 287.402 413.392C288.039 412.725 287.882 411.459 287.402 410.949C285.136 408.546 259.247 408.742 253.44 407.957C250.154 407.516 238.48 406.329 238.499 402.248C238.499 401.149 246.416 385.032 247.74 382.687C247.083 362.479 246.21 341.868 243.395 321.827C242.1 312.596 238.45 283.607 228.994 280.252L183.623 275.092C180.965 263.007 183.8 250.401 186.88 238.688L251.811 223.748C253.881 228.947 254.931 234.568 256.971 239.777C259.12 245.241 270.45 267.872 270.558 271.296C270.725 276.593 265.241 280.4 264.035 284.883C260.738 297.125 271.156 300.265 280.064 294.388C284.007 291.789 297.594 275.681 298.271 271.296C299.164 265.44 296.201 264.665 295.554 260.976C293.592 249.822 290.296 236.677 291.747 225.111C291.904 223.875 293.7 214.732 294.19 214.517C308.522 234.274 336.461 239.64 353.961 220.491C355.619 220.972 355.404 241.307 355.315 244.133C354.844 259.73 349.498 269.54 358.033 283.804C361.701 289.935 379.153 301.942 384.117 292.495C388.669 283.833 377.839 276.799 378.143 269.128C378.319 264.723 383.823 253.638 385.206 248.478C389.552 232.331 394.221 214.997 389.012 198.487L436.021 182.458C440.749 189.227 457.171 208.866 454.768 216.959C454.11 219.157 420.266 236.962 415.371 240.601C413.399 242.063 407.641 247.046 405.865 249.028C392.789 263.517 380.419 346.361 380.33 367.492C380.311 371.317 382.557 375.212 382.508 375.643C382.322 377.193 376.279 378.773 378.702 384.335C379.663 386.542 382.773 385.944 381.419 389.77C377.584 400.629 333.528 408.762 322.462 410.145C316.174 410.93 301.871 410.174 297.192 411.773L297.182 411.763Z" fill="#92C1ED"/>
<path d="M371.904 382.422C372.708 382.461 373.316 382.942 373.258 383.776C372.934 387.533 340.032 398.736 334.95 399.266C331.477 399.629 328.642 398.236 332.772 396.548C338.266 394.302 348.841 393.046 355.6 390.574C358.553 389.495 370.992 382.383 371.904 382.422Z" fill="#1A5B99"/>
<path d="M372.443 186.794C379.526 185.538 386.079 195.809 387.384 201.734C391.867 222.031 382.724 244.211 376.514 263.134C375.661 265.734 376.142 272.051 373.522 272.64C369.579 273.533 361.77 269.148 359.661 265.851C354.835 258.278 358.572 234.47 358.033 224.012C357.778 219.078 354.54 207.797 355.315 203.902C355.924 200.832 369.353 187.333 372.434 186.784L372.443 186.794Z" fill="#E9F3FB"/>
<path d="M268.655 197.124C272.618 196.722 279.377 198.84 282.781 200.93C297.094 209.71 287.421 221.599 287.941 234.892C288.177 240.748 293.553 255.375 292.836 258.798C292.218 261.712 276.591 270.521 274.09 270.482C270.146 270.413 270.029 263.095 268.93 260.427C262.995 246.036 249.506 220.981 256.972 206.09C258.796 202.441 264.417 197.555 268.655 197.124Z" fill="#E9F3FB"/>
<path d="M294.739 78.6599C302.136 77.1001 315.791 85.5464 322.452 88.9799C323.58 89.5587 327.043 92.7272 327.347 92.7861C328.691 93.0608 338.903 90.1767 343.651 91.1577C344.367 91.3048 355.747 97.0141 356.689 97.6812C366.479 104.528 366.381 118.076 362.938 128.386C358.709 111.631 346.614 101.978 331.144 96.0528C328.201 94.9246 324.032 93.3649 320.824 92.2466C317.214 90.9909 309.513 89.5685 306.148 91.707C302.352 94.1202 306.845 97.9657 304.52 98.7701C299.664 100.467 283.262 81.0829 294.739 78.6599Z" fill="#3B8FDE"/>
<path d="M292.562 264.498C295.819 264.243 295.476 269.913 295.005 271.835C293.945 276.132 281.31 290.778 277.347 292.76C268.999 296.929 263.741 292.711 267.292 283.794C269.548 281.537 276.592 287.08 277.072 284.882C277.798 281.567 269.597 280.448 269.46 279.987C271 275.455 279.858 280.929 279.78 277.81L274.345 274.553C277.935 274.18 290.757 264.645 292.552 264.498H292.562Z" fill="#92C1ED"/>
<path d="M299.625 190.051C300.733 190.031 306.609 189.825 306.962 190.325C306.933 201.205 305.677 207.748 294.19 210.7C292.365 210.7 291.914 206.168 290.658 204.452C286.833 199.252 280.162 195.417 273.815 194.132C280.662 191.454 291.993 190.217 299.625 190.061V190.051Z" fill="#3B8FDE"/>
<path d="M356.14 265.047C360.476 274.199 367.715 275.681 377.064 276.73C374.337 275.7 366.469 281.508 369.187 283.519C369.677 283.882 377.142 276.809 380.331 279.987C380.409 281.184 368.323 283.175 373.542 287.325C383.646 278.594 384.009 291.426 379.516 292.76C369.138 295.84 350.46 276.358 356.149 265.047H356.14Z" fill="#3B8FDE"/>
<path d="M355.6 178.102L370.001 182.722L353.432 199.841C351.283 199.232 354.403 180.555 355.61 178.102H355.6Z" fill="#3B8FDE"/>
<path d="M353.422 211.789C355.414 218.774 341.484 227.397 336.029 228.633C328.103 230.428 313.349 229.918 307.502 223.473C307.129 221.677 308.866 221.962 309.945 222.119C312.77 222.521 318.784 226.553 323.531 227.014C336.147 228.24 346.182 221.432 353.422 211.799V211.789Z" fill="#3B8FDE"/>
<path d="M305.06 150.929C310.229 152.577 315.968 153.293 321.364 152.018C328.083 154.127 308.905 156.461 307.237 155.824C306.757 155.637 304.618 151.91 305.06 150.929Z" fill="#E9F3FB"/>
<path d="M362.663 142.777C373.797 140.452 371.688 155.588 365.38 159.081C363.212 160.287 355.198 160.523 354.786 161.523C354.374 162.524 355.904 164.094 355.875 164.241C352.784 178.288 350.077 185.999 350.44 201.194C350.577 207.178 354.374 205.55 348.811 212.603C338.217 226.043 314.82 225.513 302.892 214.506C296.957 209.032 304.049 209.847 306.423 207.169C309.14 204.098 308.208 197.967 309.14 195.76C309.543 194.818 323.934 186.372 326.259 184.616C336.843 176.631 344.25 168.39 352.068 157.717C353.785 155.373 359.602 144.121 360.22 143.591C360.318 143.503 362.378 142.836 362.663 142.777Z" fill="#E9F3FB"/>
<path d="M363.202 147.672C365.498 147.201 368.784 148.506 368.912 151.204C366.038 150.478 362.447 149.183 360.485 152.018C358.621 150.841 362.3 147.859 363.202 147.672Z" fill="#1A5B99"/>
<path d="M312.672 103.116C312.917 103.086 317.135 104.205 317.567 104.205C324.866 104.156 340.198 101.605 345.005 108.276C346.487 110.336 351.431 126.601 350.979 128.926C350.666 130.534 339.796 147.044 338.207 147.672C332.409 149.977 327.455 145.239 322.452 143.866C312.289 141.09 303.078 139.138 293.376 144.68C294.681 139.942 296.025 135.155 297.722 130.554C298.595 128.19 306.129 110.669 306.963 109.904C311.308 105.872 315.203 112.877 316.204 109.365C317.204 105.853 312.28 104.244 309.68 104.47C310.327 104.244 312.27 103.155 312.672 103.116Z" fill="#E9F3FB"/>
<path d="M330.055 109.09C333.263 107.785 343.171 113.004 337.668 116.153C335.627 113.583 332.723 112.406 329.516 112.896C327.926 112.131 328.799 109.6 330.055 109.09Z" fill="#1A5B99"/>
<path d="M308.866 126.473C314.977 125.335 307.414 130.132 306.963 131.093C306.217 132.682 306.815 136.43 305.609 136.803C302.156 137.852 304.079 127.375 308.866 126.483V126.473Z" fill="#1A5B99"/>
<path d="M325.709 120.499C329.025 120.283 326.984 129.151 324.62 128.651C322.021 128.101 324.316 120.597 325.709 120.499Z" fill="#1A5B99"/>
<path d="M308.326 116.692C311.083 116.28 309.288 124.491 307.237 123.755C305.187 123.02 306.894 117.595 308.326 116.692Z" fill="#1A5B99"/>
<path d="M283.331 103.655C283.743 103.459 292.14 103.489 292.572 103.655C293.003 103.822 295.161 107.982 296.378 109.09C297.212 109.845 301.97 111.778 302.087 112.082C302.637 113.514 292.425 136.43 291.218 140.884C287.088 156.187 284.204 168.283 300.724 176.474C302.009 177.112 307.571 177.896 308.061 178.917C308.434 179.711 307.973 185.636 307.247 186.254C304.245 188.815 267.498 186.519 261.062 187.343L243.405 144.69L225.198 147.133L218.949 126.208L249.654 116.153C257.688 124.904 271.696 122.451 278.73 113.71C280.712 111.248 282.85 103.901 283.35 103.655H283.331Z" fill="#E9F3FB"/>
<path d="M168.124 129.19C173.637 128.259 172.479 147.515 170.302 148.212C164.504 149.379 163.994 130.044 168.124 129.19Z" fill="#E9F3FB"/>
<path d="M164.592 149.301C164.416 149.193 163.7 149.409 163.503 149.301C162.709 148.849 164.406 146.819 159.972 149.301C153.399 147.711 163.67 118.998 164.592 149.301Z" fill="#E9F3FB"/>
<path d="M245.837 46.0515C248.349 45.7474 259.228 45.8455 260.238 48.4942C261.033 50.5837 259.454 53.6836 261.867 57.1857C263.839 60.0404 267.419 59.9619 269.205 61.2568C274.08 64.808 272.658 76.0501 276.268 81.367C274.737 72.8226 287.019 73.4995 285.773 81.0923C284.822 86.939 274.09 87.4393 273.815 89.2443C276.856 99.113 283.998 106.363 273.001 113.965C266.723 118.311 257.482 119.645 252.077 113.151C251.959 111.984 266.409 99.2994 264.3 94.9439C254.441 97.6023 246.848 106.353 236.047 99.2896C227.738 93.8648 228.013 81.2297 228.709 72.391C229.661 60.3347 231.819 47.7192 245.828 46.0319L245.837 46.0515Z" fill="#E9F3FB"/>
<path d="M233.34 62.8953C235.458 62.0124 238.706 63.6114 239.588 65.8873C240.334 67.8002 239.951 77.8259 236.871 74.5788C235.87 72.2833 243.61 63.1209 233.34 65.6126C232.202 64.9357 232.231 63.3563 233.34 62.8953Z" fill="#1A5B99"/>
<path d="M250.723 62.3555C253.95 61.5805 257.894 63.5229 258.6 66.9759C255.196 63.3953 249.075 66.7895 248.545 66.7012C246.495 66.3579 249.134 62.7381 250.723 62.3555Z" fill="#1A5B99"/>
<path d="M251.262 48.2293C252.91 47.8369 260.68 49.8773 259.14 52.3004C258.502 53.3108 243.356 50.0931 251.262 48.2293Z" fill="#1A5B99"/>
<path d="M278.985 79.7487C280.408 79.2975 284.312 80.406 284.145 81.6518C283.959 82.9958 278.034 81.2692 276.807 83.5549C276.572 82.4366 278.112 80.0234 278.985 79.7487Z" fill="#1A5B99"/>
<path d="M248.005 75.9422C263.446 74.5884 251.89 90.0095 240.942 88.9795C236.636 88.5773 228.788 82.3088 231.701 77.5706C237.352 78.8753 243.238 76.3542 248.005 75.9422Z" fill="#1A5B99"/>
<path d="M244.199 80.8278C244.69 80.8278 245.347 80.661 245.553 81.1024C242.002 84.5261 241.089 87.6456 236.861 82.7309C236.979 81.8578 243.444 80.818 244.199 80.8278Z" fill="#E9F3FB"/>
</g>
</g>
<defs>
<clipPath id="clip0_981_3954">
<rect width="562" height="446" fill="white"/>
</clipPath>
<clipPath id="clip1_981_3954">
<rect width="356.784" height="402.459" fill="white" transform="translate(139.803 25)"/>
</clipPath>
</defs>
</svg>
