<svg width="153" height="153" viewBox="0 0 153 153" fill="none" xmlns="http://www.w3.org/2000/svg">
<path d="M33.1965 101.671C43.2257 101.671 51.356 92.7906 51.356 81.8357C51.356 70.8807 43.2257 62 33.1965 62C23.1674 62 15.0371 70.8807 15.0371 81.8357C15.0371 92.7906 23.1674 101.671 33.1965 101.671Z" fill="#92C1ED"/>
<path d="M63.3917 127.254C63.3917 133.09 54.4323 135.101 33.1959 135.101C11.9594 135.101 3 133.09 3 127.254C3 114.467 9.71789 105.404 22.7509 101.253C25.7088 103.067 29.2341 104.102 33.1959 104.102C37.1576 104.102 40.6829 103.067 43.6408 101.253C56.6738 105.404 63.3917 114.467 63.3917 127.254Z" fill="#92C1ED"/>
<path d="M119.61 103.976C129.639 103.976 137.769 95.0948 137.769 84.1399C137.769 73.1849 129.639 64.3042 119.61 64.3042C109.58 64.3042 101.45 73.1849 101.45 84.1399C101.45 95.0948 109.58 103.976 119.61 103.976Z" fill="#92C1ED"/>
<path d="M149.805 129.559C149.805 135.395 140.845 137.405 119.609 137.405C98.3725 137.405 89.4131 135.395 89.4131 129.559C89.4131 116.771 96.131 107.708 109.164 103.557C112.122 105.371 115.647 106.406 119.609 106.406C123.571 106.406 127.096 105.371 130.054 103.557C143.087 107.708 149.805 116.771 149.805 129.559Z" fill="#92C1ED"/>
<path d="M78.4672 119.383C86.1207 119.383 92.3251 112.606 92.3251 104.246C92.3251 95.8865 86.1207 89.1094 78.4672 89.1094C70.8137 89.1094 64.6094 95.8865 64.6094 104.246C64.6094 112.606 70.8137 119.383 78.4672 119.383Z" fill="#92C1ED"/>
<path d="M101.511 138.906C101.511 143.36 94.6739 144.894 78.4679 144.894C62.2619 144.894 55.4248 143.36 55.4248 138.906C55.4248 129.148 60.5514 122.231 70.4971 119.064C72.7544 120.448 75.4446 121.238 78.4679 121.238C81.4912 121.238 84.1814 120.448 86.4387 119.064C96.3844 122.231 101.511 129.148 101.511 138.906Z" fill="#92C1ED"/>
</svg>
