<svg width="538" height="688" viewBox="0 0 538 688" fill="none" xmlns="http://www.w3.org/2000/svg">
<mask id="mask0_697_4929" style="mask-type:alpha" maskUnits="userSpaceOnUse" x="0" y="0" width="538" height="688">
<rect width="537.543" height="687.873" rx="10" fill="#0B2741"/>
</mask>
<g mask="url(#mask0_697_4929)">
<path d="M362.348 789.357C296.603 789.751 271.139 783.967 260.964 777.89C258.839 776.618 250.521 771.24 244.696 774.292C238.857 777.343 239.366 786.84 232.536 789.357C229.903 790.323 227.308 789.853 225.642 789.357C210.748 793.209 181.214 798.613 146.414 789.357C125.936 783.916 110.253 775.156 99.7473 768.036C114.209 708.6 128.671 649.164 143.145 589.741C219.283 579.354 295.42 568.954 371.557 558.567C378.247 590.3 383.92 633.437 380.842 684.305C378.298 726.221 370.501 761.807 362.348 789.37V789.357Z" fill="#92C1ED"/>
<path d="M267.819 263.636C264.983 265.086 246.069 274.303 224.447 265.696C203.981 257.546 196.388 239.506 195.141 236.378C197.049 233.721 199.53 229.475 200.458 223.868C201.005 220.524 201.145 215.896 197.189 204.492C190.728 185.829 183.135 173.115 183.135 173.115C180.018 167.903 177.932 165.144 178.161 160.783C178.53 153.638 184.801 147.84 183.3 146.328C182.702 145.717 181.583 146.582 180.54 146.328C175.478 145.158 170.644 117.506 183.3 98.0285C194.315 81.0686 214.144 77.1782 219.715 76.2755C237.624 70.8341 249.313 73.0717 256.779 76.2755C266.077 80.2676 269.32 85.976 277.359 85.1751C285.397 84.3741 288.386 78.03 299.554 76.2755C304.311 75.5254 308.343 75.9577 310.925 76.4154C310.963 78.0173 310.836 80.4456 309.869 83.1155C307.948 88.4425 304.832 88.8112 302.67 93.4008C299.846 99.3762 303.497 102.237 300.609 106.776C297.849 111.098 293.537 110.056 290.574 113.285C285.333 118.981 290.447 131.313 292.647 137.517C302.365 164.877 301.538 202.776 285.588 217.867C281.022 222.19 278.948 221.109 274.649 226.156C265.53 236.899 266 252.27 267.845 263.636H267.819Z" fill="#E9F3FB"/>
<path d="M99.76 481.141C121.281 502.411 142.802 523.669 164.31 544.938C170.644 550.431 181.583 561.568 186.887 578.884C192.954 598.666 189.43 619.3 186.887 619.517C185.017 619.669 183.949 608.774 181.061 608.723C174.981 608.608 176.215 657.212 158.586 662.209C154.135 663.468 150.09 661.497 145.206 659.119C133.377 653.36 124.486 640.316 124.117 625.695C123.596 605.43 139.736 593.593 141.097 592.627C104.911 564.734 68.7123 536.84 32.5261 508.933C28.5705 501.153 23.4701 488.579 22.249 472.445C20.2267 445.569 30.2112 425.176 34.9682 416.772C58.944 427.414 82.9197 438.055 106.908 448.696C104.53 459.516 102.151 470.348 99.76 481.167V481.141Z" fill="#E9F3FB"/>
<path d="M464.7 343.859L378.273 333.066V259.848C381.898 259.733 385.675 259.733 389.593 259.848C399.387 260.14 408.341 261.195 416.341 262.607C393.065 225.508 378.387 209.743 369.013 202.433C361.967 196.941 355.836 194.602 348.434 185.46C343.002 178.748 339.492 171.603 333.005 171.158C328.77 170.865 327.688 173.726 324.254 173.116C314.969 171.45 308.953 147.955 314.995 143.2C317.042 141.598 319.612 142.794 322.703 140.213C324.852 138.42 327.18 134.848 326.162 133.004C323.911 128.923 308.126 138.242 298.968 131.008C298.256 130.449 294.72 127.524 295.28 124.74C296.386 119.261 312.68 117.786 328.884 117.582C329.774 115.879 331.263 113.743 333.514 113.285C341.031 111.747 349.515 130.385 358.215 143.811C365.147 154.515 380.333 167.077 410.694 192.211C424.94 203.997 443.777 218.91 466.773 235.349C482.545 257.292 498.33 279.236 514.101 301.18C514.648 306.1 514.839 315.025 509.98 323.81C502.094 338.087 484.224 345.995 464.7 343.872V343.859Z" fill="#E9F3FB"/>
<path d="M290.548 115.841C289.874 119.566 294.402 117.43 293.118 122.159L332.166 112.23C336.643 111.136 341.006 117.074 343.956 120.278C360.339 138.051 375.03 157.859 393.536 173.7C402.401 181.29 413.785 187.38 423.185 194.665C447.809 213.723 472.141 234.153 491.499 258.856C497.478 266.497 520.245 298.739 519.278 306.863C518.82 310.639 514.509 320.644 512.524 324.344C494.221 358.391 439.999 343.936 409.384 339.664C403.381 338.825 396.271 339.028 390.483 338.214C386.044 337.592 363.277 330.904 361.751 335.328C359.716 339.562 361.776 342.55 361.84 346.516C362.298 376.279 361.204 406.003 360.466 435.537C358.914 497.999 374.584 559.164 378.273 621.22C380.601 660.352 380.779 700.413 375.665 739.329C373.567 755.285 369.891 771.228 367.576 787.183C364.6 791.658 323.898 791.302 316.585 790.946C303.535 790.311 286.351 788.683 273.695 785.505C264.614 783.229 255.965 779.212 246.82 777.089L237.56 788.404C221.394 794.875 204.274 797.062 186.849 796.032C156.666 794.265 123.952 787.692 98.4754 771.329C97.2671 770.554 93.4131 771.622 93.4259 766.117C108.371 730.747 117.44 693.331 125.516 655.839C126.013 653.563 127.59 651.173 127.742 649.062C127.946 646.164 122.489 632.217 121.675 627.246C121.395 625.53 120.492 616.172 120.696 615.359C121.777 611.163 131.787 598.984 134.369 593.504C135.069 592.029 135.832 590.567 135.234 588.902C130.388 585.901 124.652 582.596 120.174 579.15C111.818 572.717 104.682 564.835 96.5548 558.262C72.1975 538.505 15.9403 511.628 18.2934 474.988C20.532 439.987 39.0003 408.902 53.8055 378.186C65.38 354.157 84.0772 306.736 103.627 290.678C113.382 282.669 127.437 276.528 138.376 269.472C150.929 261.373 162.593 251.8 175.643 244.426C181.545 241.095 187.434 240.536 191.898 235.247C195.727 230.695 198.232 225.826 197.406 219.749C196.63 214.104 189.825 191.601 187.268 186.655C185.666 183.566 182.079 181.634 180.095 178.57C176.368 172.823 175.236 165.233 176.152 158.495C176.47 156.155 178.734 152.456 178.416 150.981C178.161 149.824 176.368 148.616 175.808 147.243C171.585 136.869 168.202 118.256 174.142 108.174C175.261 106.267 176.902 107.602 177.258 108.924C178.25 112.599 176.215 115.688 176.05 118.981C175.554 128.363 176.05 137.937 180.527 146.341C183.198 139.462 196.859 142.425 198.779 141.064C199.034 140.886 199.988 138.128 201.45 136.754C216.446 122.63 240.689 104.042 258.305 93.1467C262.108 90.7947 267.234 88.0613 271.47 86.5865C271.152 84.7303 269.155 84.0819 267.667 83.4081C238.361 70.1859 197.456 74.4958 179.255 103.127C177.78 103.063 178.823 99.084 179.204 97.9779C190.461 64.9098 245.204 65.2657 271.113 78.6913C273.314 79.8356 274.993 82.7343 277.142 82.7851C282.319 82.9122 297.34 73.4533 304.476 71.915C313.99 69.8681 317.857 75.6146 314.003 83.9802C312.12 88.0867 306.524 92.7653 305.163 95.4733C303.954 97.8889 304.845 100.851 304.298 103.508C303.051 109.496 296.31 114.595 290.548 115.841ZM310.899 76.4283C309.691 75.2332 295.827 82.4418 293.487 83.8149C292.329 84.4887 290.663 84.9973 290.548 86.5992C296.145 85.0354 299.134 92.2568 303.687 89.1928C305.086 88.252 312.298 77.8268 310.899 76.441V76.4283ZM248.575 109.471C258.776 110.628 264.817 109.09 272.106 101.995C279.216 110.755 286.694 113.425 295.687 105.085C306.079 95.4479 292.952 92.9052 284.799 91.8626C283.769 91.7355 282.383 92.8162 281.162 92.689C279.712 92.5237 278.414 90.8074 277.193 90.7947C273.835 90.7438 252.264 105.886 248.575 109.484V109.471ZM268.913 113.285C259.921 118.434 250.877 118.142 241.77 113.463L219.868 131.11C218.977 132.966 221.623 141.446 221.877 144.408C222.322 149.71 221.572 168.5 226.927 171.145C229.28 172.302 237.471 173.293 240.32 173.077C249.084 172.454 258.89 168.577 266.98 167.928C275.947 167.216 284.799 171.958 293.817 165.475L286.707 117.112L277.753 115.09L268.926 122.172C267.501 118.65 267.87 116.794 268.913 113.272V113.285ZM337.457 117.264C323.339 117.798 310.429 123.977 296.908 127.283C296.552 128.821 297.557 130.626 298.969 131.008C301.004 131.567 313.341 127.13 316.941 126.329C319.714 125.719 331.148 123.265 332.878 123.634C337.699 124.664 345.712 132.241 346.5 137.441C343.969 139.666 336.846 130.131 333.107 129.762C330.589 129.508 327.841 131.199 326.15 133.004C325.539 134.301 345.661 140.378 338.207 145.082C332.242 144.116 325.501 134.975 321.062 141.903C321.036 143.2 333.018 148.921 334.455 151.388C335.422 153.066 335.892 156.079 333.158 155.24C330.601 154.452 321.227 147.739 320.4 147.79C319.307 147.853 316.992 151.184 317.221 152.71C310.174 152.303 313.265 140.073 319.79 141.255C317.551 137.95 319.039 135.775 319.777 132.368C318.175 130.868 304.412 135.775 301.067 135.877C298.32 135.953 297.086 133.258 294.339 133.64C294.415 136.615 296.412 138.967 296.806 141.967C298.383 153.816 300.177 168.259 300.724 180.006C301.678 200.92 294.873 220.652 274.509 228.954L273.988 235.336C288.526 232.971 304.425 229.31 319.167 230.225C343.995 231.751 367.958 245.392 391.005 253.771C393.536 254.699 409.359 260.191 410.084 259.492C410.389 257.47 409.092 256.034 408.087 254.495C394.426 233.543 372.282 213.85 354.73 195.949C350.952 192.097 337.393 175.366 332.992 174.501C331.708 174.247 328.592 175.951 325.577 175.569C316.686 174.476 313.774 164.864 313.392 157.16C313.265 154.617 313.685 155.126 315.961 155.227C317.628 164.038 318.518 169.517 328.693 170.471C326.366 165.741 319.179 163.428 319.79 157.77C322.016 155.367 334.303 169.365 336.299 171.17C362.018 194.627 389.593 220.893 410.631 249.41C413.289 253.02 421.747 264.399 422.803 267.756C423.312 269.37 422.777 270.133 421.073 269.497L394.833 262.022C397.67 278.689 395.469 295.598 394.859 312.266L392.34 331.883C420.081 334.782 450.086 343.541 478.043 340.744C486.755 339.867 498.164 335.201 503.519 328.069C506.483 324.128 513.466 310.511 513.135 305.935C512.893 302.616 502.705 285.936 500.161 281.944C478.678 248.253 450.696 224.428 419.394 200.526C404.894 189.452 389.059 178.887 375.716 166.047C366.38 157.071 363.277 151.108 355.951 141.306C349.934 133.271 341.362 126.787 337.444 117.214L337.457 117.264ZM294.364 173.052C291.172 173.382 289.696 175.264 286.148 175.633C279.979 176.294 274.548 174.082 269.587 174.234C257.631 174.59 246.158 181.468 232.79 178.099C228.695 177.069 222.106 175.251 220.313 171.424C215.391 160.898 217.693 146.226 215.505 134.911L204.109 142.615C213.546 165.792 209.209 206.527 236.466 217.588C256.728 225.801 276.15 229.068 289.086 207.824C295.763 196.877 296.17 185.422 294.364 173.052ZM267.577 256.885C267.514 252.639 269.015 247.693 265.148 244.833C248.702 232.157 222.73 222.559 214.513 202.636C207.797 186.338 206.296 167.382 203.498 150.078C199.339 147.18 188.706 147.052 185.233 150.434C183.949 151.68 181.29 159.995 181.112 162.22C180.553 169.454 183.707 177.451 190.423 180.947C194.366 183.007 205.164 184.342 206.691 186.299L210.328 204.238C210.455 208.599 203.765 214.587 202.989 217.117C201.819 220.957 203.816 224.873 203.409 227.835C203.002 230.797 197.24 237.523 198.232 239.175C217.794 256.377 241.77 264.73 267.565 256.885H267.577ZM204.058 190.838L193.882 189.567C195.345 193.152 198.194 208.688 200.878 209.896C201.755 207.696 204.846 204.709 205.062 202.738C205.342 200.157 202.862 194.398 204.058 190.825V190.838ZM144.277 396.799C141.873 396.239 141.81 397.612 140.678 398.922C130.642 410.441 113.688 443.903 107.57 458.638C104.568 465.885 100.345 478.941 106.45 485.476C107.137 486.214 108.88 486.544 109.961 487.638C122.807 500.567 136.468 511.743 148.691 525.245C150.294 527.012 152.354 529.16 154.44 530.292C154.491 528.003 154.236 525.69 154.542 523.401C156.539 508.513 160.965 493.308 163.254 478.713C165.086 467.105 164.526 461.346 161.448 450.183C156.501 432.219 148.373 414.979 144.265 396.799H144.277ZM102.304 454.01C78.5571 449.446 56.1585 438.004 38.0718 422.239C36.8126 422.226 31.1017 439.885 30.3894 442.517C24.3478 464.969 20.2522 486.137 36.113 505.551C56.998 521.481 78.6843 536.699 99.1241 553.176C104.555 557.563 110.126 563.83 115.659 568.433C126.013 577.014 137.854 582.85 145.549 594.496C144.099 596.593 142.166 593.555 141.098 592.601C140.144 592.614 136.76 601.539 135.616 603.637C133.199 608.048 125.02 618.385 125.224 622.351C125.389 625.644 128.569 635.866 129.955 639.337C130.591 640.938 130.642 643.087 132.83 643.443C131.762 631.581 134.98 620.431 137.93 609.116C141.81 609.015 141.912 611.278 141.454 614.494C139.94 625.008 138.401 631.81 137.969 642.833C137.88 644.994 136.582 646.914 136.671 649.062C136.875 653.983 141.237 659.996 146.834 658.699C146.808 642.477 145.982 626.038 150.662 610.388C154.376 610.146 154.771 612.854 154.415 615.994C153.359 625.504 147.152 651.364 152.583 658.674C153.372 659.729 157.569 661.992 158.281 661.242C157.493 643.138 161.601 625.275 165.925 607.845C169.029 608.773 168.686 612.282 168.507 614.85C167.973 622.618 164.628 632.382 163.471 640.366C162.695 645.744 162.262 651.974 162.11 657.428C163.903 657.72 163.839 655.279 164.323 653.932C166.943 646.621 169.69 639.565 171.675 632.026C172.845 627.538 177.207 611.634 177.373 608.392C177.5 605.798 175.49 603.077 176.114 600.217C181.914 602.823 181.99 609.154 184.75 613.833C185.297 614.748 185.907 617.8 187.548 615.473C187.79 615.143 188.833 608.125 188.795 607.311C186.607 564.123 158.383 542.23 130.286 514.451C126.076 510.281 109.986 491.82 107.43 490.231C106.756 489.812 105.369 490.867 105.089 490.625C104.86 490.435 101.999 486.188 101.757 485.705C100.294 482.832 99.6074 479.221 98.5136 476.157L102.329 453.997L102.304 454.01ZM249.847 773.122C253.192 774.584 256.931 773.974 260.353 774.698C290.205 781.017 309.742 784.653 340.751 783.267C348.472 782.924 356.587 784.564 363.76 780.839L371.85 725.357C375.106 700.057 373.707 674.515 374.533 649.215C375.36 623.915 371.354 600.166 368.199 575.323C367.716 571.548 369.458 567.136 366.177 564.606C348.726 572.361 331.059 580.091 312.451 584.63C281.505 592.169 240.257 594.75 208.573 591.216C202.798 590.567 197.291 586.753 191.313 587.49C191.504 593.962 196.477 623.152 186.861 623.165C183.287 623.165 182.842 617.812 179.878 616.732C177.818 623.699 177.36 631.454 175.465 638.396C174.46 642.045 167.108 662.463 165.34 663.874C163.153 665.641 157.849 665.577 155.051 667.154L148.551 662.577C140.563 668.069 135.069 660.543 132.868 652.877C132.309 650.944 133.39 650.741 130.261 651.059C129.841 671.171 123.011 690.572 118.775 710.113L132.309 713.317C139.838 712.554 147.241 711.08 154.122 707.952C159.579 701.341 163.445 694.959 166.968 687.114C171.547 676.918 174.905 666.188 179.878 656.144L182.257 657.886C174.982 673.002 171.598 695.035 161.334 708.181C150.37 722.229 131.927 718.263 116.384 717.284C113.064 734.918 105.089 751.013 99.7346 768.011C105.878 768.748 111.767 772.83 117.542 775.004C143.323 784.729 186.531 792.18 213.483 788.264C216.243 787.857 232.968 784.183 234.024 783.369C239.532 774.991 245.739 766.88 250.864 758.247C266.713 731.65 280.259 703.388 297.073 677.299C298.205 675.532 299.528 673.523 301.97 673.93C302.288 679.334 299.439 684.152 297.124 688.78C283.286 716.445 264.995 742.215 250.839 769.651C250.254 770.783 249.567 771.673 249.821 773.084L249.847 773.122Z" fill="#12416D"/>
<path d="M275.285 192.11C274.497 192.898 261.968 188.779 259.297 188.385C256.27 187.94 250.05 190.063 251.119 185.753C254.947 186.631 258.483 184.647 261.93 184.419C266.331 184.113 276.519 186.071 275.285 192.11Z" fill="#1A5B99"/>
<path d="M258.75 126.012C259.781 131.682 257.567 131.962 252.391 132.369C256.13 136.107 258.547 141.777 254.299 146.328C252.531 146.328 249.872 135.687 252.391 133.64C245.433 133.895 234.596 134.2 235.856 124.741C238.832 124.919 239.29 126.953 242.775 127.347C248.346 127.97 253.243 125.427 258.75 126.012Z" fill="#1A5B99"/>
<path d="M272.741 165.411C272.105 161.991 276.163 159.817 277.193 157.783C278.071 156.054 277.028 151.388 279.724 152.71C285.257 155.406 279.839 167.979 272.741 165.411Z" fill="#1A5B99"/>
<path d="M285.461 139.996C284.202 139.755 282.306 140.835 281.594 139.233C280.131 135.928 278.999 129.978 282.281 127.295C286.148 130.588 285.588 135.381 285.461 139.996Z" fill="#1A5B99"/>
<path d="M200.242 174.311C196.172 175.455 198.55 171.158 196.515 169.785C193.73 167.916 188.629 170.815 190.079 162.882L193.831 162.831L193.895 155.241C197.774 156.143 201.349 173.014 200.242 174.311Z" fill="#1A5B99"/>
</g>
</svg>
