<svg width="24" height="24" viewBox="0 0 24 24" fill="none" xmlns="http://www.w3.org/2000/svg">
<g clip-path="url(#clip0_379_307)">
<path fill-rule="evenodd" clip-rule="evenodd" d="M23.6972 11.2955C23.8899 11.4825 23.998 11.736 23.998 12.0002C23.998 12.2645 23.8899 12.518 23.6972 12.705L15.4683 20.6828C15.3742 20.7808 15.2606 20.8594 15.1344 20.9139C15.0083 20.9684 14.8721 20.9977 14.7339 21.0001C14.5958 21.0025 14.4586 20.9778 14.3306 20.9277C14.2025 20.8775 14.0861 20.8029 13.9885 20.7082C13.8908 20.6135 13.8138 20.5007 13.7621 20.3765C13.7103 20.2523 13.6849 20.1193 13.6874 19.9854C13.6898 19.8515 13.72 19.7195 13.7762 19.5971C13.8325 19.4748 13.9135 19.3647 14.0146 19.2734L20.488 12.9975H1.02666C0.753851 12.9975 0.49222 12.8924 0.299318 12.7054C0.106417 12.5184 -0.00195312 12.2647 -0.00195312 12.0002C-0.00195312 11.7358 0.106417 11.4821 0.299318 11.2951C0.49222 11.1081 0.753851 11.003 1.02666 11.003H20.488L14.0146 4.72707C13.9135 4.63577 13.8325 4.52568 13.7762 4.40335C13.72 4.28102 13.6898 4.14897 13.6874 4.01507C13.6849 3.88117 13.7103 3.74817 13.7621 3.624C13.8138 3.49982 13.8908 3.38702 13.9885 3.29233C14.0861 3.19763 14.2025 3.12298 14.3306 3.07282C14.4586 3.02267 14.5958 2.99804 14.7339 3.0004C14.8721 3.00276 15.0083 3.03207 15.1344 3.08657C15.2606 3.14108 15.3742 3.21966 15.4683 3.31764L23.6972 11.2955Z" fill="white"/>
</g>
<defs>
<clipPath id="clip0_379_307">
<rect width="24" height="24" fill="white"/>
</clipPath>
</defs>
</svg>
