<svg width="43" height="43" viewBox="0 0 43 43" fill="none" xmlns="http://www.w3.org/2000/svg">
<path d="M21.3332 0C9.55207 0 0 9.54168 0 21.316C0 33.0903 9.55207 42.632 21.3332 42.632C33.1095 42.632 42.6615 33.0903 42.6615 21.316C42.6615 9.54168 33.1089 0 21.3332 0ZM27.2338 12.9996C27.2338 13.1753 27.089 13.3201 26.9132 13.3201H24.3635C23.7375 13.3201 23.2308 13.8265 23.2308 14.4521V17.1191H26.8563C27.0423 17.1191 27.1926 17.279 27.1769 17.4655L26.8563 21.2287C26.8459 21.3941 26.7065 21.5182 26.5405 21.5182H23.2308V34.0006C23.2308 34.1763 23.086 34.3211 22.9102 34.3211H18.3485C18.1727 34.3211 18.0279 34.1763 18.0279 34.0006V21.5182H15.7473C15.5715 21.5182 15.4266 21.3789 15.4266 21.1978V17.44C15.4266 17.2644 15.5715 17.1196 15.7473 17.1196H18.0279V13.4963C18.0279 10.9687 20.0757 8.92197 22.6048 8.92197H26.9127C27.0884 8.92197 27.2333 9.0613 27.2333 9.24239L27.2338 12.9996Z" fill="#F9FBFC"/>
</svg>
