<svg width="43" height="43" viewBox="0 0 43 43" fill="none" xmlns="http://www.w3.org/2000/svg">
<path d="M21.3283 0C9.5472 0 0 9.54168 0 21.316C0 33.0903 9.5472 42.632 21.3283 42.632C33.1095 42.632 42.6567 33.0903 42.6567 21.316C42.6567 9.54168 33.1095 0 21.3283 0ZM33.9992 13.7798C33.9992 13.8471 33.6889 14.0021 33.5597 14.1729C32.9804 14.9536 32.0495 15.646 31.2737 16.2299C31.1598 16.3128 30.9737 16.4007 30.9737 16.5606C30.9737 20.6437 29.9289 24.717 26.9555 27.6735C23.1646 31.4362 17.4756 32.4598 12.4283 31.0697C11.4508 30.7959 10.5199 30.4185 9.61989 29.943C9.32532 29.7831 9.03021 29.6172 8.74595 29.4263C8.6738 29.3694 8.62171 29.3125 8.6841 29.2767C8.74106 29.2458 8.7926 29.2404 9.01502 29.2767C10.4266 29.416 11.8799 29.2046 13.2198 28.7389C13.9543 28.4803 15.5313 27.9636 15.9865 27.2712C15.9968 27.2555 16.0071 27.2555 16.0174 27.2403C15.8313 27.1991 15.6502 27.1991 15.4641 27.1628C14.0938 26.7751 12.2629 26.0877 11.4144 23.7775C11.3624 23.6381 11.4144 23.5709 11.5538 23.5964C12.6811 23.6842 13.0902 23.6224 13.4829 23.5394C13.2605 23.4982 13.0332 23.4256 12.8314 23.3378C11.1041 22.6812 9.84231 20.9961 9.60959 19.1771C9.58355 18.9651 9.56836 18.7846 9.57866 18.5932C9.58897 18.4588 9.65081 18.4121 9.77016 18.4897C10.6544 18.9494 11.6526 19.0584 11.7356 19.0427C11.5132 18.867 11.3065 18.681 11.1095 18.4897C9.60958 17.0735 9.02532 14.1843 10.2253 12.3902C10.3235 12.2455 10.3908 12.2455 10.5096 12.3799C13.2453 15.4969 16.6223 16.9542 20.6926 17.5588C20.801 17.5794 20.8114 17.5588 20.7962 17.44C20.6926 16.7265 20.6774 16.0239 20.8531 15.3158C21.0289 14.5817 21.3804 13.8839 21.8562 13.3C22.3162 12.7313 22.8956 12.2612 23.5422 11.9251C24.1889 11.584 24.9076 11.3823 25.6319 11.3308C26.3816 11.2842 27.1421 11.4029 27.8349 11.6876C28.3676 11.9045 28.838 12.194 29.2725 12.5664C29.3658 12.644 29.4483 12.7372 29.5313 12.8299C29.5882 12.8869 29.6555 12.9075 29.7379 12.8869C30.7828 12.6282 31.7652 12.2612 32.7118 11.7548C32.7531 11.7288 32.7997 11.7185 32.8513 11.7391C32.8979 11.7754 32.8979 11.8269 32.8773 11.8736C32.7064 12.4211 32.4482 12.933 32.0858 13.383C31.8482 13.6774 31.3361 14.4066 30.9325 14.4738C31.7804 14.329 32.8046 14.1171 33.5907 13.7603C33.6889 13.7137 33.9992 13.6985 33.9992 13.7603C33.9992 13.7592 33.9992 13.7695 33.9992 13.7798Z" fill="#F9FBFC"/>
</svg>
